<?xml version="1.0" standalone="no"?>
<!DOCTYPE svg PUBLIC "-//W3C//DTD SVG 1.1//EN" "http://www.w3.org/Graphics/SVG/1.1/DTD/svg11.dtd" >
<svg>
<metadata>
Created by FontForge 20120731 at Wed May 17 11:42:42 2017
 By www-data
Charlie is a slab-serif type family with proportional weights that allow you to increase the size of the letters without increasing their weight.
</metadata>
<defs>
<font id="CharliePro-Reg" horiz-adv-x="548" >
  <font-face 
    font-family="Charlie Pro Reg"
    font-weight="400"
    font-stretch="normal"
    units-per-em="1000"
    panose-1="0 0 0 0 0 0 0 0 0 0"
    ascent="730"
    descent="-270"
    x-height="500"
    cap-height="660"
    bbox="-298 -252 1289 1036"
    underline-thickness="50"
    underline-position="-50"
    unicode-range="U+0020-FB04"
  />
<missing-glyph horiz-adv-x="712" 
d="M305 375v27h27v-27h-27zM380 525v27h27v-27h-27zM305 525v27h27v-27h-27zM230 525v27h27v-27h-27zM80 0v27h27v-27h-27zM155 0v27h27v-27h-27zM230 0v27h27v-27h-27zM305 0v27h27v-27h-27zM380 0v27h27v-27h-27zM80 75v27h27v-27h-27zM80 150v27h27v-27h-27zM80 225v27
h27v-27h-27zM80 300v27h27v-27h-27zM80 375v27h27v-27h-27zM80 450v27h27v-27h-27zM80 525v27h27v-27h-27zM80 600v27h27v-27h-27zM80 675v27h27v-27h-27zM155 675v27h27v-27h-27zM230 675v27h27v-27h-27zM305 675v27h27v-27h-27zM380 675v27h27v-27h-27zM455 675v27h27v-27
h-27zM530 675v27h27v-27h-27zM530 0v27h27v-27h-27zM455 0v27h27v-27h-27zM605 0v27h27v-27h-27zM605 675v27h27v-27h-27zM305 300v27h27v-27h-27zM305 150v27h27v-27h-27zM380 375v27h27v-27h-27zM455 375v27h27v-27h-27zM455 450v27h27v-27h-27zM455 525v27h27v-27h-27z
M605 600v27h27v-27h-27zM605 525v27h27v-27h-27zM605 375v27h27v-27h-27zM605 300v27h27v-27h-27zM605 150v27h27v-27h-27zM605 75v27h27v-27h-27zM605 225v27h27v-27h-27zM605 450v27h27v-27h-27z" />
    <glyph glyph-name="t_t" unicode="tt" horiz-adv-x="700" 
d="M687 17c-24 -17 -69 -26 -107 -26c-97 0 -144 47 -144 137v308h-76v25l11 39h68l17 133h70l-16 -133h172l-17 -64h-159v-284c0 -63 20 -92 83 -92c37 0 71 11 98 27v-70zM344 17c-24 -17 -69 -26 -107 -26c-97 0 -144 47 -144 137v308h-76v25l15 39h64l17 133h70
l-16 -133h154l-17 -64h-141v-284c0 -63 20 -92 83 -92c37 0 71 11 98 27v-70z" />
    <glyph glyph-name="aogonek_j" unicode="&#x105;j" horiz-adv-x="733" 
d="M395 103c0 -31 9 -48 37 -48c14 0 26 4 38 12v-60l-22 -9c-81 -35 -127 -80 -127 -124c0 -41 26 -58 62 -58c21 0 39 5 58 14v-55c-13 -10 -41 -15 -64 -15c-74 0 -118 39 -118 101c0 50 37 97 107 138c-18 10 -31 27 -37 50c-25 -36 -72 -59 -132 -59
c-88 0 -156 58 -156 147c0 101 65 157 211 157h73v35c0 86 -31 115 -114 115c-22 0 -52 -3 -78 -9l-2 -83h-62v130c41 18 100 28 148 28c117 0 178 -56 178 -165v-242zM463 -229v63c11 -2 24 -3 36 -3c62 0 86 34 86 130v475h-76v24l15 40h141l-10 -56v-489
c0 -136 -50 -190 -147 -190c-17 0 -35 2 -45 6zM213 55c48 0 89 20 112 53v126h-64c-109 0 -148 -36 -148 -93c0 -55 38 -86 100 -86zM619 566c-29 0 -52 23 -52 51c0 30 23 53 52 53c31 0 54 -23 54 -53c0 -28 -23 -51 -54 -51z" />
    <glyph glyph-name="uni301A" unicode="[[" horiz-adv-x="358" 
d="M178 -13v753h-52v-753h52zM68 -74v875h257v-61h-89v-753h89v-61h-257z" />
    <glyph glyph-name="uni301B" unicode="]]" horiz-adv-x="358" 
d="M232 740h-52v-753h52v753zM33 -74v61h89v753h-89v61h257v-875h-257z" />
    <glyph glyph-name="dblparenleft" unicode="&#x28;&#x28;" horiz-adv-x="391" 
d="M313 -70c-92 125 -141 285 -141 436c0 150 49 310 141 435h57v-15c-84 -117 -134 -267 -134 -420c0 -154 50 -304 134 -421v-15h-57zM188 -70c-92 125 -141 285 -141 436c0 150 49 310 141 435h57v-15c-84 -117 -134 -267 -134 -420c0 -154 50 -304 134 -421v-15h-57z
" />
    <glyph glyph-name="dblparenright" unicode="&#x29;&#x29;" horiz-adv-x="391" 
d="M219 366c0 -151 -49 -311 -141 -436h-57v15c84 117 134 267 134 421c0 153 -50 303 -134 420v15h57c92 -125 141 -285 141 -435zM344 366c0 -151 -49 -311 -141 -436h-57v15c84 117 134 267 134 421c0 153 -50 303 -134 420v15h57c92 -125 141 -285 141 -435z" />
    <glyph glyph-name="fi" unicode="fi" horiz-adv-x="585" 
d="M397 622c0 30 23 53 52 53c31 0 54 -23 54 -53c0 -28 -23 -51 -54 -51c-29 0 -52 23 -52 51zM264 62v-62h-227v62l71 2v372h-76v25l15 39h61v25c0 127 49 215 181 215c32 0 69 -5 85 -16v-64c-22 9 -53 14 -77 14c-87 0 -119 -43 -119 -155v-19h317l-10 -56v-380l81 -2
v-62h-222v62l71 2v372h-237v-372z" />
    <glyph glyph-name="fl" unicode="fl" horiz-adv-x="582" 
d="M513 -10c-58 0 -98 25 -98 99v565c-23 11 -59 20 -97 20c-98 0 -140 -54 -140 -159v-15h141l-19 -64h-122v-372l106 -2v-62h-247v62l71 2v372h-76v25l15 39h61v24c0 141 74 216 204 216c43 0 86 -11 115 -27l17 17h51l-10 -56v-570c0 -38 11 -49 43 -49c14 0 30 3 43 10
v-63c-11 -7 -38 -12 -58 -12z" />
    <glyph glyph-name="f_h" unicode="fh" horiz-adv-x="877" 
d="M260 0h-223v62l71 2v372h-76v25l15 39h61v24c0 141 74 216 204 216c43 0 84 -11 113 -27l17 17h53l-10 -56v-228c43 42 93 64 152 64c96 0 150 -68 150 -173v-273l74 -2v-62h-218v62l74 2v252c0 91 -36 126 -102 126c-43 0 -95 -30 -130 -74v-305l78 -1v-62h-223v62l75 2
v590c-23 11 -59 20 -97 20c-98 0 -140 -54 -140 -159v-15h141l-19 -64h-122v-372l82 -2v-62z" />
    <glyph glyph-name="f_b" unicode="fb" horiz-adv-x="869" 
d="M485 372v-286c27 -21 61 -33 109 -33c95 0 158 70 158 208c0 119 -50 180 -134 180c-50 0 -99 -28 -133 -69zM598 -10c-59 0 -100 16 -126 38l-18 -36h-59l20 106v556c-23 11 -59 20 -97 20c-98 0 -140 -54 -140 -159v-15h141l-19 -64h-122v-372l106 -2v-62h-247v62l71 2
v372h-76v25l15 39h61v24c0 141 74 216 204 216c43 0 84 -11 113 -27l17 17h53l-10 -56v-239c29 42 83 75 146 75c126 0 194 -89 194 -245c0 -177 -89 -275 -227 -275z" />
    <glyph glyph-name="f_j" unicode="fj" horiz-adv-x="563" 
d="M415 -24v460h-237v-372l106 -2v-62h-247v62l71 2v372h-76v25l15 39h61v25c0 127 49 215 181 215c32 0 69 -5 85 -16v-64c-22 9 -53 14 -77 14c-87 0 -119 -43 -119 -155v-19h317l-10 -56v-480c0 -136 -65 -198 -182 -198c-18 0 -41 2 -55 7v66c14 -2 32 -4 47 -4
c84 0 120 37 120 141zM397 622c0 30 23 53 52 53c31 0 54 -23 54 -53c0 -28 -23 -51 -54 -51c-29 0 -52 23 -52 51z" />
    <glyph glyph-name="f_k" unicode="fk" horiz-adv-x="836" 
d="M264 0h-227v62l71 2v372h-76v25l15 39h61v24c0 141 74 216 204 216c43 0 85 -11 114 -27l17 17h52l-10 -56v-384h84l111 146h-71v64h214v-64h-62l-137 -180l140 -192l59 -2v-62h-99l-160 225h-79v-161l81 -2v-62h-222v62l71 2v590c-23 11 -59 20 -97 20
c-98 0 -140 -54 -140 -159v-15h141l-19 -64h-122v-372l86 -2v-62z" />
    <glyph glyph-name="f_f" unicode="ff" horiz-adv-x="648" 
d="M264 62v-62h-227v62l71 2v372h-76v25l15 39h61v25c0 127 49 215 181 215c32 0 69 -5 85 -16v-64c-22 9 -53 14 -77 14c-87 0 -119 -43 -119 -155v-19h237v25c0 127 61 215 193 215c32 0 69 -5 85 -16v-64c-22 9 -53 14 -77 14c-87 0 -131 -43 -131 -155v-19h151l-17 -64
h-134v-372l81 -2v-62h-222v62l71 2v372h-237v-372z" />
    <glyph glyph-name="f_f_i" unicode="ffi" horiz-adv-x="892" 
d="M704 622c0 30 23 53 52 53c31 0 54 -23 54 -53c0 -28 -23 -51 -54 -51c-29 0 -52 23 -52 51zM264 62v-62h-227v62l71 2v372h-76v25l15 39h61v25c0 127 49 215 181 215c32 0 69 -5 85 -16v-64c-22 9 -53 14 -77 14c-87 0 -119 -43 -119 -155v-19h237v25
c0 127 49 215 181 215c32 0 69 -5 85 -16v-64c-22 9 -53 14 -77 14c-87 0 -119 -43 -119 -155v-19h317l-10 -56v-380l81 -2v-62h-222v62l71 2v372h-237v-372l86 -2v-62h-227v62l71 2v372h-237v-372z" />
    <glyph glyph-name="f_f_l" unicode="ffl" horiz-adv-x="889" 
d="M820 -10c-58 0 -98 25 -98 99v565c-23 11 -59 20 -97 20c-98 0 -140 -54 -140 -159v-15h141l-19 -64h-122v-372l91 -2v-62h-232v62l71 2v372h-237v-372l86 -2v-62h-227v62l71 2v372h-76v25l15 39h61v25c0 127 49 215 181 215c32 0 69 -5 85 -16v-64c-22 9 -53 14 -77 14
c-87 0 -119 -43 -119 -155v-19h237v24c0 141 74 216 204 216c43 0 86 -11 115 -27l17 17h51l-10 -56v-570c0 -38 11 -49 43 -49c14 0 30 3 43 10v-63c-11 -7 -38 -12 -58 -12z" />
    <glyph glyph-name="f_f_j" unicode="ffj" horiz-adv-x="870" 
d="M722 -25v461h-237v-372l91 -2v-62h-232v62l71 2v372h-237v-372l86 -2v-62h-227v62l71 2v372h-76v25l15 39h61v25c0 127 49 215 181 215c32 0 69 -5 85 -16v-64c-22 9 -53 14 -77 14c-87 0 -119 -43 -119 -155v-19h237v25c0 127 49 215 181 215c32 0 74 -5 90 -16v-64
c-22 9 -58 14 -82 14c-87 0 -119 -43 -119 -155v-19h317l-10 -56v-481c0 -136 -65 -198 -182 -198c-18 0 -41 2 -55 7v66c14 -2 32 -4 47 -4c84 0 120 37 120 141zM699 622c0 30 23 53 52 53c31 0 54 -23 54 -53c0 -28 -23 -51 -54 -51c-29 0 -52 23 -52 51z" />
    <glyph glyph-name="f_idieresis" unicode="f&#xef;" horiz-adv-x="590" 
d="M269 62v-62h-232v62l71 2v372h-76v25l15 39h61v53c0 115 56 187 160 187c24 0 48 -4 60 -9v-68c-14 5 -35 8 -52 8c-69 0 -98 -46 -98 -127v-44h322l-10 -56v-380l81 -2v-62h-222v62l71 2v372h-242v-372zM331 622c0 28 23 52 52 52s53 -24 53 -52c0 -29 -24 -51 -53 -51
s-52 22 -52 51zM481 622c0 28 23 52 52 52s53 -24 53 -52c0 -29 -24 -51 -53 -51s-52 22 -52 51z" />
    <glyph glyph-name="f_igrave" unicode="f&#xec;" horiz-adv-x="590" 
d="M343 730h81l63 -144v-15h-58l-86 144v15zM269 62v-62h-232v62l71 2v372h-76v25l15 39h61v53c0 115 56 187 160 187c24 0 48 -4 60 -9v-68c-14 5 -35 8 -52 8c-69 0 -98 -46 -98 -127v-44h322l-10 -56v-380l81 -2v-62h-222v62l71 2v372h-242v-372z" />
    <glyph glyph-name=".notdef" horiz-adv-x="712" 
d="M305 375v27h27v-27h-27zM380 525v27h27v-27h-27zM305 525v27h27v-27h-27zM230 525v27h27v-27h-27zM80 0v27h27v-27h-27zM155 0v27h27v-27h-27zM230 0v27h27v-27h-27zM305 0v27h27v-27h-27zM380 0v27h27v-27h-27zM80 75v27h27v-27h-27zM80 150v27h27v-27h-27zM80 225v27
h27v-27h-27zM80 300v27h27v-27h-27zM80 375v27h27v-27h-27zM80 450v27h27v-27h-27zM80 525v27h27v-27h-27zM80 600v27h27v-27h-27zM80 675v27h27v-27h-27zM155 675v27h27v-27h-27zM230 675v27h27v-27h-27zM305 675v27h27v-27h-27zM380 675v27h27v-27h-27zM455 675v27h27v-27
h-27zM530 675v27h27v-27h-27zM530 0v27h27v-27h-27zM455 0v27h27v-27h-27zM605 0v27h27v-27h-27zM605 675v27h27v-27h-27zM305 300v27h27v-27h-27zM305 150v27h27v-27h-27zM380 375v27h27v-27h-27zM455 375v27h27v-27h-27zM455 450v27h27v-27h-27zM455 525v27h27v-27h-27z
M605 600v27h27v-27h-27zM605 525v27h27v-27h-27zM605 375v27h27v-27h-27zM605 300v27h27v-27h-27zM605 150v27h27v-27h-27zM605 75v27h27v-27h-27zM605 225v27h27v-27h-27zM605 450v27h27v-27h-27z" />
    <glyph glyph-name="space" unicode=" " horiz-adv-x="219" 
 />
    <glyph glyph-name="A" unicode="A" horiz-adv-x="644" 
d="M11 0v63l62 2l204 595h89l206 -595l62 -2v-63h-222v63l80 2l-41 124h-261l-41 -124l80 -2v-63h-218zM429 256l-109 330l-108 -330h217z" />
    <glyph glyph-name="B" unicode="B" horiz-adv-x="614" 
d="M361 0h-318v64l86 2v528l-86 2v64h262c148 0 223 -63 223 -168c0 -53 -24 -105 -70 -142c75 -25 115 -85 115 -160c0 -117 -88 -190 -212 -190zM285 594h-83v-231h148c20 0 41 -1 51 -2c32 36 51 81 51 122c0 74 -56 111 -167 111zM348 298h-146v-232h146
c90 0 149 44 149 120c0 71 -48 112 -149 112z" />
    <glyph glyph-name="C" unicode="C" horiz-adv-x="559" 
d="M519 32c-34 -25 -107 -42 -176 -42c-181 0 -295 108 -295 332c0 210 92 348 299 348c52 0 128 -13 172 -39v-147h-67l-2 99c-34 11 -69 17 -107 17c-135 0 -219 -89 -219 -273c0 -186 85 -267 223 -267c65 0 123 16 172 47v-75z" />
    <glyph glyph-name="D" unicode="D" horiz-adv-x="667" 
d="M310 0h-267v64l87 2v528l-87 2v64h264c196 0 312 -100 312 -320c0 -221 -111 -340 -309 -340zM296 594h-93v-528h93c174 0 246 94 246 268c0 176 -72 260 -246 260z" />
    <glyph glyph-name="E" unicode="E" horiz-adv-x="575" 
d="M526 171v-171h-483v64l87 2v528l-87 2v64h478v-176h-67l-2 110h-249v-223h233v-65h-233v-240h256l2 105h65z" />
    <glyph glyph-name="F" unicode="F" horiz-adv-x="553" 
d="M299 0h-256v64l87 2v528l-87 2v64h478v-176h-67l-2 110h-249v-224h233v-65h-233v-239l96 -2v-64z" />
    <glyph glyph-name="G" unicode="G" horiz-adv-x="601" 
d="M541 34c-47 -26 -123 -44 -189 -44c-199 0 -305 120 -305 329s98 351 302 351c65 0 133 -14 189 -39v-147h-67l-2 96c-40 14 -77 19 -123 19c-135 0 -223 -95 -223 -276c0 -183 92 -263 230 -263c40 0 83 6 115 21v160l-94 2v63h167v-272z" />
    <glyph glyph-name="H" unicode="H" horiz-adv-x="739" 
d="M292 64v-64h-249v64l88 2v528l-88 2v64h249v-64l-88 -2v-220h331v220l-88 2v64h249v-64l-88 -2v-528l88 -2v-64h-249v64l88 2v240h-331v-240z" />
    <glyph glyph-name="I" unicode="I" horiz-adv-x="335" 
d="M292 0h-249v64l88 2v528l-88 2v64h249v-64l-88 -2v-528l88 -2v-64z" />
    <glyph glyph-name="J" unicode="J" horiz-adv-x="315" 
d="M0 -180c-22 0 -40 2 -60 7v68c16 -4 38 -6 55 -6c87 0 126 43 126 145v560l-88 2v64h249v-64l-88 -2v-568c0 -134 -65 -206 -194 -206z" />
    <glyph glyph-name="K" unicode="K" horiz-adv-x="632" 
d="M280 63v-63h-238v63l88 2v530l-88 2v63h238v-63l-77 -2v-227h109l147 227l-67 2v63h215v-63l-66 -1l-172 -264l193 -267l60 -2v-63h-207v63l60 1l-168 235h-104v-234z" />
    <glyph glyph-name="L" unicode="L" horiz-adv-x="562" 
d="M534 0h-491v64l88 2v528l-88 2v64h251v-64l-90 -2v-529h263l2 124h65v-189z" />
    <glyph glyph-name="M" unicode="M" horiz-adv-x="803" 
d="M254 63v-63h-220v63l76 2l38 530l-87 2v63h206l137 -413l137 413h201v-63l-86 -2l38 -530l75 -2v-63h-220v63l74 2l-36 523l-143 -432h-83l-144 434l-36 -525z" />
    <glyph glyph-name="N" unicode="N" horiz-adv-x="730" 
d="M293 64v-64h-250v64l88 2v528l-88 2v64h178l317 -553v487l-75 2v64h234v-64l-88 -2v-594h-89l-318 555v-489z" />
    <glyph glyph-name="O" unicode="O" horiz-adv-x="651" 
d="M324 -10c-173 0 -276 121 -276 337s102 343 281 343c176 0 274 -125 274 -335c0 -213 -98 -345 -279 -345zM325 58c125 0 201 90 201 272s-76 271 -201 271c-118 0 -201 -89 -201 -271s80 -272 201 -272z" />
    <glyph glyph-name="P" unicode="P" horiz-adv-x="574" 
d="M287 594h-83v-285h83c114 0 175 51 175 145c0 91 -60 140 -175 140zM298 64v-64h-255v64l88 2v528l-88 2v64h247c173 0 248 -77 248 -202c0 -131 -85 -216 -247 -216h-87v-176z" />
    <glyph glyph-name="Q" unicode="Q" horiz-adv-x="651" 
d="M475 -170c-101 0 -175 50 -187 162c-151 16 -240 135 -240 335c0 216 102 343 281 343c176 0 274 -125 274 -335c0 -196 -84 -323 -237 -342c10 -68 48 -92 112 -92c29 0 56 5 75 14v-71c-20 -9 -54 -14 -78 -14zM124 330c0 -182 80 -272 201 -272c125 0 201 90 201 272
s-76 271 -201 271c-118 0 -201 -89 -201 -271z" />
    <glyph glyph-name="R" unicode="R" horiz-adv-x="626" 
d="M203 595v-270h164c56 43 84 94 84 148c0 76 -50 122 -165 122h-83zM284 63v-63h-242v63l88 2v530l-88 2v63h259c152 0 227 -68 227 -179c0 -76 -39 -141 -115 -189l157 -227l45 -2v-63h-91l-174 259h-147v-194z" />
    <glyph glyph-name="S" unicode="S" horiz-adv-x="511" 
d="M467 175c0 -110 -83 -185 -227 -185c-68 0 -135 12 -189 37v157h68l2 -108c37 -14 75 -19 119 -19c97 0 151 43 151 117c0 76 -74 108 -154 142c-87 36 -180 77 -180 190c0 103 80 164 205 164c70 0 127 -14 181 -36v-152h-67l-2 103c-40 13 -73 18 -117 18
c-83 0 -125 -38 -125 -98c0 -72 69 -94 140 -124c94 -40 195 -81 195 -206z" />
    <glyph glyph-name="T" unicode="T" horiz-adv-x="594" 
d="M421 63v-63h-248v63l87 2v529h-160l-2 -110h-67v176h532v-176h-67l-2 110h-161v-529z" />
    <glyph glyph-name="U" unicode="U" horiz-adv-x="688" 
d="M341 -10c-148 0 -232 88 -232 238v367l-68 2v63h223v-63l-82 -2v-361c0 -117 58 -174 161 -174s164 57 164 174v361l-82 2v63h223v-63l-68 -2v-367c0 -147 -93 -238 -239 -238z" />
    <glyph glyph-name="V" unicode="V" horiz-adv-x="625" 
d="M358 0h-90l-195 595l-62 2v63h208v-63l-69 -2l164 -507l164 507l-68 2v63h204v-63l-62 -2z" />
    <glyph glyph-name="W" unicode="W" horiz-adv-x="897" 
d="M593 0l-145 529l-145 -529h-93l-135 595l-60 2v63h216v-63l-82 -2l112 -497l140 514h96l141 -516l112 499l-82 2v63h214v-63l-60 -2l-135 -595h-94z" />
    <glyph glyph-name="X" unicode="X" horiz-adv-x="588" 
d="M211 63v-63h-197v63l58 2l178 280l-158 251l-68 2v62h216v-62l-64 -2l118 -191l122 191l-62 2v62h210v-62l-66 -2l-160 -248l176 -283l60 -2v-63h-204v63l62 2l-138 224l-142 -224z" />
    <glyph glyph-name="Y" unicode="Y" horiz-adv-x="618" 
d="M434 0h-249v63l88 2v206l-200 324l-61 2v63h211v-63l-63 -2l151 -254l152 254l-63 2v63h207v-63l-62 -2l-199 -323v-207l88 -2v-63z" />
    <glyph glyph-name="Z" unicode="Z" horiz-adv-x="544" 
d="M499 0h-464v59l375 536h-288l-2 -111h-67v176h446v-59l-375 -536h308l2 106h65v-171z" />
    <glyph glyph-name="J.alt" horiz-adv-x="370" 
d="M76 -4c-22 0 -45 2 -55 6v70c6 -2 28 -4 45 -4c87 0 116 26 116 131v395l-88 2v64h249v-64l-88 -2v-408c0 -137 -53 -190 -179 -190z" />
    <glyph glyph-name="a" unicode="a" horiz-adv-x="476" 
d="M409 -10c-42 0 -71 22 -80 59c-25 -36 -72 -59 -132 -59c-88 0 -156 58 -156 147c0 101 65 157 211 157h73v35c0 86 -31 115 -114 115c-22 0 -52 -3 -78 -9l-2 -83h-62v130c41 18 100 28 148 28c117 0 178 -56 178 -165v-242c0 -31 9 -48 37 -48c14 0 26 4 38 12v-63
c-17 -10 -36 -14 -61 -14zM213 55c48 0 89 20 112 53v126h-64c-109 0 -148 -36 -148 -93c0 -55 38 -86 100 -86z" />
    <glyph glyph-name="b" unicode="b" horiz-adv-x="534" 
d="M259 53c95 0 158 70 158 208c0 119 -50 180 -134 180c-50 0 -99 -28 -133 -69v-286c27 -21 61 -33 109 -33zM263 -10c-59 0 -100 16 -126 38l-18 -36h-59l20 106v568h-75v25l15 39h140l-10 -56v-239c29 42 83 75 146 75c126 0 194 -89 194 -245
c0 -177 -89 -275 -227 -275z" />
    <glyph glyph-name="c" unicode="c" horiz-adv-x="442" 
d="M398 20c-21 -16 -74 -30 -122 -30c-146 0 -233 86 -233 253c0 163 80 267 233 267c47 0 95 -8 122 -22v-136h-63l-2 86c-16 3 -35 4 -50 4c-105 0 -167 -67 -167 -192c0 -138 66 -192 169 -192c37 0 76 9 113 30v-68z" />
    <glyph glyph-name="d" unicode="d" horiz-adv-x="546" 
d="M463 -10c-41 0 -68 19 -78 54c-29 -34 -80 -54 -135 -54c-121 0 -206 80 -206 253c0 167 77 267 227 267c42 0 83 -11 109 -29v185h-86v25l15 39h151l-10 -56v-573c0 -31 11 -46 36 -46c14 0 30 5 39 12v-63c-17 -10 -36 -14 -62 -14zM264 57c45 0 92 16 116 44v318
c-27 16 -62 23 -103 23c-105 0 -160 -67 -160 -193c0 -137 56 -192 147 -192z" />
    <glyph glyph-name="e" unicode="e" horiz-adv-x="469" 
d="M276 -10c-142 0 -233 71 -233 247c0 158 70 273 205 273c111 0 177 -72 177 -197c0 -24 -4 -54 -10 -80h-299c3 -129 62 -175 165 -175c49 0 102 13 134 33v-69c-26 -17 -85 -32 -139 -32zM244 447c-74 0 -115 -59 -125 -153h234c1 7 1 15 1 23c0 85 -40 130 -110 130z
" />
    <glyph glyph-name="f" unicode="f" horiz-adv-x="343" 
d="M269 62v-62h-232v62l71 2v372h-76v25l15 39h61v25c0 127 61 215 193 215c32 0 69 -5 85 -16v-64c-22 9 -53 14 -77 14c-87 0 -131 -43 -131 -155v-19h151l-17 -64h-134v-372z" />
    <glyph glyph-name="g" unicode="g" horiz-adv-x="487" 
d="M292 0l-132 18c-49 -26 -74 -67 -74 -106c0 -56 47 -90 140 -90c99 0 158 46 158 101c0 44 -29 68 -92 77zM118 329c0 -77 39 -118 112 -118c67 0 112 41 112 118c0 70 -37 119 -112 119s-112 -49 -112 -119zM457 -70c0 -93 -84 -170 -237 -170c-131 0 -204 55 -205 141
c-1 50 21 100 92 133c-24 12 -42 34 -42 63c0 30 12 60 51 85c-45 30 -68 81 -68 143c0 108 67 185 184 185c42 0 76 -9 103 -25c17 58 54 82 101 82c17 0 27 -1 39 -4v-63c-7 1 -17 2 -27 2c-33 0 -59 -21 -71 -54c23 -30 35 -70 35 -115c0 -109 -67 -182 -184 -182
c-26 0 -49 3 -69 10c-16 -13 -27 -31 -27 -45c0 -16 13 -26 47 -31l138 -19c98 -13 140 -64 140 -136z" />
    <glyph glyph-name="h" unicode="h" horiz-adv-x="563" 
d="M245 62v-62h-217v62l66 2v602h-76v25l15 39h141l-10 -56v-245c33 53 92 81 154 81c101 0 156 -72 156 -172v-274l71 -2v-62h-220v62l79 2v252c0 85 -33 125 -102 125c-43 0 -104 -29 -138 -75v-302z" />
    <glyph glyph-name="i" unicode="i" horiz-adv-x="278" 
d="M90 622c0 30 23 53 52 53c31 0 54 -23 54 -53c0 -28 -23 -51 -54 -51c-29 0 -52 23 -52 51zM259 0h-222v62l71 2v372h-76v25l15 39h141l-10 -56v-380l81 -2v-62z" />
    <glyph glyph-name="j" unicode="j" horiz-adv-x="246" 
d="M80 622c0 30 23 53 52 53c31 0 54 -23 54 -53c0 -28 -23 -51 -54 -51c-29 0 -52 23 -52 51zM-14 -235c-18 0 -41 2 -55 7v66c14 -2 32 -4 47 -4c84 0 120 37 120 141v461h-76v25l15 39h141l-10 -56v-481c0 -136 -65 -198 -182 -198z" />
    <glyph glyph-name="k" unicode="k" horiz-adv-x="515" 
d="M245 62v-62h-217v62l66 2v602h-76v25l15 39h141l-10 -56v-384h84l111 146h-71v64h214v-64h-62l-137 -180l140 -192l59 -2v-62h-97l-162 225h-79v-161z" />
    <glyph glyph-name="l" unicode="l" horiz-adv-x="246" 
d="M235 2c-11 -7 -38 -12 -58 -12c-58 0 -98 25 -98 99v577h-73v25l15 39h138l-10 -56v-570c0 -38 11 -49 43 -49c14 0 30 3 43 10v-63z" />
    <glyph glyph-name="m" unicode="m" horiz-adv-x="851" 
d="M249 62v-62h-212v62l71 2v372h-76v25l15 39h131v-67c33 49 84 77 141 77c66 0 114 -33 137 -88c33 55 87 88 152 88c102 0 153 -71 153 -171v-275l71 -2v-62h-209v62l68 2v252c0 85 -30 125 -99 125c-47 0 -91 -29 -123 -76c1 -12 1 -34 1 -41v-260l73 -2v-62h-214v62
l71 2v252c0 85 -33 125 -99 125c-46 0 -91 -29 -123 -70v-307z" />
    <glyph glyph-name="n" unicode="n" horiz-adv-x="577" 
d="M259 62v-62h-222v62l71 2v372h-76v25l15 39h131v-67c34 48 91 77 154 77c103 0 156 -75 156 -173v-273l71 -2v-62h-220v62l79 2v252c0 84 -32 125 -103 125c-50 0 -101 -29 -137 -73v-304z" />
    <glyph glyph-name="o" unicode="o" horiz-adv-x="514" 
d="M253 -10c-131 0 -209 84 -209 255c0 166 78 265 218 265c133 0 208 -90 208 -257c0 -165 -76 -263 -217 -263zM257 53c84 0 141 62 141 196s-52 196 -141 196c-88 0 -141 -66 -141 -196c0 -134 52 -196 141 -196z" />
    <glyph glyph-name="p" unicode="p" horiz-adv-x="552" 
d="M265 53c109 0 170 68 170 205c0 124 -50 183 -135 183c-48 0 -98 -30 -132 -72v-296c26 -14 61 -20 97 -20zM264 -168v-62h-237v62l71 2v602h-76v25l15 39h131v-65c31 45 86 75 147 75c119 0 193 -82 193 -245c0 -179 -90 -275 -235 -275c-38 0 -76 7 -105 19v-175z" />
    <glyph glyph-name="q" unicode="q" horiz-adv-x="532" 
d="M285 -230v62l98 2v203c-28 -28 -77 -47 -129 -47c-135 0 -211 90 -211 253c0 164 80 267 227 267c51 0 99 -16 127 -39l20 39h53l-17 -99v-577l71 -2v-62h-239zM268 57c41 0 89 16 115 43v316c-26 17 -64 26 -101 26c-109 0 -166 -72 -166 -194c0 -139 63 -191 152 -191z
" />
    <glyph glyph-name="r" unicode="r" horiz-adv-x="360" 
d="M37 0v62l71 2v372h-76v25l15 39h128v-74c21 54 59 82 119 82c17 0 31 -3 45 -8v-69h-22c-63 0 -104 -21 -139 -71v-296l91 -2v-62h-232z" />
    <glyph glyph-name="s" unicode="s" horiz-adv-x="442" 
d="M200 -10c-58 0 -125 10 -153 26v138h63l1 -91c28 -7 57 -9 88 -9c87 0 128 32 128 83c0 59 -59 74 -121 96c-89 31 -155 60 -155 143c0 73 52 134 189 134c54 0 113 -10 143 -24v-134h-62l-1 87c-24 5 -52 8 -83 8c-86 0 -116 -34 -116 -70c0 -47 57 -62 113 -81
c90 -31 164 -58 164 -154c0 -90 -70 -152 -198 -152z" />
    <glyph glyph-name="t" unicode="t" horiz-adv-x="358" 
d="M344 17c-24 -17 -69 -26 -107 -26c-97 0 -144 47 -144 137v308h-76v25l15 39h64l17 133h70l-16 -133h173l-17 -64h-160v-284c0 -63 20 -92 83 -92c37 0 71 11 98 27v-70z" />
    <glyph glyph-name="u" unicode="u" horiz-adv-x="553" 
d="M469 -10c-44 0 -73 22 -81 63c-26 -38 -76 -63 -138 -63c-98 0 -160 57 -160 162v284h-66v25l15 39h131l-10 -58v-275c0 -78 36 -108 107 -108c47 0 94 21 119 57v320h-78v25l15 39h143l-10 -56v-342c0 -34 12 -47 36 -47c14 0 28 4 39 12v-63c-16 -10 -37 -14 -62 -14z
" />
    <glyph glyph-name="v" unicode="v" horiz-adv-x="540" 
d="M316 0h-91l-153 436h-56v64h190v-64h-59l125 -365l122 365h-55v64h184v-64h-55z" />
    <glyph glyph-name="w" unicode="w" horiz-adv-x="747" 
d="M472 0l-98 333l-99 -333h-84l-114 436h-58v64h194v-64h-64l88 -343l95 320h85l95 -324l89 347h-65v64h192v-64h-58l-114 -436h-84z" />
    <glyph glyph-name="x" unicode="x" horiz-adv-x="527" 
d="M211 0h-198v62l58 1l147 200l-124 173h-61v64h198v-64h-54l89 -124l90 124h-55v64h192v-64h-58l-128 -172l148 -200l58 -2v-62h-202v62l60 2l-111 152l-110 -152l61 -2v-62z" />
    <glyph glyph-name="y" unicode="y" horiz-adv-x="539" 
d="M78 -241c-19 0 -43 3 -56 8v67c15 -4 29 -6 50 -6c77 0 124 23 162 136l12 36h-23l-152 436h-55v64h190v-64h-60l125 -364l123 364h-55v64h184v-64h-55l-176 -508c-43 -123 -111 -169 -214 -169z" />
    <glyph glyph-name="z" unicode="z" horiz-adv-x="464" 
d="M419 0h-383v62l292 374h-209l-2 -84h-63v148h365v-60l-294 -376h229l2 84h63v-148z" />
    <glyph glyph-name="zero.zero" horiz-adv-x="584" 
d="M289 -10c-160 0 -236 117 -236 336c0 222 73 344 242 344s236 -116 236 -335c0 -222 -70 -345 -242 -345zM130 330c0 -67 7 -122 21 -164l255 385c-26 33 -63 50 -114 50c-111 0 -162 -89 -162 -271zM292 58c118 0 162 90 162 272c0 67 -6 121 -19 163l-255 -385
c26 -33 63 -50 112 -50z" />
    <glyph glyph-name="zero" unicode="0" horiz-adv-x="584" 
d="M289 -10c-160 0 -236 117 -236 336c0 222 73 344 242 344s236 -116 236 -335c0 -222 -70 -345 -242 -345zM292 57c118 0 162 91 162 273s-44 272 -162 272c-111 0 -162 -90 -162 -272s48 -273 162 -273z" />
    <glyph glyph-name="one" unicode="1" horiz-adv-x="365" 
d="M345 0h-298v63l112 2v515l-116 -24v66l138 38h51v-595l113 -2v-63z" />
    <glyph glyph-name="two" unicode="2" horiz-adv-x="523" 
d="M46 0v59c85 78 150 141 199 192c99 103 134 164 134 226c0 72 -52 124 -154 124c-35 0 -68 -6 -100 -17l-2 -100h-67v142c35 22 103 44 176 44c143 0 222 -75 222 -187c0 -72 -31 -144 -152 -269c-42 -42 -93 -91 -157 -148h261l2 105h65v-171h-427z" />
    <glyph glyph-name="three" unicode="3" horiz-adv-x="520" 
d="M224 -10c-66 0 -129 12 -171 36v76c49 -30 111 -42 172 -42c114 0 170 58 170 137c0 71 -45 125 -147 125h-80v66h66c39 0 75 -3 99 -10c27 32 41 69 41 106c0 67 -55 117 -150 117c-35 0 -67 -6 -97 -16l-2 -101h-67v143c42 27 113 43 172 43c140 0 219 -74 219 -175
c0 -56 -26 -102 -66 -138c57 -32 88 -88 88 -158c0 -118 -85 -209 -247 -209z" />
    <glyph glyph-name="four" unicode="4" horiz-adv-x="553" 
d="M342 225v380l-233 -380h233zM518 157h-103v-91l88 -2v-64h-249v64l88 2v91h-316v59l272 444h117v-435h103v-68z" />
    <glyph glyph-name="five" unicode="5" horiz-adv-x="491" 
d="M195 -10c-63 0 -121 14 -152 34v73c40 -24 95 -37 153 -37c103 0 170 56 170 144c0 93 -65 149 -186 149h-105l19 307h345l-5 -71h-271l-10 -171h29c169 0 260 -80 260 -212c0 -129 -100 -216 -247 -216z" />
    <glyph glyph-name="six" unicode="6" horiz-adv-x="549" 
d="M505 206c0 -129 -92 -216 -219 -216c-147 0 -234 90 -234 304c0 213 77 376 301 376c48 0 102 -9 126 -23v-74c-34 17 -85 25 -123 25c-152 0 -218 -95 -228 -260c39 43 103 75 171 75c131 0 206 -81 206 -207zM286 56c89 0 144 54 144 146c0 89 -55 141 -143 141
c-55 0 -114 -25 -159 -62c4 -178 72 -225 158 -225z" />
    <glyph glyph-name="seven" unicode="7" horiz-adv-x="486" 
d="M213 0h-78v15l251 577h-283l-2 -108h-67v176h432v-63z" />
    <glyph glyph-name="eight" unicode="8" horiz-adv-x="567" 
d="M283 -10c-146 0 -235 64 -235 174c0 76 42 148 139 182c-70 36 -111 83 -111 155c0 87 68 169 211 169c135 0 207 -72 207 -168c0 -66 -39 -121 -113 -156c86 -39 138 -86 138 -176c0 -107 -88 -180 -236 -180zM284 57c98 0 158 45 158 110c0 78 -78 110 -182 148l-22 8
c-74 -37 -112 -89 -112 -145c0 -77 56 -121 158 -121zM300 377l30 -11c59 37 88 81 88 130c0 61 -45 106 -133 106c-91 0 -134 -46 -134 -100c0 -64 65 -94 149 -125z" />
    <glyph glyph-name="nine" unicode="9" horiz-adv-x="545" 
d="M213 -10c-51 0 -111 9 -138 24v70c37 -16 92 -25 137 -25c132 0 197 77 204 253c-38 -39 -107 -64 -168 -64c-122 0 -206 75 -206 208c0 118 78 214 215 214c160 0 235 -102 235 -328c0 -238 -97 -352 -279 -352zM262 315c56 0 114 21 154 53c-5 165 -58 236 -155 236
c-93 0 -144 -64 -144 -145c0 -97 58 -144 145 -144z" />
    <glyph glyph-name="Aacute" unicode="&#xc1;" horiz-adv-x="644" 
d="M11 0v63l62 2l204 595h89l206 -595l62 -2v-63h-222v63l80 2l-41 124h-261l-41 -124l80 -2v-63h-218zM429 256l-109 330l-108 -330h217zM383 851h79v-15l-106 -124h-64v15z" />
    <glyph glyph-name="Acircumflex" unicode="&#xc2;" horiz-adv-x="644" 
d="M11 0v63l62 2l204 595h89l206 -595l62 -2v-63h-222v63l80 2l-41 124h-261l-41 -124l80 -2v-63h-218zM429 256l-109 330l-108 -330h217zM248 712h-66v15l98 124h74l98 -124v-15h-64l-71 84z" />
    <glyph glyph-name="Adieresis" unicode="&#xc4;" horiz-adv-x="644" 
d="M11 0v63l62 2l204 595h89l206 -595l62 -2v-63h-222v63l80 2l-41 124h-261l-41 -124l80 -2v-63h-218zM429 256l-109 330l-108 -330h217zM182 781c0 30 23 53 52 53c31 0 54 -23 54 -53c0 -28 -23 -51 -54 -51c-29 0 -52 23 -52 51zM355 781c0 30 23 53 52 53
c31 0 54 -23 54 -53c0 -28 -23 -51 -54 -51c-29 0 -52 23 -52 51z" />
    <glyph glyph-name="Aring" unicode="&#xc5;" horiz-adv-x="644" 
d="M11 0v63l62 2l204 595h89l206 -595l62 -2v-63h-222v63l80 2l-41 124h-261l-41 -124l80 -2v-63h-218zM429 256l-109 330l-108 -330h217zM233 786c0 47 38 85 85 85s85 -38 85 -85s-38 -84 -85 -84s-85 37 -85 84zM277 786c0 -23 15 -43 41 -43s41 20 41 43s-15 43 -41 43
s-41 -20 -41 -43z" />
    <glyph glyph-name="Agrave" unicode="&#xc0;" horiz-adv-x="644" 
d="M11 0v63l62 2l204 595h89l206 -595l62 -2v-63h-222v63l80 2l-41 124h-261l-41 -124l80 -2v-63h-218zM429 256l-109 330l-108 -330h217zM181 851h77l91 -124v-15h-64l-104 124v15z" />
    <glyph glyph-name="Atilde" unicode="&#xc3;" horiz-adv-x="644" 
d="M11 0v63l62 2l204 595h89l206 -595l62 -2v-63h-222v63l80 2l-41 124h-261l-41 -124l80 -2v-63h-218zM429 256l-109 330l-108 -330h217zM271 762c-17 0 -25 -19 -25 -48h-60v7c0 62 26 102 79 102c22 0 40 -9 59 -22c19 -14 28 -22 42 -22c17 0 25 19 25 48h59v-8
c0 -62 -26 -101 -80 -101c-21 0 -37 8 -57 22c-20 15 -28 22 -42 22z" />
    <glyph glyph-name="Abreve" unicode="&#x102;" horiz-adv-x="644" 
d="M11 0v63l62 2l204 595h89l206 -595l62 -2v-63h-222v63l80 2l-41 124h-261l-41 -124l80 -2v-63h-218zM429 256l-109 330l-108 -330h217zM318 775c38 0 61 15 63 51h63c0 -69 -50 -108 -126 -108s-126 39 -126 108h63c2 -36 25 -51 63 -51z" />
    <glyph glyph-name="Amacron" unicode="&#x100;" horiz-adv-x="644" 
d="M11 0v63l62 2l204 595h89l206 -595l62 -2v-63h-222v63l80 2l-41 124h-261l-41 -124l80 -2v-63h-218zM429 256l-109 330l-108 -330h217zM203 740v63h234v-63h-234z" />
    <glyph glyph-name="Aogonek" unicode="&#x104;" horiz-adv-x="644" 
d="M11 0v63l62 2l204 595h89l206 -595l62 -2v-63h-70c-58 -46 -84 -89 -84 -126c0 -38 23 -58 62 -58c23 0 41 6 58 14v-55c-13 -10 -41 -15 -64 -15c-67 0 -118 33 -118 101c0 47 25 95 78 139h-84v63l80 2l-41 124h-261l-41 -124l80 -2v-63h-218zM429 256l-109 330
l-108 -330h217z" />
    <glyph glyph-name="uni01FA" unicode="&#x1fa;" horiz-adv-x="644" 
d="M11 0v63l62 2l204 595h89l206 -595l62 -2v-63h-222v63l80 2l-41 124h-261l-41 -124l80 -2v-63h-218zM429 256l-109 330l-108 -330h217zM236 776c0 47 38 85 85 85s85 -38 85 -85s-38 -84 -85 -84s-85 37 -85 84zM383 1036h79v-15l-106 -124h-64v15zM280 776
c0 -23 15 -43 41 -43s41 20 41 43s-15 43 -41 43s-41 -20 -41 -43z" />
    <glyph glyph-name="uni01CD" unicode="&#x1cd;" horiz-adv-x="644" 
d="M11 0v63l62 2l204 595h89l206 -595l62 -2v-63h-222v63l80 2l-41 124h-261l-41 -124l80 -2v-63h-218zM429 256l-109 330l-108 -330h217zM357 712h-74l-98 124v15h66l69 -83l71 83h64v-15z" />
    <glyph glyph-name="uni0226" unicode="&#x226;" horiz-adv-x="644" 
d="M11 0v63l62 2l204 595h89l206 -595l62 -2v-63h-222v63l80 2l-41 124h-261l-41 -124l80 -2v-63h-218zM429 256l-109 330l-108 -330h217zM268 781c0 30 23 53 52 53c31 0 54 -23 54 -53c0 -28 -23 -51 -54 -51c-29 0 -52 23 -52 51z" />
    <glyph glyph-name="uni1EA6" unicode="&#x1ea6;" horiz-adv-x="644" 
d="M11 0v63l62 2l204 595h89l206 -595l62 -2v-63h-222v63l80 2l-41 124h-261l-41 -124l80 -2v-63h-218zM429 256l-109 330l-108 -330h217zM251 712h-69v15l97 100h76l97 -100v-15h-67l-68 65zM344 901h70l76 -100v-15h-57l-89 100v15z" />
    <glyph glyph-name="uni1EA4" unicode="&#x1ea4;" horiz-adv-x="644" 
d="M11 0v63l62 2l204 595h89l206 -595l62 -2v-63h-222v63l80 2l-41 124h-261l-41 -124l80 -2v-63h-218zM429 256l-109 330l-108 -330h217zM251 712h-69v15l97 100h76l97 -100v-15h-67l-68 65zM488 901h70v-15l-89 -100h-57v15z" />
    <glyph glyph-name="uni1EAA" unicode="&#x1eaa;" horiz-adv-x="644" 
d="M11 0v63l62 2l204 595h89l206 -595l62 -2v-63h-222v63l80 2l-41 124h-261l-41 -124l80 -2v-63h-218zM429 256l-109 330l-108 -330h217zM251 712h-69v15l97 100h76l97 -100v-15h-67l-68 65zM276 870c-14 0 -20 -8 -20 -31h-60v4c0 47 22 85 71 85c19 0 34 -5 49 -11
c18 -7 33 -15 47 -15c13 0 20 5 20 32h58v-4c0 -57 -22 -84 -68 -84c-22 0 -46 8 -64 15c-14 5 -24 9 -33 9z" />
    <glyph glyph-name="uni1EA8" unicode="&#x1ea8;" horiz-adv-x="644" 
d="M11 0v63l62 2l204 595h89l206 -595l62 -2v-63h-222v63l80 2l-41 124h-261l-41 -124l80 -2v-63h-218zM429 256l-109 330l-108 -330h217zM251 712h-69v15l97 100h76l97 -100v-15h-67l-68 65zM405 809c28 16 49 34 49 55c0 18 -12 30 -34 30c-12 0 -25 -3 -37 -8v49
c15 7 30 11 52 11c46 0 80 -31 80 -73c0 -40 -30 -77 -75 -102z" />
    <glyph glyph-name="uni1EAC" unicode="&#x1eac;" horiz-adv-x="644" 
d="M11 0v63l62 2l204 595h89l206 -595l62 -2v-63h-222v63l80 2l-41 124h-261l-41 -124l80 -2v-63h-218zM429 256l-109 330l-108 -330h217zM249 712h-66v15l98 124h74l98 -124v-15h-64l-71 84zM265 -125c0 30 23 53 52 53c31 0 54 -23 54 -53c0 -28 -23 -51 -54 -51
c-29 0 -52 23 -52 51z" />
    <glyph glyph-name="uni1EB0" unicode="&#x1eb0;" horiz-adv-x="644" 
d="M11 0v63l62 2l204 595h89l206 -595l62 -2v-63h-222v63l80 2l-41 124h-261l-41 -124l80 -2v-63h-218zM429 256l-109 330l-108 -330h217zM318 718c-81 0 -129 43 -135 108h63c10 -35 36 -51 72 -51s62 16 72 51h63c-8 -62 -59 -108 -135 -108zM209 913v15h71l71 -100v-15
h-57z" />
    <glyph glyph-name="uni1EAE" unicode="&#x1eae;" horiz-adv-x="644" 
d="M11 0v63l62 2l204 595h89l206 -595l62 -2v-63h-222v63l80 2l-41 124h-261l-41 -124l80 -2v-63h-218zM429 256l-109 330l-108 -330h217zM318 718c-81 0 -129 43 -135 108h63c10 -35 36 -51 72 -51s62 16 72 51h63c-8 -62 -59 -108 -135 -108zM354 928h71v-15l-85 -100h-57
v15z" />
    <glyph glyph-name="uni1EB4" unicode="&#x1eb4;" horiz-adv-x="644" 
d="M11 0v63l62 2l204 595h89l206 -595l62 -2v-63h-222v63l80 2l-41 124h-261l-41 -124l80 -2v-63h-218zM429 256l-109 330l-108 -330h217zM318 718c-81 0 -124 44 -130 103h63c9 -32 32 -46 67 -46s58 14 67 46h63c-8 -56 -54 -103 -130 -103zM276 874c-14 0 -20 -8 -20 -31
h-60v4c0 47 22 85 71 85c19 0 34 -5 49 -11c18 -7 33 -15 47 -15c13 0 20 5 20 32h58v-4c0 -57 -22 -84 -68 -84c-22 0 -46 8 -64 15c-14 5 -24 9 -33 9z" />
    <glyph glyph-name="uni1EB2" unicode="&#x1eb2;" horiz-adv-x="644" 
d="M11 0v63l62 2l204 595h89l206 -595l62 -2v-63h-222v63l80 2l-41 124h-261l-41 -124l80 -2v-63h-218zM429 256l-109 330l-108 -330h217zM318 775c38 0 61 15 63 51h63c0 -69 -50 -108 -126 -108s-126 39 -126 108h63c2 -36 25 -51 63 -51z" />
    <glyph glyph-name="uni1EB6" unicode="&#x1eb6;" horiz-adv-x="644" 
d="M11 0v63l62 2l204 595h89l206 -595l62 -2v-63h-222v63l80 2l-41 124h-261l-41 -124l80 -2v-63h-218zM429 256l-109 330l-108 -330h217zM318 775c38 0 61 15 63 51h63c0 -69 -50 -108 -126 -108s-126 39 -126 108h63c2 -36 25 -51 63 -51zM266 -125c0 30 23 53 52 53
c31 0 54 -23 54 -53c0 -28 -23 -51 -54 -51c-29 0 -52 23 -52 51z" />
    <glyph glyph-name="uni1EA2" unicode="&#x1ea2;" horiz-adv-x="644" 
d="M11 0v63l62 2l204 595h89l206 -595l62 -2v-63h-222v63l80 2l-41 124h-261l-41 -124l80 -2v-63h-218zM429 256l-109 330l-108 -330h217zM271 728c34 20 63 43 63 72c0 23 -17 40 -44 40c-14 0 -31 -4 -46 -9v52c18 8 37 13 64 13c53 0 93 -36 93 -86
c0 -52 -37 -91 -93 -122z" />
    <glyph glyph-name="uni1EA0" unicode="&#x1ea0;" horiz-adv-x="644" 
d="M11 0v63l62 2l204 595h89l206 -595l62 -2v-63h-222v63l80 2l-41 124h-261l-41 -124l80 -2v-63h-218zM429 256l-109 330l-108 -330h217zM266 -125c0 30 23 53 52 53c31 0 54 -23 54 -53c0 -28 -23 -51 -54 -51c-29 0 -52 23 -52 51z" />
    <glyph glyph-name="uni1E02" unicode="&#x1e02;" horiz-adv-x="614" 
d="M361 0h-318v64l86 2v528l-86 2v64h262c148 0 223 -63 223 -168c0 -53 -24 -105 -70 -142c75 -25 115 -85 115 -160c0 -117 -88 -190 -212 -190zM285 594h-83v-231h148c20 0 41 -1 51 -2c32 36 51 81 51 122c0 74 -56 111 -167 111zM348 298h-146v-232h146
c90 0 149 44 149 120c0 71 -48 112 -149 112zM247 781c0 30 23 53 52 53c31 0 54 -23 54 -53c0 -28 -23 -51 -54 -51c-29 0 -52 23 -52 51z" />
    <glyph glyph-name="uni1E04" unicode="&#x1e04;" horiz-adv-x="614" 
d="M361 0h-318v64l86 2v528l-86 2v64h262c148 0 223 -63 223 -168c0 -53 -24 -105 -70 -142c75 -25 115 -85 115 -160c0 -117 -88 -190 -212 -190zM285 594h-83v-231h148c20 0 41 -1 51 -2c32 36 51 81 51 122c0 74 -56 111 -167 111zM348 298h-146v-232h146
c90 0 149 44 149 120c0 71 -48 112 -149 112zM253 -125c0 30 23 53 52 53c31 0 54 -23 54 -53c0 -28 -23 -51 -54 -51c-29 0 -52 23 -52 51z" />
    <glyph glyph-name="uni1E06" unicode="&#x1e06;" horiz-adv-x="614" 
d="M361 0h-318v64l86 2v528l-86 2v64h262c148 0 223 -63 223 -168c0 -53 -24 -105 -70 -142c75 -25 115 -85 115 -160c0 -117 -88 -190 -212 -190zM285 594h-83v-231h148c20 0 41 -1 51 -2c32 36 51 81 51 122c0 74 -56 111 -167 111zM348 298h-146v-232h146
c90 0 149 44 149 120c0 71 -48 112 -149 112zM189 -144v62h224v-62h-224z" />
    <glyph glyph-name="Ccedilla" unicode="&#xc7;" horiz-adv-x="559" 
d="M302 -53c71 0 110 -37 110 -87c0 -58 -42 -100 -114 -100c-32 0 -61 5 -82 14v55c23 -10 47 -15 74 -15c38 0 63 15 63 44c0 28 -24 44 -61 44c-11 0 -26 -2 -38 -4l-17 35l21 66c-131 30 -210 136 -210 323c0 210 92 348 299 348c52 0 128 -13 172 -39v-147h-67l-2 99
c-34 11 -69 17 -107 17c-135 0 -219 -89 -219 -273c0 -186 85 -267 223 -267c65 0 123 16 172 47v-75c-34 -25 -107 -42 -176 -42c-10 0 -19 1 -28 1l-14 -44h1z" />
    <glyph glyph-name="Cacute" unicode="&#x106;" horiz-adv-x="559" 
d="M519 32c-34 -25 -107 -42 -176 -42c-181 0 -295 108 -295 332c0 210 92 348 299 348c52 0 128 -13 172 -39v-147h-67l-2 99c-34 11 -69 17 -107 17c-135 0 -219 -89 -219 -273c0 -186 85 -267 223 -267c65 0 123 16 172 47v-75zM383 851h79v-15l-106 -124h-64v15z" />
    <glyph glyph-name="Ccaron" unicode="&#x10c;" horiz-adv-x="559" 
d="M519 32c-34 -25 -107 -42 -176 -42c-181 0 -295 108 -295 332c0 210 92 348 299 348c52 0 128 -13 172 -39v-147h-67l-2 99c-34 11 -69 17 -107 17c-135 0 -219 -89 -219 -273c0 -186 85 -267 223 -267c65 0 123 16 172 47v-75zM361 712h-74l-98 124v15h66l69 -83l71 83
h64v-15z" />
    <glyph glyph-name="Ccircumflex" unicode="&#x108;" horiz-adv-x="559" 
d="M519 32c-34 -25 -107 -42 -176 -42c-181 0 -295 108 -295 332c0 210 92 348 299 348c52 0 128 -13 172 -39v-147h-67l-2 99c-34 11 -69 17 -107 17c-135 0 -219 -89 -219 -273c0 -186 85 -267 223 -267c65 0 123 16 172 47v-75zM253 712h-66v15l98 124h74l98 -124v-15
h-64l-71 84z" />
    <glyph glyph-name="Cdotaccent" unicode="&#x10a;" horiz-adv-x="559" 
d="M270 781c0 30 23 53 52 53c31 0 54 -23 54 -53c0 -28 -23 -51 -54 -51c-29 0 -52 23 -52 51zM519 32c-34 -25 -107 -42 -176 -42c-181 0 -295 108 -295 332c0 210 92 348 299 348c52 0 128 -13 172 -39v-147h-67l-2 99c-34 11 -69 17 -107 17c-135 0 -219 -89 -219 -273
c0 -186 85 -267 223 -267c65 0 123 16 172 47v-75z" />
    <glyph glyph-name="Dcaron" unicode="&#x10e;" horiz-adv-x="667" 
d="M364 712h-74l-98 124v15h66l69 -83l71 83h64v-15zM310 0h-267v64l87 2v528l-87 2v64h264c196 0 312 -100 312 -320c0 -221 -111 -340 -309 -340zM296 594h-93v-528h93c174 0 246 94 246 268c0 176 -72 260 -246 260z" />
    <glyph glyph-name="Dcroat" unicode="&#x110;" horiz-adv-x="669" 
d="M45 306v62h87v226l-87 2v64h264c196 0 312 -100 312 -320c0 -221 -111 -340 -309 -340h-267v64l87 2v240h-87zM298 594h-93v-226h150v-62h-150v-240h93c174 0 246 94 246 268c0 176 -72 260 -246 260z" />
    <glyph glyph-name="uni1E0E" unicode="&#x1e0e;" horiz-adv-x="667" 
d="M310 0h-267v64l87 2v528l-87 2v64h264c196 0 312 -100 312 -320c0 -221 -111 -340 -309 -340zM296 594h-93v-528h93c174 0 246 94 246 268c0 176 -72 260 -246 260zM202 -144v62h224v-62h-224z" />
    <glyph glyph-name="uni1E0C" unicode="&#x1e0c;" horiz-adv-x="667" 
d="M310 0h-267v64l87 2v528l-87 2v64h264c196 0 312 -100 312 -320c0 -221 -111 -340 -309 -340zM296 594h-93v-528h93c174 0 246 94 246 268c0 176 -72 260 -246 260zM260 -125c0 30 23 53 52 53c31 0 54 -23 54 -53c0 -28 -23 -51 -54 -51c-29 0 -52 23 -52 51z" />
    <glyph glyph-name="uni1E0A" unicode="&#x1e0a;" horiz-adv-x="667" 
d="M310 0h-267v64l87 2v528l-87 2v64h264c196 0 312 -100 312 -320c0 -221 -111 -340 -309 -340zM296 594h-93v-528h93c174 0 246 94 246 268c0 176 -72 260 -246 260zM260 781c0 30 23 53 52 53c31 0 54 -23 54 -53c0 -28 -23 -51 -54 -51c-29 0 -52 23 -52 51z" />
    <glyph glyph-name="Eacute" unicode="&#xc9;" horiz-adv-x="575" 
d="M342 851h79v-15l-106 -124h-64v15zM526 171v-171h-483v64l87 2v528l-87 2v64h478v-176h-67l-2 110h-249v-223h233v-65h-233v-240h256l2 105h65z" />
    <glyph glyph-name="Ecircumflex" unicode="&#xca;" horiz-adv-x="575" 
d="M231 712h-66v15l98 124h74l98 -124v-15h-64l-71 84zM526 171v-171h-483v64l87 2v528l-87 2v64h478v-176h-67l-2 110h-249v-223h233v-65h-233v-240h256l2 105h65z" />
    <glyph glyph-name="Edieresis" unicode="&#xcb;" horiz-adv-x="575" 
d="M150 781c0 30 23 53 52 53c31 0 54 -23 54 -53c0 -28 -23 -51 -54 -51c-29 0 -52 23 -52 51zM323 781c0 30 23 53 52 53c31 0 54 -23 54 -53c0 -28 -23 -51 -54 -51c-29 0 -52 23 -52 51zM526 171v-171h-483v64l87 2v528l-87 2v64h478v-176h-67l-2 110h-249v-223h233v-65
h-233v-240h256l2 105h65z" />
    <glyph glyph-name="Egrave" unicode="&#xc8;" horiz-adv-x="575" 
d="M164 851h77l91 -124v-15h-64l-104 124v15zM526 171v-171h-483v64l87 2v528l-87 2v64h478v-176h-67l-2 110h-249v-223h233v-65h-233v-240h256l2 105h65z" />
    <glyph glyph-name="Ebreve" unicode="&#x114;" horiz-adv-x="575" 
d="M526 171v-171h-483v64l87 2v528l-87 2v64h478v-176h-67l-2 110h-249v-223h233v-65h-233v-240h256l2 105h65zM296 775c38 0 61 15 63 51h63c0 -69 -50 -108 -126 -108s-126 39 -126 108h63c2 -36 25 -51 63 -51z" />
    <glyph glyph-name="Ecaron" unicode="&#x11a;" horiz-adv-x="575" 
d="M332 712h-74l-98 124v15h66l69 -83l71 83h64v-15zM526 171v-171h-483v64l87 2v528l-87 2v64h478v-176h-67l-2 110h-249v-223h233v-65h-233v-240h256l2 105h65z" />
    <glyph glyph-name="Edotaccent" unicode="&#x116;" horiz-adv-x="575" 
d="M244 781c0 30 23 53 52 53c31 0 54 -23 54 -53c0 -28 -23 -51 -54 -51c-29 0 -52 23 -52 51zM526 171v-171h-483v64l87 2v528l-87 2v64h478v-176h-67l-2 110h-249v-223h233v-65h-233v-240h256l2 105h65z" />
    <glyph glyph-name="Emacron" unicode="&#x112;" horiz-adv-x="575" 
d="M171 740v63h234v-63h-234zM526 171v-171h-483v64l87 2v528l-87 2v64h478v-176h-67l-2 110h-249v-223h233v-65h-233v-240h256l2 105h65z" />
    <glyph glyph-name="Eogonek" unicode="&#x118;" horiz-adv-x="575" 
d="M526 171v-171h-76c-58 -46 -84 -89 -84 -126c0 -38 23 -58 62 -58c23 0 41 6 58 14v-55c-13 -10 -41 -15 -64 -15c-67 0 -118 33 -118 101c0 47 25 95 78 139h-339v64l87 2v528l-87 2v64h478v-176h-67l-2 110h-249v-223h233v-65h-233v-240h256l2 105h65z" />
    <glyph glyph-name="uni0228" unicode="&#x228;" horiz-adv-x="575" 
d="M206 -225v56c25 -11 46 -17 76 -17c37 0 61 15 61 44c0 28 -24 44 -61 44c-11 0 -26 -2 -38 -4l-17 35l22 67h-206v64l87 2v528l-87 2v64h478v-176h-67l-2 110h-249v-223h233v-65h-233v-240h256l2 105h65v-171h-218l-17 -53h1c71 0 110 -32 110 -88
c0 -61 -47 -99 -119 -99c-29 0 -57 5 -77 15z" />
    <glyph glyph-name="uni1EC0" unicode="&#x1ec0;" horiz-adv-x="575" 
d="M526 171v-171h-483v64l87 2v528l-87 2v64h478v-176h-67l-2 110h-249v-223h233v-65h-233v-240h256l2 105h65zM327 901h70l76 -100v-15h-57l-89 100v15zM234 712h-69v15l97 100h76l97 -100v-15h-67l-68 65z" />
    <glyph glyph-name="uni1EBE" unicode="&#x1ebe;" horiz-adv-x="575" 
d="M526 171v-171h-483v64l87 2v528l-87 2v64h478v-176h-67l-2 110h-249v-223h233v-65h-233v-240h256l2 105h65zM471 901h70v-15l-89 -100h-57v15zM234 712h-69v15l97 100h76l97 -100v-15h-67l-68 65z" />
    <glyph glyph-name="uni1EC4" unicode="&#x1ec4;" horiz-adv-x="575" 
d="M526 171v-171h-483v64l87 2v528l-87 2v64h478v-176h-67l-2 110h-249v-223h233v-65h-233v-240h256l2 105h65zM234 712h-69v15l97 100h76l97 -100v-15h-67l-68 65zM259 870c-14 0 -20 -8 -20 -31h-60v4c0 47 22 85 71 85c19 0 34 -5 49 -11c18 -7 33 -15 47 -15
c13 0 20 5 20 32h58v-4c0 -57 -22 -84 -68 -84c-22 0 -46 8 -64 15c-14 5 -24 9 -33 9z" />
    <glyph glyph-name="uni1EC2" unicode="&#x1ec2;" horiz-adv-x="575" 
d="M526 171v-171h-483v64l87 2v528l-87 2v64h478v-176h-67l-2 110h-249v-223h233v-65h-233v-240h256l2 105h65zM388 809c28 16 49 34 49 55c0 18 -12 30 -34 30c-12 0 -25 -3 -37 -8v49c15 7 30 11 52 11c46 0 80 -31 80 -73c0 -40 -30 -77 -75 -102zM234 712h-69v15l97 100
h76l97 -100v-15h-67l-68 65z" />
    <glyph glyph-name="uni1EC6" unicode="&#x1ec6;" horiz-adv-x="575" 
d="M243 -125c0 30 23 53 52 53c31 0 54 -23 54 -53c0 -28 -23 -51 -54 -51c-29 0 -52 23 -52 51zM231 712h-66v15l98 124h74l98 -124v-15h-64l-71 84zM526 171v-171h-483v64l87 2v528l-87 2v64h478v-176h-67l-2 110h-249v-223h233v-65h-233v-240h256l2 105h65z" />
    <glyph glyph-name="uni1EBA" unicode="&#x1eba;" horiz-adv-x="575" 
d="M526 171v-171h-483v64l87 2v528l-87 2v64h478v-176h-67l-2 110h-249v-223h233v-65h-233v-240h256l2 105h65zM246 728c34 20 63 43 63 72c0 23 -17 40 -44 40c-14 0 -31 -4 -46 -9v52c18 8 37 13 64 13c53 0 93 -36 93 -86c0 -52 -37 -91 -93 -122z" />
    <glyph glyph-name="uni1EB8" unicode="&#x1eb8;" horiz-adv-x="575" 
d="M243 -125c0 30 23 53 52 53c31 0 54 -23 54 -53c0 -28 -23 -51 -54 -51c-29 0 -52 23 -52 51zM526 171v-171h-483v64l87 2v528l-87 2v64h478v-176h-67l-2 110h-249v-223h233v-65h-233v-240h256l2 105h65z" />
    <glyph glyph-name="uni1EBC" unicode="&#x1ebc;" horiz-adv-x="575" 
d="M526 171v-171h-483v64l87 2v528l-87 2v64h478v-176h-67l-2 110h-249v-223h233v-65h-233v-240h256l2 105h65zM246 762c-17 0 -25 -19 -25 -48h-60v7c0 62 26 102 79 102c22 0 40 -9 59 -22c19 -14 28 -22 42 -22c17 0 25 19 25 48h59v-8c0 -62 -26 -101 -80 -101
c-21 0 -37 8 -57 22c-20 15 -28 22 -42 22z" />
    <glyph glyph-name="uni0045030A" horiz-adv-x="575" 
d="M210 786c0 47 38 85 85 85s85 -38 85 -85s-38 -84 -85 -84s-85 37 -85 84zM254 786c0 -23 15 -43 41 -43s41 20 41 43s-15 43 -41 43s-41 -20 -41 -43zM526 171v-171h-483v64l87 2v528l-87 2v64h478v-176h-67l-2 110h-249v-223h233v-65h-233v-240h256l2 105h65z" />
    <glyph glyph-name="uni1E1E" unicode="&#x1e1e;" horiz-adv-x="553" 
d="M299 0h-256v64l87 2v528l-87 2v64h478v-176h-67l-2 110h-249v-224h233v-65h-233v-239l96 -2v-64zM252 781c0 30 23 53 52 53c31 0 54 -23 54 -53c0 -28 -23 -51 -54 -51c-29 0 -52 23 -52 51z" />
    <glyph glyph-name="uni00460304" horiz-adv-x="553" 
d="M299 0h-256v64l87 2v528l-87 2v64h478v-176h-67l-2 110h-249v-224h233v-65h-233v-239l96 -2v-64zM181 740v63h234v-63h-234z" />
    <glyph glyph-name="Gbreve" unicode="&#x11e;" horiz-adv-x="601" 
d="M541 34c-47 -26 -123 -44 -189 -44c-199 0 -305 120 -305 329s98 351 302 351c65 0 133 -14 189 -39v-147h-67l-2 96c-40 14 -77 19 -123 19c-135 0 -223 -95 -223 -276c0 -183 92 -263 230 -263c40 0 83 6 115 21v160l-94 2v63h167v-272zM327 775c38 0 61 15 63 51h63
c0 -69 -50 -108 -126 -108s-126 39 -126 108h63c2 -36 25 -51 63 -51z" />
    <glyph glyph-name="Gcommaaccent" unicode="&#x122;" horiz-adv-x="601" 
d="M292 -52h64c4 -16 6 -31 6 -55c0 -47 -14 -94 -48 -145l-61 27c27 40 43 84 43 120c0 21 -2 36 -4 53zM541 34c-47 -26 -123 -44 -189 -44c-199 0 -305 120 -305 329s98 351 302 351c65 0 133 -14 189 -39v-147h-67l-2 96c-40 14 -77 19 -123 19
c-135 0 -223 -95 -223 -276c0 -183 92 -263 230 -263c40 0 83 6 115 21v160l-94 2v63h167v-272z" />
    <glyph glyph-name="Gcircumflex" unicode="&#x11c;" horiz-adv-x="601" 
d="M541 34c-47 -26 -123 -44 -189 -44c-199 0 -305 120 -305 329s98 351 302 351c65 0 133 -14 189 -39v-147h-67l-2 96c-40 14 -77 19 -123 19c-135 0 -223 -95 -223 -276c0 -183 92 -263 230 -263c40 0 83 6 115 21v160l-94 2v63h167v-272zM252 712h-66v15l98 124h74
l98 -124v-15h-64l-71 84z" />
    <glyph glyph-name="Gdotaccent" unicode="&#x120;" horiz-adv-x="601" 
d="M272 781c0 30 23 53 52 53c31 0 54 -23 54 -53c0 -28 -23 -51 -54 -51c-29 0 -52 23 -52 51zM541 34c-47 -26 -123 -44 -189 -44c-199 0 -305 120 -305 329s98 351 302 351c65 0 133 -14 189 -39v-147h-67l-2 96c-40 14 -77 19 -123 19c-135 0 -223 -95 -223 -276
c0 -183 92 -263 230 -263c40 0 83 6 115 21v160l-94 2v63h167v-272z" />
    <glyph glyph-name="uni01E6" unicode="&#x1e6;" horiz-adv-x="601" 
d="M541 34c-47 -26 -123 -44 -189 -44c-199 0 -305 120 -305 329s98 351 302 351c65 0 133 -14 189 -39v-147h-67l-2 96c-40 14 -77 19 -123 19c-135 0 -223 -95 -223 -276c0 -183 92 -263 230 -263c40 0 83 6 115 21v160l-94 2v63h167v-272zM359 712h-74l-98 124v15h66
l69 -83l71 83h64v-15z" />
    <glyph glyph-name="uni01F4" unicode="&#x1f4;" horiz-adv-x="601" 
d="M541 34c-47 -26 -123 -44 -189 -44c-199 0 -305 120 -305 329s98 351 302 351c65 0 133 -14 189 -39v-147h-67l-2 96c-40 14 -77 19 -123 19c-135 0 -223 -95 -223 -276c0 -183 92 -263 230 -263c40 0 83 6 115 21v160l-94 2v63h167v-272zM390 851h79v-15l-106 -124h-64
v15z" />
    <glyph glyph-name="uni1E20" unicode="&#x1e20;" horiz-adv-x="601" 
d="M541 34c-47 -26 -123 -44 -189 -44c-199 0 -305 120 -305 329s98 351 302 351c65 0 133 -14 189 -39v-147h-67l-2 96c-40 14 -77 19 -123 19c-135 0 -223 -95 -223 -276c0 -183 92 -263 230 -263c40 0 83 6 115 21v160l-94 2v63h167v-272zM206 740v63h234v-63h-234z" />
    <glyph glyph-name="Hbar" unicode="&#x126;" horiz-adv-x="739" 
d="M292 64v-64h-249v64l88 2v393h-88v62h88v73l-88 2v64h249v-64l-88 -2v-73h331v73l-88 2v64h249v-64l-88 -2v-73h88v-62h-88v-393l88 -2v-64h-249v64l88 2v240h-331v-240zM204 374h331v85h-331v-85z" />
    <glyph glyph-name="Hcircumflex" unicode="&#x124;" horiz-adv-x="739" 
d="M292 64v-64h-249v64l88 2v528l-88 2v64h249v-64l-88 -2v-220h331v220l-88 2v64h249v-64l-88 -2v-528l88 -2v-64h-249v64l88 2v240h-331v-240zM298 712h-66v15l98 124h74l98 -124v-15h-64l-71 84z" />
    <glyph glyph-name="uni021E" unicode="&#x21e;" horiz-adv-x="739" 
d="M292 64v-64h-249v64l88 2v528l-88 2v64h249v-64l-88 -2v-220h331v220l-88 2v64h249v-64l-88 -2v-528l88 -2v-64h-249v64l88 2v240h-331v-240zM404 712h-74l-98 124v15h66l69 -83l71 83h64v-15z" />
    <glyph glyph-name="uni1E24" unicode="&#x1e24;" horiz-adv-x="739" 
d="M292 64v-64h-249v64l88 2v528l-88 2v64h249v-64l-88 -2v-220h331v220l-88 2v64h249v-64l-88 -2v-528l88 -2v-64h-249v64l88 2v240h-331v-240zM317 -125c0 30 23 53 52 53c31 0 54 -23 54 -53c0 -28 -23 -51 -54 -51c-29 0 -52 23 -52 51z" />
    <glyph glyph-name="uni00480331" horiz-adv-x="739" 
d="M292 64v-64h-249v64l88 2v528l-88 2v64h249v-64l-88 -2v-220h331v220l-88 2v64h249v-64l-88 -2v-528l88 -2v-64h-249v64l88 2v240h-331v-240zM256 -144v62h224v-62h-224z" />
    <glyph glyph-name="uni1E2A" unicode="&#x1e2a;" horiz-adv-x="739" 
d="M292 64v-64h-249v64l88 2v528l-88 2v64h249v-64l-88 -2v-220h331v220l-88 2v64h249v-64l-88 -2v-528l88 -2v-64h-249v64l88 2v240h-331v-240zM368 -174c-79 0 -126 50 -126 122h63c2 -43 28 -66 63 -66s61 23 63 66h63c0 -72 -47 -122 -126 -122z" />
    <glyph glyph-name="uni1E22" unicode="&#x1e22;" horiz-adv-x="739" 
d="M292 64v-64h-249v64l88 2v528l-88 2v64h249v-64l-88 -2v-220h331v220l-88 2v64h249v-64l-88 -2v-528l88 -2v-64h-249v64l88 2v240h-331v-240zM316 781c0 30 23 53 52 53c31 0 54 -23 54 -53c0 -28 -23 -51 -54 -51c-29 0 -52 23 -52 51z" />
    <glyph glyph-name="Iacute" unicode="&#xcd;" horiz-adv-x="335" 
d="M292 0h-249v64l88 2v528l-88 2v64h249v-64l-88 -2v-528l88 -2v-64zM227 851h79v-15l-106 -124h-64v15z" />
    <glyph glyph-name="Icircumflex" unicode="&#xce;" horiz-adv-x="335" 
d="M292 0h-249v64l88 2v528l-88 2v64h249v-64l-88 -2v-528l88 -2v-64zM97 712h-66v15l98 124h74l98 -124v-15h-64l-71 84z" />
    <glyph glyph-name="Idieresis" unicode="&#xcf;" horiz-adv-x="335" 
d="M292 0h-249v64l88 2v528l-88 2v64h249v-64l-88 -2v-528l88 -2v-64zM27 781c0 30 23 53 52 53c31 0 54 -23 54 -53c0 -28 -23 -51 -54 -51c-29 0 -52 23 -52 51zM200 781c0 30 23 53 52 53c31 0 54 -23 54 -53c0 -28 -23 -51 -54 -51c-29 0 -52 23 -52 51z" />
    <glyph glyph-name="Igrave" unicode="&#xcc;" horiz-adv-x="335" 
d="M292 0h-249v64l88 2v528l-88 2v64h249v-64l-88 -2v-528l88 -2v-64zM31 851h77l91 -124v-15h-64l-104 124v15z" />
    <glyph glyph-name="Ibreve" unicode="&#x12c;" horiz-adv-x="335" 
d="M292 0h-249v64l88 2v528l-88 2v64h249v-64l-88 -2v-528l88 -2v-64zM167 775c38 0 61 15 63 51h63c0 -69 -50 -108 -126 -108s-126 39 -126 108h63c2 -36 25 -51 63 -51z" />
    <glyph glyph-name="Idotaccent" unicode="&#x130;" horiz-adv-x="335" 
d="M292 0h-249v64l88 2v528l-88 2v64h249v-64l-88 -2v-528l88 -2v-64zM115 781c0 30 23 53 52 53c31 0 54 -23 54 -53c0 -28 -23 -51 -54 -51c-29 0 -52 23 -52 51z" />
    <glyph glyph-name="Imacron" unicode="&#x12a;" horiz-adv-x="335" 
d="M292 0h-249v64l88 2v528l-88 2v64h249v-64l-88 -2v-528l88 -2v-64zM49 740v63h234v-63h-234z" />
    <glyph glyph-name="Iogonek" unicode="&#x12e;" horiz-adv-x="335" 
d="M292 0h-84c-58 -46 -84 -89 -84 -126c0 -38 23 -58 62 -58c23 0 41 6 58 14v-55c-13 -10 -41 -15 -64 -15c-67 0 -118 33 -118 101c0 47 25 95 78 139h-97v64l88 2v528l-88 2v64h249v-64l-88 -2v-528l88 -2v-64z" />
    <glyph glyph-name="uni01CF" unicode="&#x1cf;" horiz-adv-x="335" 
d="M292 0h-249v64l88 2v528l-88 2v64h249v-64l-88 -2v-528l88 -2v-64zM205 712h-74l-98 124v15h66l69 -83l71 83h64v-15z" />
    <glyph glyph-name="uni1EC8" unicode="&#x1ec8;" horiz-adv-x="335" 
d="M292 0h-249v64l88 2v528l-88 2v64h249v-64l-88 -2v-528l88 -2v-64zM122 728c34 20 63 43 63 72c0 23 -17 40 -44 40c-14 0 -31 -4 -46 -9v52c18 8 37 13 64 13c53 0 93 -36 93 -86c0 -52 -37 -91 -93 -122z" />
    <glyph glyph-name="uni1ECA" unicode="&#x1eca;" horiz-adv-x="335" 
d="M292 0h-249v64l88 2v528l-88 2v64h249v-64l-88 -2v-528l88 -2v-64zM115 -125c0 30 23 53 52 53c31 0 54 -23 54 -53c0 -28 -23 -51 -54 -51c-29 0 -52 23 -52 51z" />
    <glyph glyph-name="Itilde" unicode="&#x128;" horiz-adv-x="335" 
d="M292 0h-249v64l88 2v528l-88 2v64h249v-64l-88 -2v-528l88 -2v-64zM120 762c-17 0 -25 -19 -25 -48h-60v7c0 62 26 102 79 102c22 0 40 -9 59 -22c19 -14 28 -22 42 -22c17 0 25 19 25 48h59v-8c0 -62 -26 -101 -80 -101c-21 0 -37 8 -57 22c-20 15 -28 22 -42 22z" />
    <glyph glyph-name="uni004A0301" horiz-adv-x="315" 
d="M0 -180c-22 0 -40 2 -60 7v68c16 -4 38 -6 55 -6c87 0 126 43 126 145v560l-88 2v64h249v-64l-88 -2v-568c0 -134 -65 -206 -194 -206zM208 851h79v-15l-106 -124h-64v15z" />
    <glyph glyph-name="uni004A0301.alt" horiz-adv-x="370" 
d="M280 851h79v-15l-106 -124h-64v15zM76 -4c-22 0 -45 2 -55 6v70c6 -2 28 -4 45 -4c87 0 116 26 116 131v395l-88 2v64h249v-64l-88 -2v-408c0 -137 -53 -190 -179 -190z" />
    <glyph glyph-name="Jcircumflex" unicode="&#x134;" horiz-adv-x="315" 
d="M0 -180c-22 0 -40 2 -60 7v68c16 -4 38 -6 55 -6c87 0 126 43 126 145v560l-88 2v64h249v-64l-88 -2v-568c0 -134 -65 -206 -194 -206zM87 712h-66v15l98 124h74l98 -124v-15h-64l-71 84z" />
    <glyph glyph-name="Jcircumflex.alt" horiz-adv-x="370" 
d="M152 712h-66v15l98 124h74l98 -124v-15h-64l-71 84zM76 -4c-22 0 -45 2 -55 6v70c6 -2 28 -4 45 -4c87 0 116 26 116 131v395l-88 2v64h249v-64l-88 -2v-408c0 -137 -53 -190 -179 -190z" />
    <glyph glyph-name="Kcommaaccent" unicode="&#x136;" horiz-adv-x="632" 
d="M297 -52h64c4 -16 6 -31 6 -55c0 -47 -14 -94 -48 -145l-61 27c27 40 43 84 43 120c0 21 -2 36 -4 53zM280 63v-63h-238v63l88 2v530l-88 2v63h238v-63l-77 -2v-227h109l147 227l-67 2v63h215v-63l-66 -1l-172 -264l193 -267l60 -2v-63h-207v63l60 1l-168 235h-104v-234z
" />
    <glyph glyph-name="uni01E8" unicode="&#x1e8;" horiz-adv-x="632" 
d="M356 712h-74l-98 124v15h66l69 -83l71 83h64v-15zM280 63v-63h-238v63l88 2v530l-88 2v63h238v-63l-77 -2v-227h109l147 227l-67 2v63h215v-63l-66 -1l-172 -264l193 -267l60 -2v-63h-207v63l60 1l-168 235h-104v-234z" />
    <glyph glyph-name="uni1E34" unicode="&#x1e34;" horiz-adv-x="632" 
d="M280 63v-63h-238v63l88 2v530l-88 2v63h238v-63l-77 -2v-227h109l147 227l-67 2v63h215v-63l-66 -1l-172 -264l193 -267l60 -2v-63h-207v63l60 1l-168 235h-104v-234zM207 -144v62h224v-62h-224z" />
    <glyph glyph-name="uni1E32" unicode="&#x1e32;" horiz-adv-x="632" 
d="M280 63v-63h-238v63l88 2v530l-88 2v63h238v-63l-77 -2v-227h109l147 227l-67 2v63h215v-63l-66 -1l-172 -264l193 -267l60 -2v-63h-207v63l60 1l-168 235h-104v-234zM267 -125c0 30 23 53 52 53c31 0 54 -23 54 -53c0 -28 -23 -51 -54 -51c-29 0 -52 23 -52 51z" />
    <glyph glyph-name="Lacute" unicode="&#x139;" horiz-adv-x="562" 
d="M225 851h79v-15l-106 -124h-64v15zM534 0h-491v64l88 2v528l-88 2v64h251v-64l-90 -2v-529h263l2 124h65v-189z" />
    <glyph glyph-name="Lcaron" unicode="&#x13d;" horiz-adv-x="562" 
d="M362 700h71v-15l-32 -154h-55v15zM534 0h-491v64l88 2v528l-88 2v64h251v-64l-90 -2v-529h263l2 124h65v-189z" />
    <glyph glyph-name="Lcommaaccent" unicode="&#x13b;" horiz-adv-x="562" 
d="M268 -52h64c4 -16 6 -31 6 -55c0 -47 -14 -94 -48 -145l-61 27c27 40 43 84 43 120c0 21 -2 36 -4 53zM534 0h-491v64l88 2v528l-88 2v64h251v-64l-90 -2v-529h263l2 124h65v-189z" />
    <glyph glyph-name="Ldot" unicode="&#x13f;" horiz-adv-x="566" 
d="M316 354c0 30 23 53 52 53c31 0 54 -23 54 -53c0 -28 -23 -51 -54 -51c-29 0 -52 23 -52 51zM534 0h-491v64l88 2v528l-88 2v64h251v-64l-90 -2v-529h263l2 124h65v-189z" />
    <glyph glyph-name="Lslash" unicode="&#x141;" horiz-adv-x="563" 
d="M535 0h-491v64l88 2v223l-88 -38v68l88 38v237l-88 2v64h251v-64l-90 -2v-206l152 66v-68l-152 -66v-255h263l2 124h65v-189z" />
    <glyph glyph-name="uni1E3A" unicode="&#x1e3a;" horiz-adv-x="562" 
d="M534 0h-491v64l88 2v528l-88 2v64h251v-64l-90 -2v-529h263l2 124h65v-189zM199 -144v62h224v-62h-224z" />
    <glyph glyph-name="uni1E36" unicode="&#x1e36;" horiz-adv-x="562" 
d="M534 0h-491v64l88 2v528l-88 2v64h251v-64l-90 -2v-529h263l2 124h65v-189zM249 -115c0 30 23 53 52 53c31 0 54 -23 54 -53c0 -28 -23 -51 -54 -51c-29 0 -52 23 -52 51z" />
    <glyph glyph-name="uni1E38" unicode="&#x1e38;" horiz-adv-x="562" 
d="M249 -125c0 30 23 53 52 53c31 0 54 -23 54 -53c0 -28 -23 -51 -54 -51c-29 0 -52 23 -52 51zM534 0h-491v64l88 2v528l-88 2v64h251v-64l-90 -2v-529h263l2 124h65v-189zM50 740v63h234v-63h-234z" />
    <glyph glyph-name="uni1E42" unicode="&#x1e42;" horiz-adv-x="803" 
d="M254 63v-63h-220v63l76 2l38 530l-87 2v63h206l137 -413l137 413h201v-63l-86 -2l38 -530l75 -2v-63h-220v63l74 2l-36 523l-143 -432h-83l-144 434l-36 -525zM350 -125c0 30 23 53 52 53c31 0 54 -23 54 -53c0 -28 -23 -51 -54 -51c-29 0 -52 23 -52 51z" />
    <glyph glyph-name="uni004D0310" horiz-adv-x="803" 
d="M254 63v-63h-220v63l76 2l38 530l-87 2v63h206l137 -413l137 413h201v-63l-86 -2l38 -530l75 -2v-63h-220v63l74 2l-36 523l-143 -432h-83l-144 434l-36 -525zM403 718c-81 0 -129 44 -135 112h63c11 -38 38 -55 72 -55s61 17 72 55h63c-8 -65 -59 -112 -135 -112z
M351 874c0 30 23 53 52 53c31 0 54 -23 54 -53c0 -28 -23 -51 -54 -51c-29 0 -52 23 -52 51z" />
    <glyph glyph-name="uni1E40" unicode="&#x1e40;" horiz-adv-x="803" 
d="M254 63v-63h-220v63l76 2l38 530l-87 2v63h206l137 -413l137 413h201v-63l-86 -2l38 -530l75 -2v-63h-220v63l74 2l-36 523l-143 -432h-83l-144 434l-36 -525zM350 781c0 30 23 53 52 53c31 0 54 -23 54 -53c0 -28 -23 -51 -54 -51c-29 0 -52 23 -52 51z" />
    <glyph glyph-name="uni1E3E" unicode="&#x1e3e;" horiz-adv-x="803" 
d="M254 63v-63h-220v63l76 2l38 530l-87 2v63h206l137 -413l137 413h201v-63l-86 -2l38 -530l75 -2v-63h-220v63l74 2l-36 523l-143 -432h-83l-144 434l-36 -525zM465 851h79v-15l-106 -124h-64v15z" />
    <glyph glyph-name="Ntilde" unicode="&#xd1;" horiz-adv-x="730" 
d="M293 64v-64h-250v64l88 2v528l-88 2v64h178l317 -553v487l-75 2v64h234v-64l-88 -2v-594h-89l-318 555v-489zM324 762c-17 0 -25 -19 -25 -48h-60v7c0 62 26 102 79 102c22 0 40 -9 59 -22c19 -14 28 -22 42 -22c17 0 25 19 25 48h59v-8c0 -62 -26 -101 -80 -101
c-21 0 -37 8 -57 22c-20 15 -28 22 -42 22z" />
    <glyph glyph-name="Nacute" unicode="&#x143;" horiz-adv-x="730" 
d="M420 851h79v-15l-106 -124h-64v15zM293 64v-64h-250v64l88 2v528l-88 2v64h178l317 -553v487l-75 2v64h234v-64l-88 -2v-594h-89l-318 555v-489z" />
    <glyph glyph-name="Ncaron" unicode="&#x147;" horiz-adv-x="730" 
d="M408 712h-74l-98 124v15h66l69 -83l71 83h64v-15zM293 64v-64h-250v64l88 2v528l-88 2v64h178l317 -553v487l-75 2v64h234v-64l-88 -2v-594h-89l-318 555v-489z" />
    <glyph glyph-name="Ncommaaccent" unicode="&#x145;" horiz-adv-x="730" 
d="M317 -52h64c4 -16 6 -31 6 -55c0 -47 -14 -94 -48 -145l-61 27c27 40 43 84 43 120c0 21 -2 36 -4 53zM293 64v-64h-250v64l88 2v528l-88 2v64h178l317 -553v487l-75 2v64h234v-64l-88 -2v-594h-89l-318 555v-489z" />
    <glyph glyph-name="uni01F8" unicode="&#x1f8;" horiz-adv-x="730" 
d="M293 64v-64h-250v64l88 2v528l-88 2v64h178l317 -553v487l-75 2v64h234v-64l-88 -2v-594h-89l-318 555v-489zM235 851h77l91 -124v-15h-64l-104 124v15z" />
    <glyph glyph-name="uni1E48" unicode="&#x1e48;" horiz-adv-x="730" 
d="M293 64v-64h-250v64l88 2v528l-88 2v64h178l317 -553v487l-75 2v64h234v-64l-88 -2v-594h-89l-318 555v-489zM246 -144v62h224v-62h-224z" />
    <glyph glyph-name="uni1E44" unicode="&#x1e44;" horiz-adv-x="730" 
d="M293 64v-64h-250v64l88 2v528l-88 2v64h178l317 -553v487l-75 2v64h234v-64l-88 -2v-594h-89l-318 555v-489zM311 781c0 30 23 53 52 53c31 0 54 -23 54 -53c0 -28 -23 -51 -54 -51c-29 0 -52 23 -52 51z" />
    <glyph glyph-name="uni004E0304" horiz-adv-x="730" 
d="M293 64v-64h-250v64l88 2v528l-88 2v64h178l317 -553v487l-75 2v64h234v-64l-88 -2v-594h-89l-318 555v-489zM251 740v63h234v-63h-234z" />
    <glyph glyph-name="Eng" unicode="&#x14a;" horiz-adv-x="730" 
d="M511 0l-309 555v-489l91 -2v-64h-250v64l88 2v528l-88 2v64h178l317 -565v499l-75 2v64h234v-64l-88 -2v-568c0 -134 -65 -206 -194 -206c-22 0 -40 2 -60 7v68c16 -4 38 -6 55 -6c77 0 116 33 124 111h-23z" />
    <glyph glyph-name="uni1E46" unicode="&#x1e46;" horiz-adv-x="730" 
d="M296 -125c0 30 23 53 52 53c31 0 54 -23 54 -53c0 -28 -23 -51 -54 -51c-29 0 -52 23 -52 51zM293 64v-64h-250v64l88 2v528l-88 2v64h178l317 -553v487l-75 2v64h234v-64l-88 -2v-594h-89l-318 555v-489z" />
    <glyph glyph-name="Ograve" unicode="&#xd2;" horiz-adv-x="651" 
d="M187 851h77l91 -124v-15h-64l-104 124v15zM324 -10c-173 0 -276 121 -276 337s102 343 281 343c176 0 274 -125 274 -335c0 -213 -98 -345 -279 -345zM325 58c125 0 201 90 201 272s-76 271 -201 271c-118 0 -201 -89 -201 -271s80 -272 201 -272z" />
    <glyph glyph-name="Odieresis" unicode="&#xd6;" horiz-adv-x="651" 
d="M186 781c0 30 23 53 52 53c31 0 54 -23 54 -53c0 -28 -23 -51 -54 -51c-29 0 -52 23 -52 51zM359 781c0 30 23 53 52 53c31 0 54 -23 54 -53c0 -28 -23 -51 -54 -51c-29 0 -52 23 -52 51zM324 -10c-173 0 -276 121 -276 337s102 343 281 343c176 0 274 -125 274 -335
c0 -213 -98 -345 -279 -345zM325 58c125 0 201 90 201 272s-76 271 -201 271c-118 0 -201 -89 -201 -271s80 -272 201 -272z" />
    <glyph glyph-name="Otilde" unicode="&#xd5;" horiz-adv-x="651" 
d="M324 -10c-173 0 -276 121 -276 337s102 343 281 343c176 0 274 -125 274 -335c0 -213 -98 -345 -279 -345zM325 58c125 0 201 90 201 272s-76 271 -201 271c-118 0 -201 -89 -201 -271s80 -272 201 -272zM281 762c-17 0 -25 -19 -25 -48h-60v7c0 62 26 102 79 102
c22 0 40 -9 59 -22c19 -14 28 -22 42 -22c17 0 25 19 25 48h59v-8c0 -62 -26 -101 -80 -101c-21 0 -37 8 -57 22c-20 15 -28 22 -42 22z" />
    <glyph glyph-name="Obreve" unicode="&#x14e;" horiz-adv-x="651" 
d="M324 -10c-173 0 -276 121 -276 337s102 343 281 343c176 0 274 -125 274 -335c0 -213 -98 -345 -279 -345zM325 58c125 0 201 90 201 272s-76 271 -201 271c-118 0 -201 -89 -201 -271s80 -272 201 -272zM327 775c38 0 61 15 63 51h63c0 -69 -50 -108 -126 -108
s-126 39 -126 108h63c2 -36 25 -51 63 -51z" />
    <glyph glyph-name="Oacute" unicode="&#xd3;" horiz-adv-x="651" 
d="M389 851h79v-15l-106 -124h-64v15zM324 -10c-173 0 -276 121 -276 337s102 343 281 343c176 0 274 -125 274 -335c0 -213 -98 -345 -279 -345zM325 58c125 0 201 90 201 272s-76 271 -201 271c-118 0 -201 -89 -201 -271s80 -272 201 -272z" />
    <glyph glyph-name="Ocircumflex" unicode="&#xd4;" horiz-adv-x="651" 
d="M324 -10c-173 0 -276 121 -276 337s102 343 281 343c176 0 274 -125 274 -335c0 -213 -98 -345 -279 -345zM325 58c125 0 201 90 201 272s-76 271 -201 271c-118 0 -201 -89 -201 -271s80 -272 201 -272zM257 712h-66v15l98 124h74l98 -124v-15h-64l-71 84z" />
    <glyph glyph-name="Ohungarumlaut" unicode="&#x150;" horiz-adv-x="651" 
d="M324 -10c-173 0 -276 121 -276 337s102 343 281 343c176 0 274 -125 274 -335c0 -213 -98 -345 -279 -345zM325 58c125 0 201 90 201 272s-76 271 -201 271c-118 0 -201 -89 -201 -271s80 -272 201 -272zM275 851h70v-15l-57 -124h-58v15zM405 851h72v-15l-76 -124h-58
v15z" />
    <glyph glyph-name="Omacron" unicode="&#x14c;" horiz-adv-x="651" 
d="M209 740v63h234v-63h-234zM324 -10c-173 0 -276 121 -276 337s102 343 281 343c176 0 274 -125 274 -335c0 -213 -98 -345 -279 -345zM325 58c125 0 201 90 201 272s-76 271 -201 271c-118 0 -201 -89 -201 -271s80 -272 201 -272z" />
    <glyph glyph-name="Oslash" unicode="&#xd8;" horiz-adv-x="654" 
d="M126 330c0 -80 16 -142 43 -187l274 422c-31 24 -70 36 -116 36c-118 0 -201 -89 -201 -271zM327 58c125 0 201 90 201 272c0 80 -15 143 -42 187l-274 -422c31 -25 70 -37 115 -37zM326 -10c-60 0 -112 15 -154 43l-51 -78h-68v9l72 111c-49 57 -75 142 -75 252
c0 216 102 343 281 343c60 0 112 -15 153 -42l50 77h68v-9l-72 -110c49 -58 75 -143 75 -251c0 -213 -98 -345 -279 -345z" />
    <glyph glyph-name="Oslashacute" unicode="&#x1fe;" horiz-adv-x="654" 
d="M380 851h79v-15l-106 -124h-64v15zM126 330c0 -80 16 -142 43 -187l274 422c-31 24 -70 36 -116 36c-118 0 -201 -89 -201 -271zM327 58c125 0 201 90 201 272c0 80 -15 143 -42 187l-274 -422c31 -25 70 -37 115 -37zM326 -10c-60 0 -112 15 -154 43l-51 -78h-68v9
l72 111c-49 57 -75 142 -75 252c0 216 102 343 281 343c60 0 112 -15 153 -42l50 77h68v-9l-72 -110c49 -58 75 -143 75 -251c0 -213 -98 -345 -279 -345z" />
    <glyph glyph-name="uni01D1" unicode="&#x1d1;" horiz-adv-x="651" 
d="M324 -10c-173 0 -276 121 -276 337s102 343 281 343c176 0 274 -125 274 -335c0 -213 -98 -345 -279 -345zM325 58c125 0 201 90 201 272s-76 271 -201 271c-118 0 -201 -89 -201 -271s80 -272 201 -272zM352 712h-74l-98 124v15h66l69 -83l71 83h64v-15z" />
    <glyph glyph-name="uni01EA" unicode="&#x1ea;" horiz-adv-x="651" 
d="M355 -240c-69 0 -116 38 -116 98c0 45 18 89 77 132c-167 4 -268 124 -268 337c0 216 103 343 281 343s274 -129 274 -333c0 -183 -60 -269 -170 -329c-88 -48 -130 -92 -130 -138c0 -38 24 -56 60 -56c22 0 41 4 60 14v-53c-14 -9 -44 -15 -68 -15zM124 330
c0 -182 81 -272 201 -272c124 0 201 90 201 272s-77 271 -201 271c-117 0 -201 -89 -201 -271z" />
    <glyph glyph-name="uni01EC" unicode="&#x1ec;" horiz-adv-x="651" 
d="M355 -240c-69 0 -116 38 -116 98c0 45 18 89 77 132c-167 4 -268 124 -268 337c0 216 103 343 281 343s274 -129 274 -333c0 -183 -60 -269 -170 -329c-88 -48 -130 -92 -130 -138c0 -38 24 -56 60 -56c22 0 41 4 60 14v-53c-14 -9 -44 -15 -68 -15zM124 330
c0 -182 81 -272 201 -272c124 0 201 90 201 272s-77 271 -201 271c-117 0 -201 -89 -201 -271zM209 740v63h234v-63h-234z" />
    <glyph glyph-name="uni022E" unicode="&#x22e;" horiz-adv-x="651" 
d="M324 -10c-173 0 -276 121 -276 337s102 343 281 343c176 0 274 -125 274 -335c0 -213 -98 -345 -279 -345zM325 58c125 0 201 90 201 272s-76 271 -201 271c-118 0 -201 -89 -201 -271s80 -272 201 -272zM273 781c0 30 23 53 52 53c31 0 54 -23 54 -53
c0 -28 -23 -51 -54 -51c-29 0 -52 23 -52 51z" />
    <glyph glyph-name="Ohorn" unicode="&#x1a0;" horiz-adv-x="690" 
d="M324 -10c-173 0 -276 121 -276 337s102 343 281 343c77 0 139 -24 185 -69c49 -1 75 27 75 76c0 16 -3 37 -7 53h62c7 -17 10 -43 10 -61c0 -69 -37 -112 -99 -122c31 -54 48 -126 48 -212c0 -213 -98 -345 -279 -345zM325 58c125 0 201 90 201 272s-76 271 -201 271
c-118 0 -201 -89 -201 -271s80 -272 201 -272z" />
    <glyph glyph-name="uni1ED2" unicode="&#x1ed2;" horiz-adv-x="651" 
d="M324 -10c-173 0 -276 121 -276 337s102 343 281 343c176 0 274 -125 274 -335c0 -213 -98 -345 -279 -345zM325 58c125 0 201 90 201 272s-76 271 -201 271c-118 0 -201 -89 -201 -271s80 -272 201 -272zM353 901h70l76 -100v-15h-57l-89 100v15zM260 712h-69v15l97 100
h76l97 -100v-15h-67l-68 65z" />
    <glyph glyph-name="uni1ED0" unicode="&#x1ed0;" horiz-adv-x="651" 
d="M324 -10c-173 0 -276 121 -276 337s102 343 281 343c176 0 274 -125 274 -335c0 -213 -98 -345 -279 -345zM325 58c125 0 201 90 201 272s-76 271 -201 271c-118 0 -201 -89 -201 -271s80 -272 201 -272zM497 901h70v-15l-89 -100h-57v15zM260 712h-69v15l97 100h76
l97 -100v-15h-67l-68 65z" />
    <glyph glyph-name="uni1ED6" unicode="&#x1ed6;" horiz-adv-x="651" 
d="M324 -10c-173 0 -276 121 -276 337s102 343 281 343c176 0 274 -125 274 -335c0 -213 -98 -345 -279 -345zM325 58c125 0 201 90 201 272s-76 271 -201 271c-118 0 -201 -89 -201 -271s80 -272 201 -272zM260 712h-69v15l97 100h76l97 -100v-15h-67l-68 65zM285 870
c-14 0 -20 -8 -20 -31h-60v4c0 47 22 85 71 85c19 0 34 -5 49 -11c18 -7 33 -15 47 -15c13 0 20 5 20 32h58v-4c0 -57 -22 -84 -68 -84c-22 0 -46 8 -64 15c-14 5 -24 9 -33 9z" />
    <glyph glyph-name="uni1ED4" unicode="&#x1ed4;" horiz-adv-x="651" 
d="M324 -10c-173 0 -276 121 -276 337s102 343 281 343c176 0 274 -125 274 -335c0 -213 -98 -345 -279 -345zM325 58c125 0 201 90 201 272s-76 271 -201 271c-118 0 -201 -89 -201 -271s80 -272 201 -272zM414 809c28 16 49 34 49 55c0 18 -12 30 -34 30
c-12 0 -25 -3 -37 -8v49c15 7 30 11 52 11c46 0 80 -31 80 -73c0 -40 -30 -77 -75 -102zM260 712h-69v15l97 100h76l97 -100v-15h-67l-68 65z" />
    <glyph glyph-name="uni1ED8" unicode="&#x1ed8;" horiz-adv-x="651" 
d="M324 -10c-173 0 -276 121 -276 337s102 343 281 343c176 0 274 -125 274 -335c0 -213 -98 -345 -279 -345zM325 58c125 0 201 90 201 272s-76 271 -201 271c-118 0 -201 -89 -201 -271s80 -272 201 -272zM257 712h-66v15l98 124h74l98 -124v-15h-64l-71 84zM273 -125
c0 30 23 53 52 53c31 0 54 -23 54 -53c0 -28 -23 -51 -54 -51c-29 0 -52 23 -52 51z" />
    <glyph glyph-name="uni1ECE" unicode="&#x1ece;" horiz-adv-x="651" 
d="M324 -10c-173 0 -276 121 -276 337s102 343 281 343c176 0 274 -125 274 -335c0 -213 -98 -345 -279 -345zM325 58c125 0 201 90 201 272s-76 271 -201 271c-118 0 -201 -89 -201 -271s80 -272 201 -272zM266 728c34 20 63 43 63 72c0 23 -17 40 -44 40
c-14 0 -31 -4 -46 -9v52c18 8 37 13 64 13c53 0 93 -36 93 -86c0 -52 -37 -91 -93 -122z" />
    <glyph glyph-name="uni1ECC" unicode="&#x1ecc;" horiz-adv-x="651" 
d="M324 -10c-173 0 -276 121 -276 337s102 343 281 343c176 0 274 -125 274 -335c0 -213 -98 -345 -279 -345zM325 58c125 0 201 90 201 272s-76 271 -201 271c-118 0 -201 -89 -201 -271s80 -272 201 -272zM273 -125c0 30 23 53 52 53c31 0 54 -23 54 -53
c0 -28 -23 -51 -54 -51c-29 0 -52 23 -52 51z" />
    <glyph glyph-name="uni1EDC" unicode="&#x1edc;" horiz-adv-x="690" 
d="M324 -10c-173 0 -276 121 -276 337s102 343 281 343c77 0 139 -24 185 -69c49 -1 75 27 75 76c0 16 -3 37 -7 53h62c7 -17 10 -43 10 -61c0 -69 -37 -112 -99 -122c31 -54 48 -126 48 -212c0 -213 -98 -345 -279 -345zM325 58c125 0 201 90 201 272s-76 271 -201 271
c-118 0 -201 -89 -201 -271s80 -272 201 -272zM187 851h77l91 -124v-15h-64l-104 124v15z" />
    <glyph glyph-name="uni1EDA" unicode="&#x1eda;" horiz-adv-x="690" 
d="M324 -10c-173 0 -276 121 -276 337s102 343 281 343c77 0 139 -24 185 -69c49 -1 75 27 75 76c0 16 -3 37 -7 53h62c7 -17 10 -43 10 -61c0 -69 -37 -112 -99 -122c31 -54 48 -126 48 -212c0 -213 -98 -345 -279 -345zM325 58c125 0 201 90 201 272s-76 271 -201 271
c-118 0 -201 -89 -201 -271s80 -272 201 -272zM389 851h79v-15l-106 -124h-64v15z" />
    <glyph glyph-name="uni1EE0" unicode="&#x1ee0;" horiz-adv-x="690" 
d="M324 -10c-173 0 -276 121 -276 337s102 343 281 343c77 0 139 -24 185 -69c49 -1 75 27 75 76c0 16 -3 37 -7 53h62c7 -17 10 -43 10 -61c0 -69 -37 -112 -99 -122c31 -54 48 -126 48 -212c0 -213 -98 -345 -279 -345zM325 58c125 0 201 90 201 272s-76 271 -201 271
c-118 0 -201 -89 -201 -271s80 -272 201 -272zM281 762c-17 0 -25 -19 -25 -48h-60v7c0 62 26 102 79 102c22 0 40 -9 59 -22c19 -14 28 -22 42 -22c17 0 25 19 25 48h59v-8c0 -62 -26 -101 -80 -101c-21 0 -37 8 -57 22c-20 15 -28 22 -42 22z" />
    <glyph glyph-name="uni1EDE" unicode="&#x1ede;" horiz-adv-x="690" 
d="M324 -10c-173 0 -276 121 -276 337s102 343 281 343c77 0 139 -24 185 -69c49 -1 75 27 75 76c0 16 -3 37 -7 53h62c7 -17 10 -43 10 -61c0 -69 -37 -112 -99 -122c31 -54 48 -126 48 -212c0 -213 -98 -345 -279 -345zM325 58c125 0 201 90 201 272s-76 271 -201 271
c-118 0 -201 -89 -201 -271s80 -272 201 -272zM281 728c34 20 63 43 63 72c0 23 -17 40 -44 40c-14 0 -31 -4 -46 -9v52c18 8 37 13 64 13c53 0 93 -36 93 -86c0 -52 -37 -91 -93 -122z" />
    <glyph glyph-name="uni1EE2" unicode="&#x1ee2;" horiz-adv-x="690" 
d="M324 -10c-173 0 -276 121 -276 337s102 343 281 343c77 0 139 -24 185 -69c49 -1 75 27 75 76c0 16 -3 37 -7 53h62c7 -17 10 -43 10 -61c0 -69 -37 -112 -99 -122c31 -54 48 -126 48 -212c0 -213 -98 -345 -279 -345zM325 58c125 0 201 90 201 272s-76 271 -201 271
c-118 0 -201 -89 -201 -271s80 -272 201 -272zM273 -125c0 30 23 53 52 53c31 0 54 -23 54 -53c0 -28 -23 -51 -54 -51c-29 0 -52 23 -52 51z" />
    <glyph glyph-name="uni1E56" unicode="&#x1e56;" horiz-adv-x="574" 
d="M287 594h-83v-285h83c114 0 175 51 175 145c0 91 -60 140 -175 140zM298 64v-64h-255v64l88 2v528l-88 2v64h247c173 0 248 -77 248 -202c0 -131 -85 -216 -247 -216h-87v-176zM246 781c0 30 23 53 52 53c31 0 54 -23 54 -53c0 -28 -23 -51 -54 -51c-29 0 -52 23 -52 51z
" />
    <glyph glyph-name="uni00500304" horiz-adv-x="574" 
d="M287 594h-83v-285h83c114 0 175 51 175 145c0 91 -60 140 -175 140zM298 64v-64h-255v64l88 2v528l-88 2v64h247c173 0 248 -77 248 -202c0 -131 -85 -216 -247 -216h-87v-176zM180 740v63h234v-63h-234z" />
    <glyph glyph-name="Racute" unicode="&#x154;" horiz-adv-x="626" 
d="M203 595v-270h164c56 43 84 94 84 148c0 76 -50 122 -165 122h-83zM284 63v-63h-242v63l88 2v530l-88 2v63h259c152 0 227 -68 227 -179c0 -76 -39 -141 -115 -189l157 -227l45 -2v-63h-91l-174 259h-147v-194zM339 851h79v-15l-106 -124h-64v15z" />
    <glyph glyph-name="Rcaron" unicode="&#x158;" horiz-adv-x="626" 
d="M328 712h-74l-98 124v15h66l69 -83l71 83h64v-15zM203 595v-270h164c56 43 84 94 84 148c0 76 -50 122 -165 122h-83zM284 63v-63h-242v63l88 2v530l-88 2v63h259c152 0 227 -68 227 -179c0 -76 -39 -141 -115 -189l157 -227l45 -2v-63h-91l-174 259h-147v-194z" />
    <glyph glyph-name="uni00520300" horiz-adv-x="626" 
d="M203 595v-270h164c56 43 84 94 84 148c0 76 -50 122 -165 122h-83zM284 63v-63h-242v63l88 2v530l-88 2v63h259c152 0 227 -68 227 -179c0 -76 -39 -141 -115 -189l157 -227l45 -2v-63h-91l-174 259h-147v-194zM137 851h77l91 -124v-15h-64l-104 124v15z" />
    <glyph glyph-name="Rcommaaccent" unicode="&#x156;" horiz-adv-x="626" 
d="M276 -52h64c4 -16 6 -31 6 -55c0 -47 -14 -94 -48 -145l-61 27c27 40 43 84 43 120c0 21 -2 36 -4 53zM203 595v-270h164c56 43 84 94 84 148c0 76 -50 122 -165 122h-83zM284 63v-63h-242v63l88 2v530l-88 2v63h259c152 0 227 -68 227 -179c0 -76 -39 -141 -115 -189
l157 -227l45 -2v-63h-91l-174 259h-147v-194z" />
    <glyph glyph-name="uni1E5E" unicode="&#x1e5e;" horiz-adv-x="626" 
d="M203 595v-270h164c56 43 84 94 84 148c0 76 -50 122 -165 122h-83zM284 63v-63h-242v63l88 2v530l-88 2v63h259c152 0 227 -68 227 -179c0 -76 -39 -141 -115 -189l157 -227l45 -2v-63h-91l-174 259h-147v-194zM194 -144v62h224v-62h-224z" />
    <glyph glyph-name="uni1E5A" unicode="&#x1e5a;" horiz-adv-x="626" 
d="M203 595v-270h164c56 43 84 94 84 148c0 76 -50 122 -165 122h-83zM284 63v-63h-242v63l88 2v530l-88 2v63h259c152 0 227 -68 227 -179c0 -76 -39 -141 -115 -189l157 -227l45 -2v-63h-91l-174 259h-147v-194zM244 -125c0 30 23 53 52 53c31 0 54 -23 54 -53
c0 -28 -23 -51 -54 -51c-29 0 -52 23 -52 51z" />
    <glyph glyph-name="uni1E5C" unicode="&#x1e5c;" horiz-adv-x="626" 
d="M203 595v-270h164c56 43 84 94 84 148c0 76 -50 122 -165 122h-83zM284 63v-63h-242v63l88 2v530l-88 2v63h259c152 0 227 -68 227 -179c0 -76 -39 -141 -115 -189l157 -227l45 -2v-63h-91l-174 259h-147v-194zM244 -125c0 30 23 53 52 53c31 0 54 -23 54 -53
c0 -28 -23 -51 -54 -51c-29 0 -52 23 -52 51zM181 740v63h234v-63h-234z" />
    <glyph glyph-name="uni00520325" horiz-adv-x="626" 
d="M203 595v-270h164c56 43 84 94 84 148c0 76 -50 122 -165 122h-83zM284 63v-63h-242v63l88 2v530l-88 2v63h259c152 0 227 -68 227 -179c0 -76 -39 -141 -115 -189l157 -227l45 -2v-63h-91l-174 259h-147v-194zM222 -137c0 47 38 85 85 85s85 -38 85 -85s-38 -84 -85 -84
s-85 37 -85 84zM266 -137c0 -23 18 -41 41 -41s41 18 41 41s-18 41 -41 41s-41 -18 -41 -41z" />
    <glyph glyph-name="uni005203250304" horiz-adv-x="626" 
d="M222 -137c0 47 38 85 85 85s85 -38 85 -85s-38 -84 -85 -84s-85 37 -85 84zM266 -137c0 -23 18 -41 41 -41s41 18 41 41s-18 41 -41 41s-41 -18 -41 -41zM203 595v-270h164c56 43 84 94 84 148c0 76 -50 122 -165 122h-83zM284 63v-63h-242v63l88 2v530l-88 2v63h259
c152 0 227 -68 227 -179c0 -76 -39 -141 -115 -189l157 -227l45 -2v-63h-91l-174 259h-147v-194zM181 740v63h234v-63h-234z" />
    <glyph glyph-name="uni1E58" unicode="&#x1e58;" horiz-adv-x="626" 
d="M203 595v-270h164c56 43 84 94 84 148c0 76 -50 122 -165 122h-83zM284 63v-63h-242v63l88 2v530l-88 2v63h259c152 0 227 -68 227 -179c0 -76 -39 -141 -115 -189l157 -227l45 -2v-63h-91l-174 259h-147v-194zM252 781c0 30 23 53 52 53c31 0 54 -23 54 -53
c0 -28 -23 -51 -54 -51c-29 0 -52 23 -52 51z" />
    <glyph glyph-name="Sacute" unicode="&#x15a;" horiz-adv-x="511" 
d="M467 175c0 -110 -83 -185 -227 -185c-68 0 -135 12 -189 37v157h68l2 -108c37 -14 75 -19 119 -19c97 0 151 43 151 117c0 76 -74 108 -154 142c-87 36 -180 77 -180 190c0 103 80 164 205 164c70 0 127 -14 181 -36v-152h-67l-2 103c-40 13 -73 18 -117 18
c-83 0 -125 -38 -125 -98c0 -72 69 -94 140 -124c94 -40 195 -81 195 -206zM307 851h79v-15l-106 -124h-64v15z" />
    <glyph glyph-name="Scedilla" unicode="&#x15e;" horiz-adv-x="511" 
d="M234 -53c71 0 110 -37 110 -87c0 -58 -42 -100 -114 -100c-32 0 -61 5 -82 14v55c23 -10 47 -15 74 -15c38 0 63 15 63 44c0 28 -24 44 -61 44c-11 0 -26 -2 -38 -4l-17 35l19 59c-49 5 -97 16 -137 35v157h68l2 -108c37 -14 75 -19 119 -19c97 0 151 43 151 117
c0 76 -74 108 -154 142c-87 36 -180 77 -180 190c0 103 80 164 205 164c70 0 127 -14 181 -36v-152h-67l-2 103c-40 13 -73 18 -117 18c-83 0 -125 -38 -125 -98c0 -72 69 -94 140 -124c94 -40 195 -81 195 -206c0 -109 -81 -182 -221 -185l-13 -43h1z" />
    <glyph glyph-name="Scaron" unicode="&#x160;" horiz-adv-x="511" 
d="M467 175c0 -110 -83 -185 -227 -185c-68 0 -135 12 -189 37v157h68l2 -108c37 -14 75 -19 119 -19c97 0 151 43 151 117c0 76 -74 108 -154 142c-87 36 -180 77 -180 190c0 103 80 164 205 164c70 0 127 -14 181 -36v-152h-67l-2 103c-40 13 -73 18 -117 18
c-83 0 -125 -38 -125 -98c0 -72 69 -94 140 -124c94 -40 195 -81 195 -206zM292 712h-74l-98 124v15h66l69 -83l71 83h64v-15z" />
    <glyph glyph-name="Scircumflex" unicode="&#x15c;" horiz-adv-x="511" 
d="M467 175c0 -110 -83 -185 -227 -185c-68 0 -135 12 -189 37v157h68l2 -108c37 -14 75 -19 119 -19c97 0 151 43 151 117c0 76 -74 108 -154 142c-87 36 -180 77 -180 190c0 103 80 164 205 164c70 0 127 -14 181 -36v-152h-67l-2 103c-40 13 -73 18 -117 18
c-83 0 -125 -38 -125 -98c0 -72 69 -94 140 -124c94 -40 195 -81 195 -206zM185 712h-66v15l98 124h74l98 -124v-15h-64l-71 84z" />
    <glyph glyph-name="Scommaaccent" unicode="&#x218;" horiz-adv-x="511" 
d="M209 -52h64c4 -16 6 -31 6 -55c0 -47 -14 -94 -48 -145l-61 27c27 40 43 84 43 120c0 21 -2 36 -4 53zM467 175c0 -110 -83 -185 -227 -185c-68 0 -135 12 -189 37v157h68l2 -108c37 -14 75 -19 119 -19c97 0 151 43 151 117c0 76 -74 108 -154 142
c-87 36 -180 77 -180 190c0 103 80 164 205 164c70 0 127 -14 181 -36v-152h-67l-2 103c-40 13 -73 18 -117 18c-83 0 -125 -38 -125 -98c0 -72 69 -94 140 -124c94 -40 195 -81 195 -206z" />
    <glyph glyph-name="uni00530331" horiz-adv-x="511" 
d="M467 175c0 -110 -83 -185 -227 -185c-68 0 -135 12 -189 37v157h68l2 -108c37 -14 75 -19 119 -19c97 0 151 43 151 117c0 76 -74 108 -154 142c-87 36 -180 77 -180 190c0 103 80 164 205 164c70 0 127 -14 181 -36v-152h-67l-2 103c-40 13 -73 18 -117 18
c-83 0 -125 -38 -125 -98c0 -72 69 -94 140 -124c94 -40 195 -81 195 -206zM129 -144v62h224v-62h-224z" />
    <glyph glyph-name="uni00530300" horiz-adv-x="511" 
d="M467 175c0 -110 -83 -185 -227 -185c-68 0 -135 12 -189 37v157h68l2 -108c37 -14 75 -19 119 -19c97 0 151 43 151 117c0 76 -74 108 -154 142c-87 36 -180 77 -180 190c0 103 80 164 205 164c70 0 127 -14 181 -36v-152h-67l-2 103c-40 13 -73 18 -117 18
c-83 0 -125 -38 -125 -98c0 -72 69 -94 140 -124c94 -40 195 -81 195 -206zM122 851h77l91 -124v-15h-64l-104 124v15z" />
    <glyph glyph-name="uni1E60" unicode="&#x1e60;" horiz-adv-x="511" 
d="M467 175c0 -110 -83 -185 -227 -185c-68 0 -135 12 -189 37v157h68l2 -108c37 -14 75 -19 119 -19c97 0 151 43 151 117c0 76 -74 108 -154 142c-87 36 -180 77 -180 190c0 103 80 164 205 164c70 0 127 -14 181 -36v-152h-67l-2 103c-40 13 -73 18 -117 18
c-83 0 -125 -38 -125 -98c0 -72 69 -94 140 -124c94 -40 195 -81 195 -206zM198 781c0 30 23 53 52 53c31 0 54 -23 54 -53c0 -28 -23 -51 -54 -51c-29 0 -52 23 -52 51z" />
    <glyph glyph-name="uni00530306" horiz-adv-x="511" 
d="M467 175c0 -110 -83 -185 -227 -185c-68 0 -135 12 -189 37v157h68l2 -108c37 -14 75 -19 119 -19c97 0 151 43 151 117c0 76 -74 108 -154 142c-87 36 -180 77 -180 190c0 103 80 164 205 164c70 0 127 -14 181 -36v-152h-67l-2 103c-40 13 -73 18 -117 18
c-83 0 -125 -38 -125 -98c0 -72 69 -94 140 -124c94 -40 195 -81 195 -206zM250 775c38 0 61 15 63 51h63c0 -69 -50 -108 -126 -108s-126 39 -126 108h63c2 -36 25 -51 63 -51z" />
    <glyph glyph-name="uni1E62" unicode="&#x1e62;" horiz-adv-x="511" 
d="M182 -125c0 30 23 53 52 53c31 0 54 -23 54 -53c0 -28 -23 -51 -54 -51c-29 0 -52 23 -52 51zM467 175c0 -110 -83 -185 -227 -185c-68 0 -135 12 -189 37v157h68l2 -108c37 -14 75 -19 119 -19c97 0 151 43 151 117c0 76 -74 108 -154 142c-87 36 -180 77 -180 190
c0 103 80 164 205 164c70 0 127 -14 181 -36v-152h-67l-2 103c-40 13 -73 18 -117 18c-83 0 -125 -38 -125 -98c0 -72 69 -94 140 -124c94 -40 195 -81 195 -206z" />
    <glyph glyph-name="Tbar" unicode="&#x166;" horiz-adv-x="594" 
d="M137 304v62h123v228h-160l-2 -110h-67v176h532v-176h-67l-2 110h-161v-228h127v-62h-127v-239l88 -2v-63h-248v63l87 2v239h-123z" />
    <glyph glyph-name="Tcaron" unicode="&#x164;" horiz-adv-x="594" 
d="M331 712h-74l-98 124v15h66l69 -83l71 83h64v-15zM421 63v-63h-248v63l87 2v529h-160l-2 -110h-67v176h532v-176h-67l-2 110h-161v-529z" />
    <glyph glyph-name="Tcommaaccent" unicode="&#x162;" horiz-adv-x="594" 
d="M261 -52h64c4 -16 6 -31 6 -55c0 -47 -14 -94 -48 -145l-61 27c27 40 43 84 43 120c0 21 -2 36 -4 53zM421 63v-63h-248v63l87 2v529h-160l-2 -110h-67v176h532v-176h-67l-2 110h-161v-529z" />
    <glyph glyph-name="uni021A" unicode="&#x21a;" horiz-adv-x="594" 
d="M261 -52h64c4 -16 6 -31 6 -55c0 -47 -14 -94 -48 -145l-61 27c27 40 43 84 43 120c0 21 -2 36 -4 53zM421 63v-63h-248v63l87 2v529h-160l-2 -110h-67v176h532v-176h-67l-2 110h-161v-529z" />
    <glyph glyph-name="uni1E6E" unicode="&#x1e6e;" horiz-adv-x="594" 
d="M421 63v-63h-248v63l87 2v529h-160l-2 -110h-67v176h532v-176h-67l-2 110h-161v-529zM186 -144v62h224v-62h-224z" />
    <glyph glyph-name="uni1E6C" unicode="&#x1e6c;" horiz-adv-x="594" 
d="M421 63v-63h-248v63l87 2v529h-160l-2 -110h-67v176h532v-176h-67l-2 110h-161v-529zM244 -125c0 30 23 53 52 53c31 0 54 -23 54 -53c0 -28 -23 -51 -54 -51c-29 0 -52 23 -52 51z" />
    <glyph glyph-name="uni00540308" horiz-adv-x="594" 
d="M421 63v-63h-248v63l87 2v529h-160l-2 -110h-67v176h532v-176h-67l-2 110h-161v-529zM154 781c0 30 23 53 52 53c31 0 54 -23 54 -53c0 -28 -23 -51 -54 -51c-29 0 -52 23 -52 51zM327 781c0 30 23 53 52 53c31 0 54 -23 54 -53c0 -28 -23 -51 -54 -51
c-29 0 -52 23 -52 51z" />
    <glyph glyph-name="uni1E6A" unicode="&#x1e6a;" horiz-adv-x="594" 
d="M421 63v-63h-248v63l87 2v529h-160l-2 -110h-67v176h532v-176h-67l-2 110h-161v-529zM241 781c0 30 23 53 52 53c31 0 54 -23 54 -53c0 -28 -23 -51 -54 -51c-29 0 -52 23 -52 51z" />
    <glyph glyph-name="Uacute" unicode="&#xda;" horiz-adv-x="688" 
d="M398 851h79v-15l-106 -124h-64v15zM341 -10c-148 0 -232 88 -232 238v367l-68 2v63h223v-63l-82 -2v-361c0 -117 58 -174 161 -174s164 57 164 174v361l-82 2v63h223v-63l-68 -2v-367c0 -147 -93 -238 -239 -238z" />
    <glyph glyph-name="Ucircumflex" unicode="&#xdb;" horiz-adv-x="688" 
d="M341 -10c-148 0 -232 88 -232 238v367l-68 2v63h223v-63l-82 -2v-361c0 -117 58 -174 161 -174s164 57 164 174v361l-82 2v63h223v-63l-68 -2v-367c0 -147 -93 -238 -239 -238zM276 712h-66v15l98 124h74l98 -124v-15h-64l-71 84z" />
    <glyph glyph-name="Ugrave" unicode="&#xd9;" horiz-adv-x="688" 
d="M206 851h77l91 -124v-15h-64l-104 124v15zM341 -10c-148 0 -232 88 -232 238v367l-68 2v63h223v-63l-82 -2v-361c0 -117 58 -174 161 -174s164 57 164 174v361l-82 2v63h223v-63l-68 -2v-367c0 -147 -93 -238 -239 -238z" />
    <glyph glyph-name="Udieresis" unicode="&#xdc;" horiz-adv-x="688" 
d="M205 781c0 30 23 53 52 53c31 0 54 -23 54 -53c0 -28 -23 -51 -54 -51c-29 0 -52 23 -52 51zM378 781c0 30 23 53 52 53c31 0 54 -23 54 -53c0 -28 -23 -51 -54 -51c-29 0 -52 23 -52 51zM341 -10c-148 0 -232 88 -232 238v367l-68 2v63h223v-63l-82 -2v-361
c0 -117 58 -174 161 -174s164 57 164 174v361l-82 2v63h223v-63l-68 -2v-367c0 -147 -93 -238 -239 -238z" />
    <glyph glyph-name="Ubreve" unicode="&#x16c;" horiz-adv-x="688" 
d="M341 -10c-148 0 -232 88 -232 238v367l-68 2v63h223v-63l-82 -2v-361c0 -117 58 -174 161 -174s164 57 164 174v361l-82 2v63h223v-63l-68 -2v-367c0 -147 -93 -238 -239 -238zM344 775c38 0 61 15 63 51h63c0 -69 -50 -108 -126 -108s-126 39 -126 108h63
c2 -36 25 -51 63 -51z" />
    <glyph glyph-name="Uhungarumlaut" unicode="&#x170;" horiz-adv-x="688" 
d="M341 -10c-148 0 -232 88 -232 238v367l-68 2v63h223v-63l-82 -2v-361c0 -117 58 -174 161 -174s164 57 164 174v361l-82 2v63h223v-63l-68 -2v-367c0 -147 -93 -238 -239 -238zM305 851h70v-15l-57 -124h-58v15zM435 851h72v-15l-76 -124h-58v15z" />
    <glyph glyph-name="Umacron" unicode="&#x16a;" horiz-adv-x="688" 
d="M228 740v63h234v-63h-234zM341 -10c-148 0 -232 88 -232 238v367l-68 2v63h223v-63l-82 -2v-361c0 -117 58 -174 161 -174s164 57 164 174v361l-82 2v63h223v-63l-68 -2v-367c0 -147 -93 -238 -239 -238z" />
    <glyph glyph-name="Uogonek" unicode="&#x172;" horiz-adv-x="689" 
d="M378 -240c-69 0 -114 35 -114 99c0 45 27 89 87 131h-10c-146 0 -232 86 -232 236v369l-68 2v63h223v-63l-82 -2v-361c0 -117 58 -174 161 -174s164 57 164 174v361l-82 2v63h223v-63l-68 -2v-372c0 -115 -53 -165 -128 -214c-73 -47 -126 -94 -126 -140
c0 -37 26 -55 61 -55c27 0 47 7 59 14v-53c-12 -8 -40 -15 -68 -15z" />
    <glyph glyph-name="Uring" unicode="&#x16e;" horiz-adv-x="688" 
d="M341 -10c-148 0 -232 88 -232 238v367l-68 2v63h223v-63l-82 -2v-361c0 -117 58 -174 161 -174s164 57 164 174v361l-82 2v63h223v-63l-68 -2v-367c0 -147 -93 -238 -239 -238zM262 786c0 47 38 85 85 85s85 -38 85 -85s-38 -84 -85 -84s-85 37 -85 84zM306 786
c0 -23 15 -43 41 -43s41 20 41 43s-15 43 -41 43s-41 -20 -41 -43z" />
    <glyph glyph-name="Utilde" unicode="&#x168;" horiz-adv-x="688" 
d="M341 -10c-148 0 -232 88 -232 238v367l-68 2v63h223v-63l-82 -2v-361c0 -117 58 -174 161 -174s164 57 164 174v361l-82 2v63h223v-63l-68 -2v-367c0 -147 -93 -238 -239 -238zM300 762c-17 0 -25 -19 -25 -48h-60v7c0 62 26 102 79 102c22 0 40 -9 59 -22
c19 -14 28 -22 42 -22c17 0 25 19 25 48h59v-8c0 -62 -26 -101 -80 -101c-21 0 -37 8 -57 22c-20 15 -28 22 -42 22z" />
    <glyph glyph-name="Uhorn" unicode="&#x1af;" horiz-adv-x="686" 
d="M341 -10c-148 0 -232 88 -232 238v367l-68 2v63h223v-63l-82 -2v-361c0 -117 58 -174 161 -174s164 57 164 174v361l-82 2v63h150c49 0 75 25 75 75c0 16 -3 37 -7 53h62c7 -17 10 -43 10 -61c0 -84 -52 -131 -135 -131v-368c0 -147 -93 -238 -239 -238z" />
    <glyph glyph-name="uni1EE6" unicode="&#x1ee6;" horiz-adv-x="688" 
d="M341 -10c-148 0 -232 88 -232 238v367l-68 2v63h223v-63l-82 -2v-361c0 -117 58 -174 161 -174s164 57 164 174v361l-82 2v63h223v-63l-68 -2v-367c0 -147 -93 -238 -239 -238zM294 728c34 20 63 43 63 72c0 23 -17 40 -44 40c-14 0 -31 -4 -46 -9v52c18 8 37 13 64 13
c53 0 93 -36 93 -86c0 -52 -37 -91 -93 -122z" />
    <glyph glyph-name="uni1EE4" unicode="&#x1ee4;" horiz-adv-x="688" 
d="M341 -10c-148 0 -232 88 -232 238v367l-68 2v63h223v-63l-82 -2v-361c0 -117 58 -174 161 -174s164 57 164 174v361l-82 2v63h223v-63l-68 -2v-367c0 -147 -93 -238 -239 -238zM289 -125c0 30 23 53 52 53c31 0 54 -23 54 -53c0 -28 -23 -51 -54 -51c-29 0 -52 23 -52 51
z" />
    <glyph glyph-name="uni1EEA" unicode="&#x1eea;" horiz-adv-x="686" 
d="M206 851h77l91 -124v-15h-64l-104 124v15zM341 -10c-148 0 -232 88 -232 238v367l-68 2v63h223v-63l-82 -2v-361c0 -117 58 -174 161 -174s164 57 164 174v361l-82 2v63h150c49 0 75 25 75 75c0 16 -3 37 -7 53h62c7 -17 10 -43 10 -61c0 -84 -52 -131 -135 -131v-368
c0 -147 -93 -238 -239 -238z" />
    <glyph glyph-name="uni1EE8" unicode="&#x1ee8;" horiz-adv-x="686" 
d="M398 851h79v-15l-106 -124h-64v15zM341 -10c-148 0 -232 88 -232 238v367l-68 2v63h223v-63l-82 -2v-361c0 -117 58 -174 161 -174s164 57 164 174v361l-82 2v63h150c49 0 75 25 75 75c0 16 -3 37 -7 53h62c7 -17 10 -43 10 -61c0 -84 -52 -131 -135 -131v-368
c0 -147 -93 -238 -239 -238z" />
    <glyph glyph-name="uni1EEE" unicode="&#x1eee;" horiz-adv-x="686" 
d="M341 -10c-148 0 -232 88 -232 238v367l-68 2v63h223v-63l-82 -2v-361c0 -117 58 -174 161 -174s164 57 164 174v361l-82 2v63h150c49 0 75 25 75 75c0 16 -3 37 -7 53h62c7 -17 10 -43 10 -61c0 -84 -52 -131 -135 -131v-368c0 -147 -93 -238 -239 -238zM300 762
c-17 0 -25 -19 -25 -48h-60v7c0 62 26 102 79 102c22 0 40 -9 59 -22c19 -14 28 -22 42 -22c17 0 25 19 25 48h59v-8c0 -62 -26 -101 -80 -101c-21 0 -37 8 -57 22c-20 15 -28 22 -42 22z" />
    <glyph glyph-name="uni1EEC" unicode="&#x1eec;" horiz-adv-x="686" 
d="M294 728c34 20 63 43 63 72c0 23 -17 40 -44 40c-14 0 -31 -4 -46 -9v52c18 8 37 13 64 13c53 0 93 -36 93 -86c0 -52 -37 -91 -93 -122zM341 -10c-148 0 -232 88 -232 238v367l-68 2v63h223v-63l-82 -2v-361c0 -117 58 -174 161 -174s164 57 164 174v361l-82 2v63h150
c49 0 75 25 75 75c0 16 -3 37 -7 53h62c7 -17 10 -43 10 -61c0 -84 -52 -131 -135 -131v-368c0 -147 -93 -238 -239 -238z" />
    <glyph glyph-name="uni1EF0" unicode="&#x1ef0;" horiz-adv-x="686" 
d="M289 -125c0 30 23 53 52 53c31 0 54 -23 54 -53c0 -28 -23 -51 -54 -51c-29 0 -52 23 -52 51zM341 -10c-148 0 -232 88 -232 238v367l-68 2v63h223v-63l-82 -2v-361c0 -117 58 -174 161 -174s164 57 164 174v361l-82 2v63h150c49 0 75 25 75 75c0 16 -3 37 -7 53h62
c7 -17 10 -43 10 -61c0 -84 -52 -131 -135 -131v-368c0 -147 -93 -238 -239 -238z" />
    <glyph glyph-name="uni01D3" unicode="&#x1d3;" horiz-adv-x="688" 
d="M380 712h-74l-98 124v15h66l69 -83l71 83h64v-15zM341 -10c-148 0 -232 88 -232 238v367l-68 2v63h223v-63l-82 -2v-361c0 -117 58 -174 161 -174s164 57 164 174v361l-82 2v63h223v-63l-68 -2v-367c0 -147 -93 -238 -239 -238z" />
    <glyph glyph-name="uni01D5" unicode="&#x1d5;" horiz-adv-x="688" 
d="M227 888v63h234v-63h-234zM205 781c0 30 23 53 52 53c31 0 54 -23 54 -53c0 -28 -23 -51 -54 -51c-29 0 -52 23 -52 51zM378 781c0 30 23 53 52 53c31 0 54 -23 54 -53c0 -28 -23 -51 -54 -51c-29 0 -52 23 -52 51zM341 -10c-148 0 -232 88 -232 238v367l-68 2v63h223
v-63l-82 -2v-361c0 -117 58 -174 161 -174s164 57 164 174v361l-82 2v63h223v-63l-68 -2v-367c0 -147 -93 -238 -239 -238z" />
    <glyph glyph-name="uni01D7" unicode="&#x1d7;" horiz-adv-x="688" 
d="M405 1006h79v-15l-106 -124h-64v15zM205 781c0 30 23 53 52 53c31 0 54 -23 54 -53c0 -28 -23 -51 -54 -51c-29 0 -52 23 -52 51zM378 781c0 30 23 53 52 53c31 0 54 -23 54 -53c0 -28 -23 -51 -54 -51c-29 0 -52 23 -52 51zM341 -10c-148 0 -232 88 -232 238v367l-68 2
v63h223v-63l-82 -2v-361c0 -117 58 -174 161 -174s164 57 164 174v361l-82 2v63h223v-63l-68 -2v-367c0 -147 -93 -238 -239 -238z" />
    <glyph glyph-name="uni01D9" unicode="&#x1d9;" horiz-adv-x="688" 
d="M381 867h-74l-98 124v15h66l69 -83l71 83h64v-15zM205 781c0 30 23 53 52 53c31 0 54 -23 54 -53c0 -28 -23 -51 -54 -51c-29 0 -52 23 -52 51zM378 781c0 30 23 53 52 53c31 0 54 -23 54 -53c0 -28 -23 -51 -54 -51c-29 0 -52 23 -52 51zM341 -10
c-148 0 -232 88 -232 238v367l-68 2v63h223v-63l-82 -2v-361c0 -117 58 -174 161 -174s164 57 164 174v361l-82 2v63h223v-63l-68 -2v-367c0 -147 -93 -238 -239 -238z" />
    <glyph glyph-name="uni01DB" unicode="&#x1db;" horiz-adv-x="688" 
d="M206 1006h77l91 -124v-15h-64l-104 124v15zM205 781c0 30 23 53 52 53c31 0 54 -23 54 -53c0 -28 -23 -51 -54 -51c-29 0 -52 23 -52 51zM378 781c0 30 23 53 52 53c31 0 54 -23 54 -53c0 -28 -23 -51 -54 -51c-29 0 -52 23 -52 51zM341 -10c-148 0 -232 88 -232 238v367
l-68 2v63h223v-63l-82 -2v-361c0 -117 58 -174 161 -174s164 57 164 174v361l-82 2v63h223v-63l-68 -2v-367c0 -147 -93 -238 -239 -238z" />
    <glyph glyph-name="uni1E7E" unicode="&#x1e7e;" horiz-adv-x="625" 
d="M358 0h-90l-195 595l-62 2v63h208v-63l-69 -2l164 -507l164 507l-68 2v63h204v-63l-62 -2zM260 -125c0 30 23 53 52 53c31 0 54 -23 54 -53c0 -28 -23 -51 -54 -51c-29 0 -52 23 -52 51z" />
    <glyph glyph-name="uni1E7C" unicode="&#x1e7c;" horiz-adv-x="625" 
d="M358 0h-90l-195 595l-62 2v63h208v-63l-69 -2l164 -507l164 507l-68 2v63h204v-63l-62 -2zM273 762c-17 0 -25 -19 -25 -48h-60v7c0 62 26 102 79 102c22 0 40 -9 59 -22c19 -14 28 -22 42 -22c17 0 25 19 25 48h59v-8c0 -62 -26 -101 -80 -101c-21 0 -37 8 -57 22
c-20 15 -28 22 -42 22z" />
    <glyph glyph-name="uni00560304" horiz-adv-x="625" 
d="M358 0h-90l-195 595l-62 2v63h208v-63l-69 -2l164 -507l164 507l-68 2v63h204v-63l-62 -2zM196 740v63h234v-63h-234z" />
    <glyph glyph-name="Wacute" unicode="&#x1e82;" horiz-adv-x="897" 
d="M506 851h79v-15l-106 -124h-64v15zM593 0l-145 529l-145 -529h-93l-135 595l-60 2v63h216v-63l-82 -2l112 -497l140 514h96l141 -516l112 499l-82 2v63h214v-63l-60 -2l-135 -595h-94z" />
    <glyph glyph-name="Wcircumflex" unicode="&#x174;" horiz-adv-x="897" 
d="M593 0l-145 529l-145 -529h-93l-135 595l-60 2v63h216v-63l-82 -2l112 -497l140 514h96l141 -516l112 499l-82 2v63h214v-63l-60 -2l-135 -595h-94zM380 712h-66v15l98 124h74l98 -124v-15h-64l-71 84z" />
    <glyph glyph-name="Wdieresis" unicode="&#x1e84;" horiz-adv-x="897" 
d="M309 781c0 30 23 53 52 53c31 0 54 -23 54 -53c0 -28 -23 -51 -54 -51c-29 0 -52 23 -52 51zM482 781c0 30 23 53 52 53c31 0 54 -23 54 -53c0 -28 -23 -51 -54 -51c-29 0 -52 23 -52 51zM593 0l-145 529l-145 -529h-93l-135 595l-60 2v63h216v-63l-82 -2l112 -497
l140 514h96l141 -516l112 499l-82 2v63h214v-63l-60 -2l-135 -595h-94z" />
    <glyph glyph-name="Wgrave" unicode="&#x1e80;" horiz-adv-x="897" 
d="M309 851h77l91 -124v-15h-64l-104 124v15zM593 0l-145 529l-145 -529h-93l-135 595l-60 2v63h216v-63l-82 -2l112 -497l140 514h96l141 -516l112 499l-82 2v63h214v-63l-60 -2l-135 -595h-94z" />
    <glyph glyph-name="uni1E86" unicode="&#x1e86;" horiz-adv-x="897" 
d="M593 0l-145 529l-145 -529h-93l-135 595l-60 2v63h216v-63l-82 -2l112 -497l140 514h96l141 -516l112 499l-82 2v63h214v-63l-60 -2l-135 -595h-94zM396 781c0 30 23 53 52 53c31 0 54 -23 54 -53c0 -28 -23 -51 -54 -51c-29 0 -52 23 -52 51z" />
    <glyph glyph-name="uni1E88" unicode="&#x1e88;" horiz-adv-x="897" 
d="M593 0l-145 529l-145 -529h-93l-135 595l-60 2v63h216v-63l-82 -2l112 -497l140 514h96l141 -516l112 499l-82 2v63h214v-63l-60 -2l-135 -595h-94zM398 -125c0 30 23 53 52 53c31 0 54 -23 54 -53c0 -28 -23 -51 -54 -51c-29 0 -52 23 -52 51z" />
    <glyph glyph-name="uni1E8A" unicode="&#x1e8a;" horiz-adv-x="588" 
d="M211 63v-63h-197v63l58 2l178 280l-158 251l-68 2v62h216v-62l-64 -2l118 -191l122 191l-62 2v62h210v-62l-66 -2l-160 -248l176 -283l60 -2v-63h-204v63l62 2l-138 224l-142 -224zM244 781c0 30 23 53 52 53c31 0 54 -23 54 -53c0 -28 -23 -51 -54 -51
c-29 0 -52 23 -52 51z" />
    <glyph glyph-name="uni00580304" horiz-adv-x="588" 
d="M211 63v-63h-197v63l58 2l178 280l-158 251l-68 2v62h216v-62l-64 -2l118 -191l122 191l-62 2v62h210v-62l-66 -2l-160 -248l176 -283l60 -2v-63h-204v63l62 2l-138 224l-142 -224zM179 740v63h234v-63h-234z" />
    <glyph glyph-name="Ydieresis" unicode="&#x178;" horiz-adv-x="618" 
d="M434 0h-249v63l88 2v206l-200 324l-61 2v63h211v-63l-63 -2l151 -254l152 254l-63 2v63h207v-63l-62 -2l-199 -323v-207l88 -2v-63zM170 781c0 30 23 53 52 53c31 0 54 -23 54 -53c0 -28 -23 -51 -54 -51c-29 0 -52 23 -52 51zM343 781c0 30 23 53 52 53
c31 0 54 -23 54 -53c0 -28 -23 -51 -54 -51c-29 0 -52 23 -52 51z" />
    <glyph glyph-name="Ycircumflex" unicode="&#x176;" horiz-adv-x="618" 
d="M434 0h-249v63l88 2v206l-200 324l-61 2v63h211v-63l-63 -2l151 -254l152 254l-63 2v63h207v-63l-62 -2l-199 -323v-207l88 -2v-63zM241 712h-66v15l98 124h74l98 -124v-15h-64l-71 84z" />
    <glyph glyph-name="Ygrave" unicode="&#x1ef2;" horiz-adv-x="618" 
d="M434 0h-249v63l88 2v206l-200 324l-61 2v63h211v-63l-63 -2l151 -254l152 254l-63 2v63h207v-63l-62 -2l-199 -323v-207l88 -2v-63zM169 851h77l91 -124v-15h-64l-104 124v15z" />
    <glyph glyph-name="Yacute" unicode="&#xdd;" horiz-adv-x="618" 
d="M434 0h-249v63l88 2v206l-200 324l-61 2v63h211v-63l-63 -2l151 -254l152 254l-63 2v63h207v-63l-62 -2l-199 -323v-207l88 -2v-63zM370 851h79v-15l-106 -124h-64v15z" />
    <glyph glyph-name="Ymacron" unicode="&#x232;" horiz-adv-x="618" 
d="M434 0h-249v63l88 2v206l-200 324l-61 2v63h211v-63l-63 -2l151 -254l152 254l-63 2v63h207v-63l-62 -2l-199 -323v-207l88 -2v-63zM192 740v63h234v-63h-234z" />
    <glyph glyph-name="uni1E8E" unicode="&#x1e8e;" horiz-adv-x="618" 
d="M434 0h-249v63l88 2v206l-200 324l-61 2v63h211v-63l-63 -2l151 -254l152 254l-63 2v63h207v-63l-62 -2l-199 -323v-207l88 -2v-63zM256 781c0 30 23 53 52 53c31 0 54 -23 54 -53c0 -28 -23 -51 -54 -51c-29 0 -52 23 -52 51z" />
    <glyph glyph-name="uni1EF8" unicode="&#x1ef8;" horiz-adv-x="618" 
d="M434 0h-249v63l88 2v206l-200 324l-61 2v63h211v-63l-63 -2l151 -254l152 254l-63 2v63h207v-63l-62 -2l-199 -323v-207l88 -2v-63zM262 762c-17 0 -25 -19 -25 -48h-60v7c0 62 26 102 79 102c22 0 40 -9 59 -22c19 -14 28 -22 42 -22c17 0 25 19 25 48h59v-8
c0 -62 -26 -101 -80 -101c-21 0 -37 8 -57 22c-20 15 -28 22 -42 22z" />
    <glyph glyph-name="uni1EF6" unicode="&#x1ef6;" horiz-adv-x="618" 
d="M434 0h-249v63l88 2v206l-200 324l-61 2v63h211v-63l-63 -2l151 -254l152 254l-63 2v63h207v-63l-62 -2l-199 -323v-207l88 -2v-63zM257 728c34 20 63 43 63 72c0 23 -17 40 -44 40c-14 0 -31 -4 -46 -9v52c18 8 37 13 64 13c53 0 93 -36 93 -86c0 -52 -37 -91 -93 -122z
" />
    <glyph glyph-name="uni1EF4" unicode="&#x1ef4;" horiz-adv-x="618" 
d="M434 0h-249v63l88 2v206l-200 324l-61 2v63h211v-63l-63 -2l151 -254l152 254l-63 2v63h207v-63l-62 -2l-199 -323v-207l88 -2v-63zM255 -125c0 30 23 53 52 53c31 0 54 -23 54 -53c0 -28 -23 -51 -54 -51c-29 0 -52 23 -52 51z" />
    <glyph glyph-name="Zacute" unicode="&#x179;" horiz-adv-x="544" 
d="M499 0h-464v59l375 536h-288l-2 -111h-67v176h446v-59l-375 -536h308l2 106h65v-171zM337 851h79v-15l-106 -124h-64v15z" />
    <glyph glyph-name="Zcaron" unicode="&#x17d;" horiz-adv-x="544" 
d="M499 0h-464v59l375 536h-288l-2 -111h-67v176h446v-59l-375 -536h308l2 106h65v-171zM317 712h-74l-98 124v15h66l69 -83l71 83h64v-15z" />
    <glyph glyph-name="Zdotaccent" unicode="&#x17b;" horiz-adv-x="544" 
d="M499 0h-464v59l375 536h-288l-2 -111h-67v176h446v-59l-375 -536h308l2 106h65v-171zM223 781c0 30 23 53 52 53c31 0 54 -23 54 -53c0 -28 -23 -51 -54 -51c-29 0 -52 23 -52 51z" />
    <glyph glyph-name="uni1E94" unicode="&#x1e94;" horiz-adv-x="544" 
d="M499 0h-464v59l375 536h-288l-2 -111h-67v176h446v-59l-375 -536h308l2 106h65v-171zM174 -144v62h224v-62h-224z" />
    <glyph glyph-name="uni1E92" unicode="&#x1e92;" horiz-adv-x="544" 
d="M499 0h-464v59l375 536h-288l-2 -111h-67v176h446v-59l-375 -536h308l2 106h65v-171zM232 -125c0 30 23 53 52 53c31 0 54 -23 54 -53c0 -28 -23 -51 -54 -51c-29 0 -52 23 -52 51z" />
    <glyph glyph-name="uni005A0324" horiz-adv-x="544" 
d="M499 0h-464v59l375 536h-288l-2 -111h-67v176h446v-59l-375 -536h308l2 106h65v-171zM313 -125c0 30 23 53 52 53c31 0 54 -23 54 -53c0 -28 -23 -51 -54 -51c-29 0 -52 23 -52 51zM144 -125c0 30 23 53 52 53c31 0 54 -23 54 -53c0 -28 -23 -51 -54 -51
c-29 0 -52 23 -52 51z" />
    <glyph glyph-name="uni018F" unicode="&#x18f;" horiz-adv-x="603" 
d="M281 -10c-147 0 -236 89 -236 247c0 28 1 50 4 80h430v12c0 180 -78 269 -230 269c-67 0 -127 -14 -182 -37v71c40 21 109 38 189 38c199 0 299 -117 299 -342c0 -227 -110 -338 -274 -338zM285 59c98 0 169 60 189 191h-353v-14c0 -119 68 -177 164 -177z" />
    <glyph glyph-name="Thorn" unicode="&#xde;" horiz-adv-x="559" 
d="M302 64v-64h-259v64l88 2v528l-88 2v64h161v-106h70c173 0 251 -77 251 -202c0 -131 -85 -216 -247 -216h-74v-70zM274 486h-70v-283h70c114 0 175 51 175 145c0 91 -60 138 -175 138z" />
    <glyph glyph-name="Eth" unicode="&#xd0;" horiz-adv-x="669" 
d="M45 306v62h87v226l-87 2v64h264c196 0 312 -100 312 -320c0 -221 -111 -340 -309 -340h-267v64l87 2v240h-87zM298 594h-93v-226h150v-62h-150v-240h93c174 0 246 94 246 268c0 176 -72 260 -246 260z" />
    <glyph glyph-name="uni01C4" unicode="&#x1c4;" horiz-adv-x="1211" 
d="M310 0h-267v64l87 2v528l-87 2v64h264c196 0 312 -100 312 -320c0 -221 -111 -340 -309 -340zM296 594h-93v-528h93c174 0 246 94 246 268c0 176 -72 260 -246 260zM1166 0h-464v59l375 536h-288l-2 -111h-67v176h446v-59l-375 -536h308l2 106h65v-171zM984 712h-74
l-98 124v15h66l69 -83l71 83h64v-15z" />
    <glyph glyph-name="uni01C5" unicode="&#x1c5;" horiz-adv-x="1131" 
d="M310 0h-267v64l87 2v528l-87 2v64h264c196 0 312 -100 312 -320c0 -221 -111 -340 -309 -340zM296 594h-93v-528h93c174 0 246 94 246 268c0 176 -72 260 -246 260zM941 571h-74l-98 144v15h65l70 -102l72 102h63v-15zM1086 0h-383v62l292 374h-209l-2 -84h-63v148h365
v-60l-294 -376h229l2 84h63v-148z" />
    <glyph glyph-name="uni01C7" unicode="&#x1c7;" horiz-adv-x="854" 
d="M534 0h-491v64l88 2v528l-88 2v64h251v-64l-90 -2v-529h263l2 124h65v-189zM539 -180c-22 0 -40 2 -60 7v68c16 -4 38 -6 55 -6c87 0 126 43 126 145v560l-88 2v64h249v-64l-88 -2v-568c0 -134 -65 -206 -194 -206z" />
    <glyph glyph-name="uni01CA" unicode="&#x1ca;" horiz-adv-x="1045" 
d="M293 64v-64h-250v64l88 2v528l-88 2v64h178l317 -553v487l-75 2v64h234v-64l-88 -2v-594h-89l-318 555v-489zM730 -180c-22 0 -40 2 -60 7v68c16 -4 38 -6 55 -6c87 0 126 43 126 145v560l-88 2v64h249v-64l-88 -2v-568c0 -134 -65 -206 -194 -206z" />
    <glyph glyph-name="uni01F1" unicode="&#x1f1;" horiz-adv-x="1211" 
d="M310 0h-267v64l87 2v528l-87 2v64h264c196 0 312 -100 312 -320c0 -221 -111 -340 -309 -340zM296 594h-93v-528h93c174 0 246 94 246 268c0 176 -72 260 -246 260zM1166 0h-464v59l375 536h-288l-2 -111h-67v176h446v-59l-375 -536h308l2 106h65v-171z" />
    <glyph glyph-name="uni01F2" unicode="&#x1f2;" horiz-adv-x="1131" 
d="M310 0h-267v64l87 2v528l-87 2v64h264c196 0 312 -100 312 -320c0 -221 -111 -340 -309 -340zM296 594h-93v-528h93c174 0 246 94 246 268c0 176 -72 260 -246 260zM1086 0h-383v62l292 374h-209l-2 -84h-63v148h365v-60l-294 -376h229l2 84h63v-148z" />
    <glyph glyph-name="uni01C8" unicode="&#x1c8;" horiz-adv-x="797" 
d="M534 0h-491v64l88 2v528l-88 2v64h251v-64l-90 -2v-529h263l2 124h65v-189zM631 622c0 30 23 53 52 53c31 0 54 -23 54 -53c0 -28 -23 -51 -54 -51c-29 0 -52 23 -52 51zM537 -235c-18 0 -41 2 -55 7v66c14 -2 32 -4 47 -4c84 0 120 37 120 141v461h-76v25l15 39h141
l-10 -56v-481c0 -136 -65 -198 -182 -198z" />
    <glyph glyph-name="uni01CB" unicode="&#x1cb;" horiz-adv-x="962" 
d="M293 64v-64h-250v64l88 2v528l-88 2v64h178l317 -553v487l-75 2v64h234v-64l-88 -2v-594h-89l-318 555v-489zM796 622c0 30 23 53 52 53c31 0 54 -23 54 -53c0 -28 -23 -51 -54 -51c-29 0 -52 23 -52 51zM702 -235c-18 0 -41 2 -55 7v66c14 -2 32 -4 47 -4
c84 0 120 37 120 141v461h-76v25l15 39h141l-10 -56v-481c0 -136 -65 -198 -182 -198z" />
    <glyph glyph-name="uni021C" unicode="&#x21c;" horiz-adv-x="537" 
d="M224 -10c-68 0 -139 13 -180 34v77c60 -27 118 -39 181 -39c116 0 186 52 186 137c0 72 -50 124 -148 124h-106v67h85c14 0 48 -1 61 -2l96 204h-281l-2 -108h-67v176h430v-61l-108 -228c74 -29 116 -90 116 -171c0 -127 -98 -210 -263 -210z" />
    <glyph glyph-name="uni01EE" unicode="&#x1ee;" horiz-adv-x="537" 
d="M290 712h-74l-98 124v15h66l69 -83l71 83h64v-15zM224 -10c-68 0 -139 13 -180 34v77c60 -27 118 -39 181 -39c116 0 186 52 186 137c0 72 -50 124 -148 124h-106v67h85c14 0 48 -1 61 -2l96 204h-281l-2 -108h-67v176h430v-61l-108 -228c74 -29 116 -90 116 -171
c0 -127 -98 -210 -263 -210z" />
    <glyph glyph-name="uni018E" unicode="&#x18e;" horiz-adv-x="575" 
d="M49 0v171h65l2 -105h256v240h-233v65h233v223h-249l-2 -110h-67v176h478v-64l-87 -2v-528l87 -2v-64h-483z" />
    <glyph glyph-name="AE" unicode="&#xc6;" horiz-adv-x="887" 
d="M220 0h-213v64l58 2l340 594h428v-176h-67l-2 110h-249v-223h233v-65h-233v-240h256l2 105h65v-171h-471v64l75 2v146h-212l-83 -146l73 -2v-64zM442 595l-176 -319h176v319z" />
    <glyph glyph-name="AEacute" unicode="&#x1fc;" horiz-adv-x="886" 
d="M220 0h-213v64l58 2l340 594h428v-176h-67l-2 110h-249v-223h233v-65h-233v-240h256l2 105h65v-171h-471v64l75 2v146h-212l-83 -146l73 -2v-64zM442 595l-176 -319h176v319zM688 851h79v-15l-106 -124h-64v15z" />
    <glyph glyph-name="AEmacron" unicode="&#x1e2;" horiz-adv-x="886" 
d="M220 0h-213v64l58 2l340 594h428v-176h-67l-2 110h-249v-223h233v-65h-233v-240h256l2 105h65v-171h-471v64l75 2v146h-212l-83 -146l73 -2v-64zM442 595l-176 -319h176v319zM502 740v63h234v-63h-234z" />
    <glyph glyph-name="OE" unicode="&#x152;" horiz-adv-x="886" 
d="M367 66h74v528h-74c-159 0 -243 -98 -243 -264c0 -178 83 -264 243 -264zM837 0h-467c-216 0 -322 111 -322 327c0 202 95 333 323 333h461v-176h-67l-2 110h-249v-223h201v-65h-201v-240h256l2 105h65v-171z" />
    <glyph glyph-name="IJ" unicode="&#x132;" horiz-adv-x="650" 
d="M292 0h-249v64l88 2v528l-88 2v64h249v-64l-88 -2v-528l88 -2v-64zM335 -180c-22 0 -40 2 -60 7v68c16 -4 38 -6 55 -6c87 0 126 43 126 145v560l-88 2v64h249v-64l-88 -2v-568c0 -134 -65 -206 -194 -206z" />
    <glyph glyph-name="IJ.alt" horiz-adv-x="711" 
d="M292 0h-249v64l88 2v528l-88 2v64h249v-64l-88 -2v-528l88 -2v-64zM417 -4c-22 0 -45 2 -55 6v70c6 -2 28 -4 45 -4c87 0 116 26 116 131v395l-88 2v64h249v-64l-88 -2v-408c0 -137 -53 -190 -179 -190z" />
    <glyph glyph-name="Iacute_Jacute" horiz-adv-x="650" 
d="M292 0h-249v64l88 2v528l-88 2v64h249v-64l-88 -2v-528l88 -2v-64zM227 851h79v-15l-106 -124h-64v15zM335 -180c-22 0 -40 2 -60 7v68c16 -4 38 -6 55 -6c87 0 126 43 126 145v560l-88 2v64h249v-64l-88 -2v-568c0 -134 -65 -206 -194 -206zM543 851h79v-15l-106 -124
h-64v15z" />
    <glyph glyph-name="Iacute_Jacute.alt" horiz-adv-x="711" 
d="M227 851h79v-15l-106 -124h-64v15zM292 0h-249v64l88 2v528l-88 2v64h249v-64l-88 -2v-528l88 -2v-64zM417 -4c-22 0 -45 2 -55 6v70c6 -2 28 -4 45 -4c87 0 116 26 116 131v395l-88 2v64h249v-64l-88 -2v-408c0 -137 -53 -190 -179 -190zM621 851h79v-15l-106 -124h-64
v15z" />
    <glyph glyph-name="aacute" unicode="&#xe1;" horiz-adv-x="476" 
d="M409 -10c-42 0 -71 22 -80 59c-25 -36 -72 -59 -132 -59c-88 0 -156 58 -156 147c0 101 65 157 211 157h73v35c0 86 -31 115 -114 115c-22 0 -52 -3 -78 -9l-2 -83h-62v130c41 18 100 28 148 28c117 0 178 -56 178 -165v-242c0 -31 9 -48 37 -48c14 0 26 4 38 12v-63
c-17 -10 -36 -14 -61 -14zM213 55c48 0 89 20 112 53v126h-64c-109 0 -148 -36 -148 -93c0 -55 38 -86 100 -86zM258 730h74v-15l-79 -144h-62v15z" />
    <glyph glyph-name="agrave" unicode="&#xe0;" horiz-adv-x="476" 
d="M409 -10c-42 0 -71 22 -80 59c-25 -36 -72 -59 -132 -59c-88 0 -156 58 -156 147c0 101 65 157 211 157h73v35c0 86 -31 115 -114 115c-22 0 -52 -3 -78 -9l-2 -83h-62v130c41 18 100 28 148 28c117 0 178 -56 178 -165v-242c0 -31 9 -48 37 -48c14 0 26 4 38 12v-63
c-17 -10 -36 -14 -61 -14zM213 55c48 0 89 20 112 53v126h-64c-109 0 -148 -36 -148 -93c0 -55 38 -86 100 -86zM116 730h74l67 -144v-15h-62l-79 144v15z" />
    <glyph glyph-name="acircumflex" unicode="&#xe2;" horiz-adv-x="476" 
d="M409 -10c-42 0 -71 22 -80 59c-25 -36 -72 -59 -132 -59c-88 0 -156 58 -156 147c0 101 65 157 211 157h73v35c0 86 -31 115 -114 115c-22 0 -52 -3 -78 -9l-2 -83h-62v130c41 18 100 28 148 28c117 0 178 -56 178 -165v-242c0 -31 9 -48 37 -48c14 0 26 4 38 12v-63
c-17 -10 -36 -14 -61 -14zM213 55c48 0 89 20 112 53v126h-64c-109 0 -148 -36 -148 -93c0 -55 38 -86 100 -86zM160 571h-65v15l98 144h74l98 -144v-15h-63l-72 102z" />
    <glyph glyph-name="adieresis" unicode="&#xe4;" horiz-adv-x="476" 
d="M409 -10c-42 0 -71 22 -80 59c-25 -36 -72 -59 -132 -59c-88 0 -156 58 -156 147c0 101 65 157 211 157h73v35c0 86 -31 115 -114 115c-22 0 -52 -3 -78 -9l-2 -83h-62v130c41 18 100 28 148 28c117 0 178 -56 178 -165v-242c0 -31 9 -48 37 -48c14 0 26 4 38 12v-63
c-17 -10 -36 -14 -61 -14zM213 55c48 0 89 20 112 53v126h-64c-109 0 -148 -36 -148 -93c0 -55 38 -86 100 -86zM88 622c0 30 23 53 52 53c31 0 54 -23 54 -53c0 -28 -23 -51 -54 -51c-29 0 -52 23 -52 51zM257 622c0 30 23 53 52 53c31 0 54 -23 54 -53
c0 -28 -23 -51 -54 -51c-29 0 -52 23 -52 51z" />
    <glyph glyph-name="atilde" unicode="&#xe3;" horiz-adv-x="476" 
d="M409 -10c-42 0 -71 22 -80 59c-25 -36 -72 -59 -132 -59c-88 0 -156 58 -156 147c0 101 65 157 211 157h73v35c0 86 -31 115 -114 115c-22 0 -52 -3 -78 -9l-2 -83h-62v130c41 18 100 28 148 28c117 0 178 -56 178 -165v-242c0 -31 9 -48 37 -48c14 0 26 4 38 12v-63
c-17 -10 -36 -14 -61 -14zM213 55c48 0 89 20 112 53v126h-64c-109 0 -148 -36 -148 -93c0 -55 38 -86 100 -86zM100 566v8c0 62 26 101 79 101c22 0 40 -9 59 -22c19 -14 28 -22 42 -22c17 0 25 19 25 48h59v-8c0 -62 -26 -100 -80 -100c-21 0 -37 7 -57 21
c-20 15 -28 22 -42 22c-17 0 -25 -19 -25 -48h-60z" />
    <glyph glyph-name="aring" unicode="&#xe5;" horiz-adv-x="476" 
d="M409 -10c-42 0 -71 22 -80 59c-25 -36 -72 -59 -132 -59c-88 0 -156 58 -156 147c0 101 65 157 211 157h73v35c0 86 -31 115 -114 115c-22 0 -52 -3 -78 -9l-2 -83h-62v130c41 18 100 28 148 28c117 0 178 -56 178 -165v-242c0 -31 9 -48 37 -48c14 0 26 4 38 12v-63
c-17 -10 -36 -14 -61 -14zM213 55c48 0 89 20 112 53v126h-64c-109 0 -148 -36 -148 -93c0 -55 38 -86 100 -86zM144 655c0 47 38 85 85 85s85 -38 85 -85s-38 -84 -85 -84s-85 37 -85 84zM188 655c0 -23 15 -43 41 -43s41 20 41 43s-15 43 -41 43s-41 -20 -41 -43z" />
    <glyph glyph-name="abreve" unicode="&#x103;" horiz-adv-x="476" 
d="M409 -10c-42 0 -71 22 -80 59c-25 -36 -72 -59 -132 -59c-88 0 -156 58 -156 147c0 101 65 157 211 157h73v35c0 86 -31 115 -114 115c-22 0 -52 -3 -78 -9l-2 -83h-62v130c41 18 100 28 148 28c117 0 178 -56 178 -165v-242c0 -31 9 -48 37 -48c14 0 26 4 38 12v-63
c-17 -10 -36 -14 -61 -14zM213 55c48 0 89 20 112 53v126h-64c-109 0 -148 -36 -148 -93c0 -55 38 -86 100 -86zM232 571c-79 0 -126 50 -126 122h63c2 -43 28 -66 63 -66s61 23 63 66h63c0 -72 -47 -122 -126 -122z" />
    <glyph glyph-name="amacron" unicode="&#x101;" horiz-adv-x="476" 
d="M409 -10c-42 0 -71 22 -80 59c-25 -36 -72 -59 -132 -59c-88 0 -156 58 -156 147c0 101 65 157 211 157h73v35c0 86 -31 115 -114 115c-22 0 -52 -3 -78 -9l-2 -83h-62v130c41 18 100 28 148 28c117 0 178 -56 178 -165v-242c0 -31 9 -48 37 -48c14 0 26 4 38 12v-63
c-17 -10 -36 -14 -61 -14zM213 55c48 0 89 20 112 53v126h-64c-109 0 -148 -36 -148 -93c0 -55 38 -86 100 -86zM113 594v62h224v-62h-224z" />
    <glyph glyph-name="aogonek" unicode="&#x105;" horiz-adv-x="476" 
d="M387 -240c-74 0 -118 39 -118 101c0 50 27 97 97 138c-18 10 -31 27 -37 50c-25 -36 -72 -59 -132 -59c-88 0 -156 58 -156 147c0 101 65 157 211 157h73v35c0 86 -31 115 -114 115c-22 0 -52 -3 -78 -9l-2 -83h-62v130c41 18 100 28 148 28c117 0 178 -56 178 -165v-242
c0 -31 9 -48 37 -48c14 0 26 4 38 12v-60l-22 -9c-81 -35 -117 -80 -117 -124c0 -41 26 -58 62 -58c21 0 39 5 58 14v-55c-13 -10 -41 -15 -64 -15zM213 55c48 0 89 20 112 53v126h-64c-109 0 -148 -36 -148 -93c0 -55 38 -86 100 -86z" />
    <glyph glyph-name="uni01FB" unicode="&#x1fb;" horiz-adv-x="476" 
d="M409 -10c-42 0 -71 22 -80 59c-25 -36 -72 -59 -132 -59c-88 0 -156 58 -156 147c0 101 65 157 211 157h73v35c0 86 -31 115 -114 115c-22 0 -52 -3 -78 -9l-2 -83h-62v130c41 18 100 28 148 28c117 0 178 -56 178 -165v-242c0 -31 9 -48 37 -48c14 0 26 4 38 12v-63
c-17 -10 -36 -14 -61 -14zM213 55c48 0 89 20 112 53v126h-64c-109 0 -148 -36 -148 -93c0 -55 38 -86 100 -86zM144 655c0 47 38 85 85 85s85 -38 85 -85s-38 -84 -85 -84s-85 37 -85 84zM287 916h79v-15l-106 -124h-64v15zM188 655c0 -23 15 -43 41 -43s41 20 41 43
s-15 43 -41 43s-41 -20 -41 -43z" />
    <glyph glyph-name="uni01CE" unicode="&#x1ce;" horiz-adv-x="476" 
d="M409 -10c-42 0 -71 22 -80 59c-25 -36 -72 -59 -132 -59c-88 0 -156 58 -156 147c0 101 65 157 211 157h73v35c0 86 -31 115 -114 115c-22 0 -52 -3 -78 -9l-2 -83h-62v130c41 18 100 28 148 28c117 0 178 -56 178 -165v-242c0 -31 9 -48 37 -48c14 0 26 4 38 12v-63
c-17 -10 -36 -14 -61 -14zM213 55c48 0 89 20 112 53v126h-64c-109 0 -148 -36 -148 -93c0 -55 38 -86 100 -86zM262 571h-74l-98 144v15h65l70 -102l72 102h63v-15z" />
    <glyph glyph-name="uni0227" unicode="&#x227;" horiz-adv-x="476" 
d="M409 -10c-42 0 -71 22 -80 59c-25 -36 -72 -59 -132 -59c-88 0 -156 58 -156 147c0 101 65 157 211 157h73v35c0 86 -31 115 -114 115c-22 0 -52 -3 -78 -9l-2 -83h-62v130c41 18 100 28 148 28c117 0 178 -56 178 -165v-242c0 -31 9 -48 37 -48c14 0 26 4 38 12v-63
c-17 -10 -36 -14 -61 -14zM213 55c48 0 89 20 112 53v126h-64c-109 0 -148 -36 -148 -93c0 -55 38 -86 100 -86zM169 622c0 30 23 53 52 53c31 0 54 -23 54 -53c0 -28 -23 -51 -54 -51c-29 0 -52 23 -52 51z" />
    <glyph glyph-name="uni1EA7" unicode="&#x1ea7;" horiz-adv-x="476" 
d="M409 -10c-42 0 -71 22 -80 59c-25 -36 -72 -59 -132 -59c-88 0 -156 58 -156 147c0 101 65 157 211 157h73v35c0 86 -31 115 -114 115c-22 0 -52 -3 -78 -9l-2 -83h-62v130c41 18 100 28 148 28c117 0 178 -56 178 -165v-242c0 -31 9 -48 37 -48c14 0 26 4 38 12v-63
c-17 -10 -36 -14 -61 -14zM213 55c48 0 89 20 112 53v126h-64c-109 0 -148 -36 -148 -93c0 -55 38 -86 100 -86zM161 571h-69v15l97 110h76l97 -110v-15h-67l-68 73zM250 770h74l78 -110v-15h-58l-94 110v15z" />
    <glyph glyph-name="uni1EA5" unicode="&#x1ea5;" horiz-adv-x="476" 
d="M409 -10c-42 0 -71 22 -80 59c-25 -36 -72 -59 -132 -59c-88 0 -156 58 -156 147c0 101 65 157 211 157h73v35c0 86 -31 115 -114 115c-22 0 -52 -3 -78 -9l-2 -83h-62v130c41 18 100 28 148 28c117 0 178 -56 178 -165v-242c0 -31 9 -48 37 -48c14 0 26 4 38 12v-63
c-17 -10 -36 -14 -61 -14zM213 55c48 0 89 20 112 53v126h-64c-109 0 -148 -36 -148 -93c0 -55 38 -86 100 -86zM161 571h-69v15l97 110h76l97 -110v-15h-67l-68 73zM408 770h74v-15l-94 -110h-58v15z" />
    <glyph glyph-name="uni1EAB" unicode="&#x1eab;" horiz-adv-x="476" 
d="M409 -10c-42 0 -71 22 -80 59c-25 -36 -72 -59 -132 -59c-88 0 -156 58 -156 147c0 101 65 157 211 157h73v35c0 86 -31 115 -114 115c-22 0 -52 -3 -78 -9l-2 -83h-62v130c41 18 100 28 148 28c117 0 178 -56 178 -165v-242c0 -31 9 -48 37 -48c14 0 26 4 38 12v-63
c-17 -10 -36 -14 -61 -14zM213 55c48 0 89 20 112 53v126h-64c-109 0 -148 -36 -148 -93c0 -55 38 -86 100 -86zM222 737c-20 15 -28 22 -42 22c-17 0 -25 -19 -25 -48h-60v8c0 62 26 101 79 101c22 0 40 -9 59 -22c19 -14 28 -22 42 -22c17 0 25 19 25 48h59v-8
c0 -62 -26 -100 -80 -100c-21 0 -37 7 -57 21zM161 571h-69v15l97 110h76l97 -110v-15h-67l-68 73z" />
    <glyph glyph-name="uni1EA9" unicode="&#x1ea9;" horiz-adv-x="476" 
d="M409 -10c-42 0 -71 22 -80 59c-25 -36 -72 -59 -132 -59c-88 0 -156 58 -156 147c0 101 65 157 211 157h73v35c0 86 -31 115 -114 115c-22 0 -52 -3 -78 -9l-2 -83h-62v130c41 18 100 28 148 28c117 0 178 -56 178 -165v-242c0 -31 9 -48 37 -48c14 0 26 4 38 12v-63
c-17 -10 -36 -14 -61 -14zM213 55c48 0 89 20 112 53v126h-64c-109 0 -148 -36 -148 -93c0 -55 38 -86 100 -86zM161 571h-69v15l97 110h76l97 -110v-15h-67l-68 73zM315 678c28 16 49 34 49 55c0 18 -12 30 -34 30c-12 0 -25 -3 -37 -8v49c15 7 30 11 52 11
c46 0 80 -31 80 -73c0 -40 -30 -77 -75 -102z" />
    <glyph glyph-name="uni1EAD" unicode="&#x1ead;" horiz-adv-x="476" 
d="M409 -10c-42 0 -71 22 -80 59c-25 -36 -72 -59 -132 -59c-88 0 -156 58 -156 147c0 101 65 157 211 157h73v35c0 86 -31 115 -114 115c-22 0 -52 -3 -78 -9l-2 -83h-62v130c41 18 100 28 148 28c117 0 178 -56 178 -165v-242c0 -31 9 -48 37 -48c14 0 26 4 38 12v-63
c-17 -10 -36 -14 -61 -14zM213 55c48 0 89 20 112 53v126h-64c-109 0 -148 -36 -148 -93c0 -55 38 -86 100 -86zM157 571h-65v15l98 144h74l98 -144v-15h-63l-72 102zM174 -125c0 30 23 53 52 53c31 0 54 -23 54 -53c0 -28 -23 -51 -54 -51c-29 0 -52 23 -52 51z" />
    <glyph glyph-name="uni1EB1" unicode="&#x1eb1;" horiz-adv-x="476" 
d="M409 -10c-42 0 -71 22 -80 59c-25 -36 -72 -59 -132 -59c-88 0 -156 58 -156 147c0 101 65 157 211 157h73v35c0 86 -31 115 -114 115c-22 0 -52 -3 -78 -9l-2 -83h-62v130c41 18 100 28 148 28c117 0 178 -56 178 -165v-242c0 -31 9 -48 37 -48c14 0 26 4 38 12v-63
c-17 -10 -36 -14 -61 -14zM213 55c48 0 89 20 112 53v126h-64c-109 0 -148 -36 -148 -93c0 -55 38 -86 100 -86zM228 571c-81 0 -127 44 -133 112h61c11 -40 38 -57 72 -57s61 17 72 57h61c-8 -65 -57 -112 -133 -112zM116 786v15h72l73 -120v-15h-57z" />
    <glyph glyph-name="uni1EAF" unicode="&#x1eaf;" horiz-adv-x="476" 
d="M409 -10c-42 0 -71 22 -80 59c-25 -36 -72 -59 -132 -59c-88 0 -156 58 -156 147c0 101 65 157 211 157h73v35c0 86 -31 115 -114 115c-22 0 -52 -3 -78 -9l-2 -83h-62v130c41 18 100 28 148 28c117 0 178 -56 178 -165v-242c0 -31 9 -48 37 -48c14 0 26 4 38 12v-63
c-17 -10 -36 -14 -61 -14zM213 55c48 0 89 20 112 53v126h-64c-109 0 -148 -36 -148 -93c0 -55 38 -86 100 -86zM229 571c-81 0 -127 44 -133 112h61c11 -40 38 -57 72 -57s61 17 72 57h61c-8 -65 -57 -112 -133 -112zM268 801h72v-15l-88 -120h-57v15z" />
    <glyph glyph-name="uni1EB5" unicode="&#x1eb5;" horiz-adv-x="476" 
d="M409 -10c-42 0 -71 22 -80 59c-25 -36 -72 -59 -132 -59c-88 0 -156 58 -156 147c0 101 65 157 211 157h73v35c0 86 -31 115 -114 115c-22 0 -52 -3 -78 -9l-2 -83h-62v130c41 18 100 28 148 28c117 0 178 -56 178 -165v-242c0 -31 9 -48 37 -48c14 0 26 4 38 12v-63
c-17 -10 -36 -14 -61 -14zM213 55c48 0 89 20 112 53v126h-64c-109 0 -148 -36 -148 -93c0 -55 38 -86 100 -86zM103 711v8c0 56 30 92 73 92c19 0 39 -9 59 -20s28 -17 41 -17c15 0 21 15 21 42h57v-8c0 -57 -28 -92 -72 -92c-19 0 -42 9 -60 21s-28 15 -38 15
c-14 0 -22 -14 -22 -41h-59zM229 571c-81 0 -125 44 -131 112h62c10 -40 36 -57 69 -57s59 17 69 57h62c-8 -65 -55 -112 -131 -112z" />
    <glyph glyph-name="uni1EB3" unicode="&#x1eb3;" horiz-adv-x="476" 
d="M409 -10c-42 0 -71 22 -80 59c-25 -36 -72 -59 -132 -59c-88 0 -156 58 -156 147c0 101 65 157 211 157h73v35c0 86 -31 115 -114 115c-22 0 -52 -3 -78 -9l-2 -83h-62v130c41 18 100 28 148 28c117 0 178 -56 178 -165v-242c0 -31 9 -48 37 -48c14 0 26 4 38 12v-63
c-17 -10 -36 -14 -61 -14zM213 55c48 0 89 20 112 53v126h-64c-109 0 -148 -36 -148 -93c0 -55 38 -86 100 -86zM229 571c-81 0 -127 44 -133 112h61c11 -40 38 -57 72 -57s61 17 72 57h61c-8 -65 -57 -112 -133 -112zM167 770v47c14 7 28 10 50 10c44 0 76 -29 76 -70
c0 -38 -28 -74 -72 -98l-33 37c27 15 47 33 47 53c0 17 -12 29 -33 29c-11 0 -24 -3 -35 -8z" />
    <glyph glyph-name="uni1EB7" unicode="&#x1eb7;" horiz-adv-x="476" 
d="M409 -10c-42 0 -71 22 -80 59c-25 -36 -72 -59 -132 -59c-88 0 -156 58 -156 147c0 101 65 157 211 157h73v35c0 86 -31 115 -114 115c-22 0 -52 -3 -78 -9l-2 -83h-62v130c41 18 100 28 148 28c117 0 178 -56 178 -165v-242c0 -31 9 -48 37 -48c14 0 26 4 38 12v-63
c-17 -10 -36 -14 -61 -14zM213 55c48 0 89 20 112 53v126h-64c-109 0 -148 -36 -148 -93c0 -55 38 -86 100 -86zM229 571c-79 0 -126 50 -126 122h63c2 -43 28 -66 63 -66s61 23 63 66h63c0 -72 -47 -122 -126 -122zM174 -125c0 30 23 53 52 53c31 0 54 -23 54 -53
c0 -28 -23 -51 -54 -51c-29 0 -52 23 -52 51z" />
    <glyph glyph-name="uni1EA3" unicode="&#x1ea3;" horiz-adv-x="476" 
d="M409 -10c-42 0 -71 22 -80 59c-25 -36 -72 -59 -132 -59c-88 0 -156 58 -156 147c0 101 65 157 211 157h73v35c0 86 -31 115 -114 115c-22 0 -52 -3 -78 -9l-2 -83h-62v130c41 18 100 28 148 28c117 0 178 -56 178 -165v-242c0 -31 9 -48 37 -48c14 0 26 4 38 12v-63
c-17 -10 -36 -14 -61 -14zM213 55c48 0 89 20 112 53v126h-64c-109 0 -148 -36 -148 -93c0 -55 38 -86 100 -86zM166 595c34 20 63 43 63 72c0 23 -17 40 -44 40c-14 0 -31 -4 -46 -9v52c18 8 37 13 64 13c53 0 93 -36 93 -86c0 -52 -37 -91 -93 -122z" />
    <glyph glyph-name="uni1EA1" unicode="&#x1ea1;" horiz-adv-x="476" 
d="M409 -10c-42 0 -71 22 -80 59c-25 -36 -72 -59 -132 -59c-88 0 -156 58 -156 147c0 101 65 157 211 157h73v35c0 86 -31 115 -114 115c-22 0 -52 -3 -78 -9l-2 -83h-62v130c41 18 100 28 148 28c117 0 178 -56 178 -165v-242c0 -31 9 -48 37 -48c14 0 26 4 38 12v-63
c-17 -10 -36 -14 -61 -14zM213 55c48 0 89 20 112 53v126h-64c-109 0 -148 -36 -148 -93c0 -55 38 -86 100 -86zM174 -125c0 30 23 53 52 53c31 0 54 -23 54 -53c0 -28 -23 -51 -54 -51c-29 0 -52 23 -52 51z" />
    <glyph glyph-name="uni1E05" unicode="&#x1e05;" horiz-adv-x="534" 
d="M259 53c95 0 158 70 158 208c0 119 -50 180 -134 180c-50 0 -99 -28 -133 -69v-286c27 -21 61 -33 109 -33zM263 -10c-59 0 -100 16 -126 38l-18 -36h-59l20 106v568h-75v25l15 39h140l-10 -56v-239c29 42 83 75 146 75c126 0 194 -89 194 -245
c0 -177 -89 -275 -227 -275zM207 -125c0 30 23 53 52 53c31 0 54 -23 54 -53c0 -28 -23 -51 -54 -51c-29 0 -52 23 -52 51z" />
    <glyph glyph-name="uni1E07" unicode="&#x1e07;" horiz-adv-x="534" 
d="M259 53c95 0 158 70 158 208c0 119 -50 180 -134 180c-50 0 -99 -28 -133 -69v-286c27 -21 61 -33 109 -33zM263 -10c-59 0 -100 16 -126 38l-18 -36h-59l20 106v568h-75v25l15 39h140l-10 -56v-239c29 42 83 75 146 75c126 0 194 -89 194 -245
c0 -177 -89 -275 -227 -275zM157 -144v62h224v-62h-224z" />
    <glyph glyph-name="uni1E03" unicode="&#x1e03;" horiz-adv-x="534" 
d="M259 53c95 0 158 70 158 208c0 119 -50 180 -134 180c-50 0 -99 -28 -133 -69v-286c27 -21 61 -33 109 -33zM263 -10c-59 0 -100 16 -126 38l-18 -36h-59l20 106v568h-75v25l15 39h140l-10 -56v-239c29 42 83 75 146 75c126 0 194 -89 194 -245
c0 -177 -89 -275 -227 -275zM57 845c0 30 23 53 52 53c31 0 54 -23 54 -53c0 -28 -23 -51 -54 -51c-29 0 -52 23 -52 51z" />
    <glyph glyph-name="ccedilla" unicode="&#xe7;" horiz-adv-x="442" 
d="M220 -53c71 0 110 -37 110 -87c0 -58 -42 -100 -114 -100c-32 0 -61 5 -82 14v55c23 -10 47 -15 74 -15c38 0 63 15 63 44c0 28 -24 44 -61 44c-11 0 -26 -2 -38 -4l-17 35l23 73c-86 32 -135 111 -135 237c0 163 80 267 233 267c47 0 95 -8 122 -22v-136h-63l-2 86
c-16 3 -35 4 -50 4c-105 0 -167 -67 -167 -192c0 -138 66 -192 169 -192c37 0 76 9 113 30v-68c-21 -16 -74 -30 -122 -30c-15 0 -29 1 -43 3l-14 -46h1z" />
    <glyph glyph-name="cacute" unicode="&#x107;" horiz-adv-x="442" 
d="M281 730h74v-15l-79 -144h-62v15zM398 20c-21 -16 -74 -30 -122 -30c-146 0 -233 86 -233 253c0 163 80 267 233 267c47 0 95 -8 122 -22v-136h-63l-2 86c-16 3 -35 4 -50 4c-105 0 -167 -67 -167 -192c0 -138 66 -192 169 -192c37 0 76 9 113 30v-68z" />
    <glyph glyph-name="ccaron" unicode="&#x10d;" horiz-adv-x="442" 
d="M285 571h-74l-98 144v15h65l70 -102l72 102h63v-15zM398 20c-21 -16 -74 -30 -122 -30c-146 0 -233 86 -233 253c0 163 80 267 233 267c47 0 95 -8 122 -22v-136h-63l-2 86c-16 3 -35 4 -50 4c-105 0 -167 -67 -167 -192c0 -138 66 -192 169 -192c37 0 76 9 113 30v-68z
" />
    <glyph glyph-name="ccircumflex" unicode="&#x109;" horiz-adv-x="442" 
d="M175 571h-65v15l98 144h74l98 -144v-15h-63l-72 102zM398 20c-21 -16 -74 -30 -122 -30c-146 0 -233 86 -233 253c0 163 80 267 233 267c47 0 95 -8 122 -22v-136h-63l-2 86c-16 3 -35 4 -50 4c-105 0 -167 -67 -167 -192c0 -138 66 -192 169 -192c37 0 76 9 113 30v-68z
" />
    <glyph glyph-name="cdotaccent" unicode="&#x10b;" horiz-adv-x="442" 
d="M398 20c-21 -16 -74 -30 -122 -30c-146 0 -233 86 -233 253c0 163 80 267 233 267c47 0 95 -8 122 -22v-136h-63l-2 86c-16 3 -35 4 -50 4c-105 0 -167 -67 -167 -192c0 -138 66 -192 169 -192c37 0 76 9 113 30v-68zM193 622c0 30 23 53 52 53c31 0 54 -23 54 -53
c0 -28 -23 -51 -54 -51c-29 0 -52 23 -52 51z" />
    <glyph glyph-name="dcaron" unicode="&#x10f;" horiz-adv-x="554" 
d="M463 -10c-41 0 -68 19 -78 54c-29 -34 -80 -54 -135 -54c-121 0 -206 80 -206 253c0 167 77 267 227 267c42 0 83 -11 109 -29v185h-86v25l15 39h151l-10 -56v-573c0 -31 11 -46 36 -46c14 0 30 5 39 12v-63c-17 -10 -36 -14 -62 -14zM264 57c45 0 92 16 116 44v318
c-27 16 -62 23 -103 23c-105 0 -160 -67 -160 -193c0 -137 56 -192 147 -192zM523 770h71v-15l-34 -154h-53v15z" />
    <glyph glyph-name="dcroat" unicode="&#x111;" horiz-adv-x="546" 
d="M227 566v60h153v40h-86v25l15 39h151l-10 -56v-48h76v-60h-76v-465c0 -31 12 -46 37 -46c14 0 30 5 39 12v-63c-17 -10 -36 -14 -62 -14c-41 0 -69 19 -79 54c-29 -34 -80 -54 -135 -54c-121 0 -206 80 -206 253c0 167 77 267 227 267c42 0 83 -11 109 -29v85h-153z
M264 57c45 0 92 16 116 44v318c-27 16 -62 23 -103 23c-105 0 -160 -67 -160 -193c0 -137 56 -192 147 -192z" />
    <glyph glyph-name="uni1E0F" unicode="&#x1e0f;" horiz-adv-x="546" 
d="M463 -10c-41 0 -68 19 -78 54c-29 -34 -80 -54 -135 -54c-121 0 -206 80 -206 253c0 167 77 267 227 267c42 0 83 -11 109 -29v185h-86v25l15 39h151l-10 -56v-573c0 -31 11 -46 36 -46c14 0 30 5 39 12v-63c-17 -10 -36 -14 -62 -14zM264 57c45 0 92 16 116 44v318
c-27 16 -62 23 -103 23c-105 0 -160 -67 -160 -193c0 -137 56 -192 147 -192zM154 -144v62h224v-62h-224z" />
    <glyph glyph-name="uni1E0D" unicode="&#x1e0d;" horiz-adv-x="546" 
d="M463 -10c-41 0 -68 19 -78 54c-29 -34 -80 -54 -135 -54c-121 0 -206 80 -206 253c0 167 77 267 227 267c42 0 83 -11 109 -29v185h-86v25l15 39h151l-10 -56v-573c0 -31 11 -46 36 -46c14 0 30 5 39 12v-63c-17 -10 -36 -14 -62 -14zM264 57c45 0 92 16 116 44v318
c-27 16 -62 23 -103 23c-105 0 -160 -67 -160 -193c0 -137 56 -192 147 -192zM216 -125c0 30 23 53 52 53c31 0 54 -23 54 -53c0 -28 -23 -51 -54 -51c-29 0 -52 23 -52 51z" />
    <glyph glyph-name="uni1E0B" unicode="&#x1e0b;" horiz-adv-x="546" 
d="M463 -10c-41 0 -68 19 -78 54c-29 -34 -80 -54 -135 -54c-121 0 -206 80 -206 253c0 167 77 267 227 267c42 0 83 -11 109 -29v185h-86v25l15 39h151l-10 -56v-573c0 -31 11 -46 36 -46c14 0 30 5 39 12v-63c-17 -10 -36 -14 -62 -14zM264 57c45 0 92 16 116 44v318
c-27 16 -62 23 -103 23c-105 0 -160 -67 -160 -193c0 -137 56 -192 147 -192zM342 845c0 30 23 53 52 53c31 0 54 -23 54 -53c0 -28 -23 -51 -54 -51c-29 0 -52 23 -52 51z" />
    <glyph glyph-name="eacute" unicode="&#xe9;" horiz-adv-x="469" 
d="M276 -10c-142 0 -233 71 -233 247c0 158 70 273 205 273c111 0 177 -72 177 -197c0 -24 -4 -54 -10 -80h-299c3 -129 62 -175 165 -175c49 0 102 13 134 33v-69c-26 -17 -85 -32 -139 -32zM244 447c-74 0 -115 -59 -125 -153h234c1 7 1 15 1 23c0 85 -40 130 -110 130z
M275 730h74v-15l-79 -144h-62v15z" />
    <glyph glyph-name="egrave" unicode="&#xe8;" horiz-adv-x="469" 
d="M276 -10c-142 0 -233 71 -233 247c0 158 70 273 205 273c111 0 177 -72 177 -197c0 -24 -4 -54 -10 -80h-299c3 -129 62 -175 165 -175c49 0 102 13 134 33v-69c-26 -17 -85 -32 -139 -32zM244 447c-74 0 -115 -59 -125 -153h234c1 7 1 15 1 23c0 85 -40 130 -110 130z
M144 730h74l67 -144v-15h-62l-79 144v15z" />
    <glyph glyph-name="ecircumflex" unicode="&#xea;" horiz-adv-x="469" 
d="M276 -10c-142 0 -233 71 -233 247c0 158 70 273 205 273c111 0 177 -72 177 -197c0 -24 -4 -54 -10 -80h-299c3 -129 62 -175 165 -175c49 0 102 13 134 33v-69c-26 -17 -85 -32 -139 -32zM244 447c-74 0 -115 -59 -125 -153h234c1 7 1 15 1 23c0 85 -40 130 -110 130z
M169 571h-65v15l98 144h74l98 -144v-15h-63l-72 102z" />
    <glyph glyph-name="edieresis" unicode="&#xeb;" horiz-adv-x="469" 
d="M276 -10c-142 0 -233 71 -233 247c0 158 70 273 205 273c111 0 177 -72 177 -197c0 -24 -4 -54 -10 -80h-299c3 -129 62 -175 165 -175c49 0 102 13 134 33v-69c-26 -17 -85 -32 -139 -32zM244 447c-74 0 -115 -59 -125 -153h234c1 7 1 15 1 23c0 85 -40 130 -110 130z
M104 622c0 30 23 53 52 53c31 0 54 -23 54 -53c0 -28 -23 -51 -54 -51c-29 0 -52 23 -52 51zM273 622c0 30 23 53 52 53c31 0 54 -23 54 -53c0 -28 -23 -51 -54 -51c-29 0 -52 23 -52 51z" />
    <glyph glyph-name="ebreve" unicode="&#x115;" horiz-adv-x="469" 
d="M276 -10c-142 0 -233 71 -233 247c0 158 70 273 205 273c111 0 177 -72 177 -197c0 -24 -4 -54 -10 -80h-299c3 -129 62 -175 165 -175c49 0 102 13 134 33v-69c-26 -17 -85 -32 -139 -32zM244 447c-74 0 -115 -59 -125 -153h234c1 7 1 15 1 23c0 85 -40 130 -110 130z
M239 571c-79 0 -126 50 -126 122h63c2 -43 28 -66 63 -66s61 23 63 66h63c0 -72 -47 -122 -126 -122z" />
    <glyph glyph-name="ecaron" unicode="&#x11b;" horiz-adv-x="469" 
d="M276 -10c-142 0 -233 71 -233 247c0 158 70 273 205 273c111 0 177 -72 177 -197c0 -24 -4 -54 -10 -80h-299c3 -129 62 -175 165 -175c49 0 102 13 134 33v-69c-26 -17 -85 -32 -139 -32zM244 447c-74 0 -115 -59 -125 -153h234c1 7 1 15 1 23c0 85 -40 130 -110 130z
M275 571h-74l-98 144v15h65l70 -102l72 102h63v-15z" />
    <glyph glyph-name="edotaccent" unicode="&#x117;" horiz-adv-x="469" 
d="M276 -10c-142 0 -233 71 -233 247c0 158 70 273 205 273c111 0 177 -72 177 -197c0 -24 -4 -54 -10 -80h-299c3 -129 62 -175 165 -175c49 0 102 13 134 33v-69c-26 -17 -85 -32 -139 -32zM244 447c-74 0 -115 -59 -125 -153h234c1 7 1 15 1 23c0 85 -40 130 -110 130z
M184 622c0 30 23 53 52 53c31 0 54 -23 54 -53c0 -28 -23 -51 -54 -51c-29 0 -52 23 -52 51z" />
    <glyph glyph-name="emacron" unicode="&#x113;" horiz-adv-x="469" 
d="M276 -10c-142 0 -233 71 -233 247c0 158 70 273 205 273c111 0 177 -72 177 -197c0 -24 -4 -54 -10 -80h-299c3 -129 62 -175 165 -175c49 0 102 13 134 33v-69c-26 -17 -85 -32 -139 -32zM244 447c-74 0 -115 -59 -125 -153h234c1 7 1 15 1 23c0 85 -40 130 -110 130z
M128 594v62h224v-62h-224z" />
    <glyph glyph-name="uni1EBD" unicode="&#x1ebd;" horiz-adv-x="469" 
d="M276 -10c-142 0 -233 71 -233 247c0 158 70 273 205 273c111 0 177 -72 177 -197c0 -24 -4 -54 -10 -80h-299c3 -129 62 -175 165 -175c49 0 102 13 134 33v-69c-26 -17 -85 -32 -139 -32zM244 447c-74 0 -115 -59 -125 -153h234c1 7 1 15 1 23c0 85 -40 130 -110 130z
M109 566v8c0 62 26 101 79 101c22 0 40 -9 59 -22c19 -14 28 -22 42 -22c17 0 25 19 25 48h59v-8c0 -62 -26 -100 -80 -100c-21 0 -37 7 -57 21c-20 15 -28 22 -42 22c-17 0 -25 -19 -25 -48h-60z" />
    <glyph glyph-name="eogonek" unicode="&#x119;" horiz-adv-x="469" 
d="M309 -240c-66 0 -116 38 -116 101c0 51 27 93 78 129c-139 2 -228 73 -228 247c0 158 70 273 205 273c111 0 177 -72 177 -197c0 -24 -4 -54 -10 -80h-299c3 -129 62 -175 165 -175c49 0 102 13 134 34v-67c-17 -8 -36 -18 -51 -26c-42 -23 -109 -64 -109 -127
c0 -38 26 -56 64 -56c20 0 37 5 56 14v-55c-13 -9 -41 -15 -66 -15zM244 447c-74 0 -115 -59 -125 -153h234c1 7 1 15 1 23c0 85 -40 130 -110 130z" />
    <glyph glyph-name="uni0229" unicode="&#x229;" horiz-adv-x="470" 
d="M277 -10c-15 0 -29 1 -43 2l-14 -45h1c71 0 110 -32 110 -88c0 -61 -47 -99 -119 -99c-29 0 -57 5 -77 15v56c25 -11 46 -17 76 -17c37 0 61 15 61 44c0 28 -24 44 -61 44c-11 0 -26 -2 -38 -4l-17 35l23 71c-85 29 -135 101 -135 233c0 158 70 273 205 273
c111 0 177 -72 177 -197c0 -24 -4 -54 -10 -80h-299c3 -129 62 -175 165 -175c49 0 102 13 134 33v-69c-26 -17 -85 -32 -139 -32zM245 447c-74 0 -115 -59 -125 -153h234c1 7 1 15 1 23c0 85 -40 130 -110 130z" />
    <glyph glyph-name="uni1EC1" unicode="&#x1ec1;" horiz-adv-x="469" 
d="M276 -10c-142 0 -233 71 -233 247c0 158 70 273 205 273c111 0 177 -72 177 -197c0 -24 -4 -54 -10 -80h-299c3 -129 62 -175 165 -175c49 0 102 13 134 33v-69c-26 -17 -85 -32 -139 -32zM244 447c-74 0 -115 -59 -125 -153h234c1 7 1 15 1 23c0 85 -40 130 -110 130z
M174 571h-69v15l97 110h76l97 -110v-15h-67l-68 73zM263 770h74l78 -110v-15h-58l-94 110v15z" />
    <glyph glyph-name="uni1EBF" unicode="&#x1ebf;" horiz-adv-x="469" 
d="M276 -10c-142 0 -233 71 -233 247c0 158 70 273 205 273c111 0 177 -72 177 -197c0 -24 -4 -54 -10 -80h-299c3 -129 62 -175 165 -175c49 0 102 13 134 33v-69c-26 -17 -85 -32 -139 -32zM244 447c-74 0 -115 -59 -125 -153h234c1 7 1 15 1 23c0 85 -40 130 -110 130z
M174 571h-69v15l97 110h76l97 -110v-15h-67l-68 73zM421 770h74v-15l-94 -110h-58v15z" />
    <glyph glyph-name="uni1EC5" unicode="&#x1ec5;" horiz-adv-x="469" 
d="M276 -10c-142 0 -233 71 -233 247c0 158 70 273 205 273c111 0 177 -72 177 -197c0 -24 -4 -54 -10 -80h-299c3 -129 62 -175 165 -175c49 0 102 13 134 33v-69c-26 -17 -85 -32 -139 -32zM244 447c-74 0 -115 -59 -125 -153h234c1 7 1 15 1 23c0 85 -40 130 -110 130z
M235 737c-20 15 -28 22 -42 22c-17 0 -25 -19 -25 -48h-60v8c0 62 26 101 79 101c22 0 40 -9 59 -22c19 -14 28 -22 42 -22c17 0 25 19 25 48h59v-8c0 -62 -26 -100 -80 -100c-21 0 -37 7 -57 21zM174 571h-69v15l97 110h76l97 -110v-15h-67l-68 73z" />
    <glyph glyph-name="uni1EC3" unicode="&#x1ec3;" horiz-adv-x="469" 
d="M276 -10c-142 0 -233 71 -233 247c0 158 70 273 205 273c111 0 177 -72 177 -197c0 -24 -4 -54 -10 -80h-299c3 -129 62 -175 165 -175c49 0 102 13 134 33v-69c-26 -17 -85 -32 -139 -32zM244 447c-74 0 -115 -59 -125 -153h234c1 7 1 15 1 23c0 85 -40 130 -110 130z
M173 571h-69v15l97 110h76l97 -110v-15h-67l-68 73zM327 678c28 16 49 34 49 55c0 18 -12 30 -34 30c-12 0 -25 -3 -37 -8v49c15 7 30 11 52 11c46 0 80 -31 80 -73c0 -40 -30 -77 -75 -102z" />
    <glyph glyph-name="uni1EC7" unicode="&#x1ec7;" horiz-adv-x="469" 
d="M276 -10c-142 0 -233 71 -233 247c0 158 70 273 205 273c111 0 177 -72 177 -197c0 -24 -4 -54 -10 -80h-299c3 -129 62 -175 165 -175c49 0 102 13 134 33v-69c-26 -17 -85 -32 -139 -32zM244 447c-74 0 -115 -59 -125 -153h234c1 7 1 15 1 23c0 85 -40 130 -110 130z
M169 571h-65v15l98 144h74l98 -144v-15h-63l-72 102zM187 -125c0 30 23 53 52 53c31 0 54 -23 54 -53c0 -28 -23 -51 -54 -51c-29 0 -52 23 -52 51z" />
    <glyph glyph-name="uni1EBB" unicode="&#x1ebb;" horiz-adv-x="469" 
d="M276 -10c-142 0 -233 71 -233 247c0 158 70 273 205 273c111 0 177 -72 177 -197c0 -24 -4 -54 -10 -80h-299c3 -129 62 -175 165 -175c49 0 102 13 134 33v-69c-26 -17 -85 -32 -139 -32zM244 447c-74 0 -115 -59 -125 -153h234c1 7 1 15 1 23c0 85 -40 130 -110 130z
M184 595c34 20 63 43 63 72c0 23 -17 40 -44 40c-14 0 -31 -4 -46 -9v52c18 8 37 13 64 13c53 0 93 -36 93 -86c0 -52 -37 -91 -93 -122z" />
    <glyph glyph-name="uni1EB9" unicode="&#x1eb9;" horiz-adv-x="469" 
d="M276 -10c-142 0 -233 71 -233 247c0 158 70 273 205 273c111 0 177 -72 177 -197c0 -24 -4 -54 -10 -80h-299c3 -129 62 -175 165 -175c49 0 102 13 134 33v-69c-26 -17 -85 -32 -139 -32zM244 447c-74 0 -115 -59 -125 -153h234c1 7 1 15 1 23c0 85 -40 130 -110 130z
M191 -125c0 30 23 53 52 53c31 0 54 -23 54 -53c0 -28 -23 -51 -54 -51c-29 0 -52 23 -52 51z" />
    <glyph glyph-name="uni0065030A" horiz-adv-x="469" 
d="M276 -10c-142 0 -233 71 -233 247c0 158 70 273 205 273c111 0 177 -72 177 -197c0 -24 -4 -54 -10 -80h-299c3 -129 62 -175 165 -175c49 0 102 13 134 33v-69c-26 -17 -85 -32 -139 -32zM244 447c-74 0 -115 -59 -125 -153h234c1 7 1 15 1 23c0 85 -40 130 -110 130z
M156 655c0 47 38 85 85 85s85 -38 85 -85s-38 -84 -85 -84s-85 37 -85 84zM200 655c0 -23 15 -43 41 -43s41 20 41 43s-15 43 -41 43s-41 -20 -41 -43z" />
    <glyph glyph-name="uni1E1F" unicode="&#x1e1f;" horiz-adv-x="343" 
d="M269 62v-62h-232v62l71 2v372h-76v25l15 39h61v25c0 127 61 215 193 215c32 0 69 -5 85 -16v-64c-22 9 -53 14 -77 14c-87 0 -131 -43 -131 -155v-19h151l-17 -64h-134v-372zM209 845c0 30 23 53 52 53c31 0 54 -23 54 -53c0 -28 -23 -51 -54 -51c-29 0 -52 23 -52 51z
" />
    <glyph glyph-name="uni00660304" horiz-adv-x="343" 
d="M269 62v-62h-232v62l71 2v372h-76v25l15 39h61v25c0 127 61 215 193 215c32 0 69 -5 85 -16v-64c-22 9 -53 14 -77 14c-87 0 -131 -43 -131 -155v-19h151l-17 -64h-134v-372zM135 807v62h224v-62h-224z" />
    <glyph glyph-name="gbreve" unicode="&#x11f;" horiz-adv-x="487" 
d="M457 -70c0 -93 -84 -170 -237 -170c-131 0 -204 55 -205 141c-1 50 21 100 92 133c-24 12 -42 34 -42 63c0 30 12 60 51 85c-45 30 -68 81 -68 143c0 108 67 185 184 185c42 0 76 -9 103 -25c17 58 54 82 101 82c17 0 27 -1 39 -4v-63c-7 1 -17 2 -27 2
c-33 0 -59 -21 -71 -54c23 -30 35 -70 35 -115c0 -109 -67 -182 -184 -182c-26 0 -49 3 -69 10c-16 -13 -27 -31 -27 -45c0 -16 13 -26 47 -31l138 -19c98 -13 140 -64 140 -136zM292 0l-132 18c-49 -26 -74 -67 -74 -106c0 -56 47 -90 140 -90c99 0 158 46 158 101
c0 44 -29 68 -92 77zM118 329c0 -77 39 -118 112 -118c67 0 112 41 112 118c0 70 -37 119 -112 119s-112 -49 -112 -119zM230 571c-79 0 -126 50 -126 122h63c2 -43 28 -66 63 -66s61 23 63 66h63c0 -72 -47 -122 -126 -122z" />
    <glyph glyph-name="gcircumflex" unicode="&#x11d;" horiz-adv-x="487" 
d="M158 571h-65v15l98 144h74l98 -144v-15h-63l-72 102zM292 0l-132 18c-49 -26 -74 -67 -74 -106c0 -56 47 -90 140 -90c99 0 158 46 158 101c0 44 -29 68 -92 77zM118 329c0 -77 39 -118 112 -118c67 0 112 41 112 118c0 70 -37 119 -112 119s-112 -49 -112 -119zM457 -70
c0 -93 -84 -170 -237 -170c-131 0 -204 55 -205 141c-1 50 21 100 92 133c-24 12 -42 34 -42 63c0 30 12 60 51 85c-45 30 -68 81 -68 143c0 108 67 185 184 185c42 0 76 -9 103 -25c17 58 54 82 101 82c17 0 27 -1 39 -4v-63c-7 1 -17 2 -27 2c-33 0 -59 -21 -71 -54
c23 -30 35 -70 35 -115c0 -109 -67 -182 -184 -182c-26 0 -49 3 -69 10c-16 -13 -27 -31 -27 -45c0 -16 13 -26 47 -31l138 -19c98 -13 140 -64 140 -136z" />
    <glyph glyph-name="gcommaaccent" unicode="&#x123;" horiz-adv-x="487" 
d="M292 0l-132 18c-49 -26 -74 -67 -74 -106c0 -56 47 -90 140 -90c99 0 158 46 158 101c0 44 -29 68 -92 77zM118 329c0 -77 39 -118 112 -118c67 0 112 41 112 118c0 70 -37 119 -112 119s-112 -49 -112 -119zM457 -70c0 -93 -84 -170 -237 -170c-131 0 -204 55 -205 141
c-1 50 21 100 92 133c-24 12 -42 34 -42 63c0 30 12 60 51 85c-45 30 -68 81 -68 143c0 108 67 185 184 185c42 0 76 -9 103 -25c17 58 54 82 101 82c17 0 27 -1 39 -4v-63c-7 1 -17 2 -27 2c-33 0 -59 -21 -71 -54c23 -30 35 -70 35 -115c0 -109 -67 -182 -184 -182
c-26 0 -49 3 -69 10c-16 -13 -27 -31 -27 -45c0 -16 13 -26 47 -31l138 -19c98 -13 140 -64 140 -136zM260 571h-64c-4 16 -6 31 -6 55c0 47 14 94 48 145l61 -27c-27 -40 -43 -84 -43 -120c0 -21 2 -36 4 -53z" />
    <glyph glyph-name="gdotaccent" unicode="&#x121;" horiz-adv-x="487" 
d="M292 0l-132 18c-49 -26 -74 -67 -74 -106c0 -56 47 -90 140 -90c99 0 158 46 158 101c0 44 -29 68 -92 77zM118 329c0 -77 39 -118 112 -118c67 0 112 41 112 118c0 70 -37 119 -112 119s-112 -49 -112 -119zM457 -70c0 -93 -84 -170 -237 -170c-131 0 -204 55 -205 141
c-1 50 21 100 92 133c-24 12 -42 34 -42 63c0 30 12 60 51 85c-45 30 -68 81 -68 143c0 108 67 185 184 185c42 0 76 -9 103 -25c17 58 54 82 101 82c17 0 27 -1 39 -4v-63c-7 1 -17 2 -27 2c-33 0 -59 -21 -71 -54c23 -30 35 -70 35 -115c0 -109 -67 -182 -184 -182
c-26 0 -49 3 -69 10c-16 -13 -27 -31 -27 -45c0 -16 13 -26 47 -31l138 -19c98 -13 140 -64 140 -136zM169 622c0 30 23 53 52 53c31 0 54 -23 54 -53c0 -28 -23 -51 -54 -51c-29 0 -52 23 -52 51z" />
    <glyph glyph-name="uni01E7" unicode="&#x1e7;" horiz-adv-x="487" 
d="M266 571h-74l-98 144v15h65l70 -102l72 102h63v-15zM292 0l-132 18c-49 -26 -74 -67 -74 -106c0 -56 47 -90 140 -90c99 0 158 46 158 101c0 44 -29 68 -92 77zM118 329c0 -77 39 -118 112 -118c67 0 112 41 112 118c0 70 -37 119 -112 119s-112 -49 -112 -119zM457 -70
c0 -93 -84 -170 -237 -170c-131 0 -204 55 -205 141c-1 50 21 100 92 133c-24 12 -42 34 -42 63c0 30 12 60 51 85c-45 30 -68 81 -68 143c0 108 67 185 184 185c42 0 76 -9 103 -25c17 58 54 82 101 82c17 0 27 -1 39 -4v-63c-7 1 -17 2 -27 2c-33 0 -59 -21 -71 -54
c23 -30 35 -70 35 -115c0 -109 -67 -182 -184 -182c-26 0 -49 3 -69 10c-16 -13 -27 -31 -27 -45c0 -16 13 -26 47 -31l138 -19c98 -13 140 -64 140 -136z" />
    <glyph glyph-name="uni01F5" unicode="&#x1f5;" horiz-adv-x="487" 
d="M292 0l-132 18c-49 -26 -74 -67 -74 -106c0 -56 47 -90 140 -90c99 0 158 46 158 101c0 44 -29 68 -92 77zM118 329c0 -77 39 -118 112 -118c67 0 112 41 112 118c0 70 -37 119 -112 119s-112 -49 -112 -119zM457 -70c0 -93 -84 -170 -237 -170c-131 0 -204 55 -205 141
c-1 50 21 100 92 133c-24 12 -42 34 -42 63c0 30 12 60 51 85c-45 30 -68 81 -68 143c0 108 67 185 184 185c42 0 76 -9 103 -25c17 58 54 82 101 82c17 0 27 -1 39 -4v-63c-7 1 -17 2 -27 2c-33 0 -59 -21 -71 -54c23 -30 35 -70 35 -115c0 -109 -67 -182 -184 -182
c-26 0 -49 3 -69 10c-16 -13 -27 -31 -27 -45c0 -16 13 -26 47 -31l138 -19c98 -13 140 -64 140 -136zM276 730h74v-15l-79 -144h-62v15z" />
    <glyph glyph-name="uni1E21" unicode="&#x1e21;" horiz-adv-x="487" 
d="M292 0l-132 18c-49 -26 -74 -67 -74 -106c0 -56 47 -90 140 -90c99 0 158 46 158 101c0 44 -29 68 -92 77zM118 329c0 -77 39 -118 112 -118c67 0 112 41 112 118c0 70 -37 119 -112 119s-112 -49 -112 -119zM457 -70c0 -93 -84 -170 -237 -170c-131 0 -204 55 -205 141
c-1 50 21 100 92 133c-24 12 -42 34 -42 63c0 30 12 60 51 85c-45 30 -68 81 -68 143c0 108 67 185 184 185c42 0 76 -9 103 -25c17 58 54 82 101 82c17 0 27 -1 39 -4v-63c-7 1 -17 2 -27 2c-33 0 -59 -21 -71 -54c23 -30 35 -70 35 -115c0 -109 -67 -182 -184 -182
c-26 0 -49 3 -69 10c-16 -13 -27 -31 -27 -45c0 -16 13 -26 47 -31l138 -19c98 -13 140 -64 140 -136zM111 594v62h224v-62h-224z" />
    <glyph glyph-name="hbar" unicode="&#x127;" horiz-adv-x="563" 
d="M307 556h-143v-127c33 53 92 81 154 81c101 0 156 -72 156 -172v-274l71 -2v-62h-220v62l79 2v252c0 85 -33 125 -102 125c-43 0 -104 -29 -138 -75v-302l81 -2v-62h-217v62l66 2v492h-76v60h76v50h-76v25l15 39h141l-10 -56v-58h143v-60z" />
    <glyph glyph-name="hcircumflex" unicode="&#x125;" horiz-adv-x="563" 
d="M245 62v-62h-217v62l66 2v602h-76v25l15 39h141l-10 -56v-245c33 53 92 81 154 81c101 0 156 -72 156 -172v-274l71 -2v-62h-220v62l79 2v252c0 85 -33 125 -102 125c-43 0 -104 -29 -138 -75v-302zM54 794h-66v15l98 124h74l98 -124v-15h-64l-71 84z" />
    <glyph glyph-name="uni021F" unicode="&#x21f;" horiz-adv-x="563" 
d="M245 62v-62h-217v62l66 2v602h-76v25l15 39h141l-10 -56v-245c33 53 92 81 154 81c101 0 156 -72 156 -172v-274l71 -2v-62h-220v62l79 2v252c0 85 -33 125 -102 125c-43 0 -104 -29 -138 -75v-302zM165 794h-74l-98 124v15h66l69 -83l71 83h64v-15z" />
    <glyph glyph-name="uni1E25" unicode="&#x1e25;" horiz-adv-x="563" 
d="M245 62v-62h-217v62l66 2v602h-76v25l15 39h141l-10 -56v-245c33 53 92 81 154 81c101 0 156 -72 156 -172v-274l71 -2v-62h-220v62l79 2v252c0 85 -33 125 -102 125c-43 0 -104 -29 -138 -75v-302zM232 -125c0 30 23 53 52 53c31 0 54 -23 54 -53c0 -28 -23 -51 -54 -51
c-29 0 -52 23 -52 51z" />
    <glyph glyph-name="uni1E96" unicode="&#x1e96;" horiz-adv-x="563" 
d="M245 62v-62h-217v62l66 2v602h-76v25l15 39h141l-10 -56v-245c33 53 92 81 154 81c101 0 156 -72 156 -172v-274l71 -2v-62h-220v62l79 2v252c0 85 -33 125 -102 125c-43 0 -104 -29 -138 -75v-302zM169 -144v62h224v-62h-224z" />
    <glyph glyph-name="uni1E2B" unicode="&#x1e2b;" horiz-adv-x="563" 
d="M245 62v-62h-217v62l66 2v602h-76v25l15 39h141l-10 -56v-245c33 53 92 81 154 81c101 0 156 -72 156 -172v-274l71 -2v-62h-220v62l79 2v252c0 85 -33 125 -102 125c-43 0 -104 -29 -138 -75v-302zM280 -174c-79 0 -126 50 -126 122h63c2 -43 28 -66 63 -66s61 23 63 66
h63c0 -72 -47 -122 -126 -122z" />
    <glyph glyph-name="uni1E23" unicode="&#x1e23;" horiz-adv-x="563" 
d="M245 62v-62h-217v62l66 2v602h-76v25l15 39h141l-10 -56v-245c33 53 92 81 154 81c101 0 156 -72 156 -172v-274l71 -2v-62h-220v62l79 2v252c0 85 -33 125 -102 125c-43 0 -104 -29 -138 -75v-302zM74 845c0 30 23 53 52 53c31 0 54 -23 54 -53c0 -28 -23 -51 -54 -51
c-29 0 -52 23 -52 51z" />
    <glyph glyph-name="iacute" unicode="&#xed;" horiz-adv-x="278" 
d="M179 730h74v-15l-79 -144h-62v15zM259 0h-222v62l71 2v372h-76v25l15 39h141l-10 -56v-380l81 -2v-62z" />
    <glyph glyph-name="igrave" unicode="&#xec;" horiz-adv-x="278" 
d="M259 0h-222v62l71 2v372h-76v25l15 39h141l-10 -56v-380l81 -2v-62zM33 730h74l67 -144v-15h-62l-79 144v15z" />
    <glyph glyph-name="icircumflex" unicode="&#xee;" horiz-adv-x="278" 
d="M68 571h-65v15l98 144h74l98 -144v-15h-63l-72 102zM259 0h-222v62l71 2v372h-76v25l15 39h141l-10 -56v-380l81 -2v-62z" />
    <glyph glyph-name="idieresis" unicode="&#xef;" horiz-adv-x="278" 
d="M6 622c0 28 23 52 52 52s53 -24 53 -52c0 -29 -24 -51 -53 -51s-52 22 -52 51zM156 622c0 28 23 52 52 52s53 -24 53 -52c0 -29 -24 -51 -53 -51s-52 22 -52 51zM259 0h-222v62l71 2v372h-76v25l15 39h141l-10 -56v-380l81 -2v-62z" />
    <glyph glyph-name="ibreve" unicode="&#x12d;" horiz-adv-x="278" 
d="M259 0h-222v62l71 2v372h-76v25l15 39h141l-10 -56v-380l81 -2v-62zM138 571c-79 0 -126 50 -126 122h63c2 -43 28 -66 63 -66s61 23 63 66h63c0 -72 -47 -122 -126 -122z" />
    <glyph glyph-name="dotlessi" unicode="&#x131;" horiz-adv-x="278" 
d="M259 0h-222v62l71 2v372h-76v25l15 39h141l-10 -56v-380l81 -2v-62z" />
    <glyph glyph-name="imacron" unicode="&#x12b;" horiz-adv-x="278" 
d="M30 594v62h214v-62h-214zM259 0h-222v62l71 2v372h-76v25l15 39h141l-10 -56v-380l81 -2v-62z" />
    <glyph glyph-name="iogonek" unicode="&#x12f;" horiz-adv-x="278" 
d="M259 0h-79c-58 -46 -84 -89 -84 -126c0 -38 23 -58 62 -58c23 0 41 6 58 14v-55c-13 -10 -41 -15 -64 -15c-67 0 -118 33 -118 101c0 47 25 95 78 139h-75v62l71 2v372h-76v25l15 39h141l-10 -56v-380l81 -2v-62zM90 622c0 30 23 53 52 53c31 0 54 -23 54 -53
c0 -28 -23 -51 -54 -51c-29 0 -52 23 -52 51z" />
    <glyph glyph-name="itilde" unicode="&#x129;" horiz-adv-x="278" 
d="M259 0h-222v62l71 2v372h-76v25l15 39h141l-10 -56v-380l81 -2v-62zM2 566v8c0 62 26 101 79 101c22 0 40 -9 59 -22c19 -14 28 -22 42 -22c17 0 25 19 25 48h59v-8c0 -62 -26 -100 -80 -100c-21 0 -37 7 -57 21c-20 15 -28 22 -42 22c-17 0 -25 -19 -25 -48h-60z" />
    <glyph glyph-name="uni01D0" unicode="&#x1d0;" horiz-adv-x="278" 
d="M259 0h-222v62l71 2v372h-76v25l15 39h141l-10 -56v-380l81 -2v-62zM172 571h-74l-98 144v15h63l72 -102l74 102h61v-15z" />
    <glyph glyph-name="uni1EC9" unicode="&#x1ec9;" horiz-adv-x="278" 
d="M259 0h-222v62l71 2v372h-76v25l15 39h141l-10 -56v-380l81 -2v-62zM88 595c34 20 63 43 63 72c0 23 -17 40 -44 40c-14 0 -31 -4 -46 -9v52c18 8 37 13 64 13c53 0 93 -36 93 -86c0 -52 -37 -91 -93 -122z" />
    <glyph glyph-name="uni1ECB" unicode="&#x1ecb;" horiz-adv-x="278" 
d="M90 622c0 30 23 53 52 53c31 0 54 -23 54 -53c0 -28 -23 -51 -54 -51c-29 0 -52 23 -52 51zM259 0h-222v62l71 2v372h-76v25l15 39h141l-10 -56v-380l81 -2v-62zM90 -125c0 30 23 53 52 53c31 0 54 -23 54 -53c0 -28 -23 -51 -54 -51c-29 0 -52 23 -52 51z" />
    <glyph glyph-name="jcircumflex" unicode="&#x135;" horiz-adv-x="246" 
d="M50 571h-65v15l98 144h74l98 -144v-15h-63l-72 102zM-14 -235c-18 0 -41 2 -55 7v66c14 -2 32 -4 47 -4c84 0 120 37 120 141v461h-76v25l15 39h141l-10 -56v-481c0 -136 -65 -198 -182 -198z" />
    <glyph glyph-name="uni006A0301" horiz-adv-x="246" 
d="M169 730h74v-15l-79 -144h-62v15zM-14 -235c-18 0 -41 2 -55 7v66c14 -2 32 -4 47 -4c84 0 120 37 120 141v461h-76v25l15 39h141l-10 -56v-481c0 -136 -65 -198 -182 -198z" />
    <glyph glyph-name="uni0237" unicode="&#x237;" horiz-adv-x="246" 
d="M-14 -235c-18 0 -41 2 -55 7v66c14 -2 32 -4 47 -4c84 0 120 37 120 141v461h-76v25l15 39h141l-10 -56v-481c0 -136 -65 -198 -182 -198z" />
    <glyph glyph-name="kcommaaccent" unicode="&#x137;" horiz-adv-x="515" 
d="M224 -52h64c4 -16 6 -31 6 -55c0 -47 -14 -94 -48 -145l-61 27c27 40 43 84 43 120c0 21 -2 36 -4 53zM245 62v-62h-217v62l66 2v602h-76v25l15 39h141l-10 -56v-384h84l111 146h-71v64h214v-64h-62l-137 -180l140 -192l59 -2v-62h-97l-162 225h-79v-161z" />
    <glyph glyph-name="uni01E9" unicode="&#x1e9;" horiz-adv-x="515" 
d="M245 62v-62h-217v62l66 2v602h-76v25l15 39h141l-10 -56v-384h84l111 146h-71v64h214v-64h-62l-137 -180l140 -192l59 -2v-62h-97l-162 225h-79v-161zM159 794h-74l-98 124v15h66l69 -83l71 83h64v-15z" />
    <glyph glyph-name="uni1E35" unicode="&#x1e35;" horiz-adv-x="515" 
d="M245 62v-62h-217v62l66 2v602h-76v25l15 39h141l-10 -56v-384h84l111 146h-71v64h214v-64h-62l-137 -180l140 -192l59 -2v-62h-97l-162 225h-79v-161zM164 -144v62h224v-62h-224z" />
    <glyph glyph-name="uni1E33" unicode="&#x1e33;" horiz-adv-x="515" 
d="M245 62v-62h-217v62l66 2v602h-76v25l15 39h141l-10 -56v-384h84l111 146h-71v64h214v-64h-62l-137 -180l140 -192l59 -2v-62h-97l-162 225h-79v-161zM220 -125c0 30 23 53 52 53c31 0 54 -23 54 -53c0 -28 -23 -51 -54 -51c-29 0 -52 23 -52 51z" />
    <glyph glyph-name="lacute" unicode="&#x13a;" horiz-adv-x="246" 
d="M168 933h79v-15l-106 -124h-64v15zM235 2c-11 -7 -38 -12 -58 -12c-58 0 -98 25 -98 99v577h-73v25l15 39h138l-10 -56v-570c0 -38 11 -49 43 -49c14 0 30 3 43 10v-63z" />
    <glyph glyph-name="lcaron" unicode="&#x13e;" horiz-adv-x="254" 
d="M208 770h71v-15l-34 -154h-53v15zM235 2c-11 -7 -38 -12 -58 -12c-58 0 -98 25 -98 99v577h-73v25l15 39h138l-10 -56v-570c0 -38 11 -49 43 -49c14 0 30 3 43 10v-63z" />
    <glyph glyph-name="lcommaaccent" unicode="&#x13c;" horiz-adv-x="246" 
d="M112 -52h64c4 -16 6 -31 6 -55c0 -47 -14 -94 -48 -145l-61 27c27 40 43 84 43 120c0 21 -2 36 -4 53zM235 2c-11 -7 -38 -12 -58 -12c-58 0 -98 25 -98 99v577h-73v25l15 39h138l-10 -56v-570c0 -38 11 -49 43 -49c14 0 30 3 43 10v-63z" />
    <glyph glyph-name="ldot" unicode="&#x140;" horiz-adv-x="316" 
d="M219 373c0 30 23 53 52 53c31 0 54 -23 54 -53c0 -28 -23 -51 -54 -51c-29 0 -52 23 -52 51zM235 2c-11 -7 -38 -12 -58 -12c-58 0 -98 25 -98 99v577h-73v25l15 39h138l-10 -56v-570c0 -38 11 -49 43 -49c14 0 30 3 43 10v-63z" />
    <glyph glyph-name="lslash" unicode="&#x142;" horiz-adv-x="306" 
d="M33 314v68l82 35v249h-73v25l15 39h138l-10 -56v-227l112 48v-68l-112 -48v-275c0 -38 11 -49 43 -49c14 0 30 3 43 10v-63c-11 -7 -38 -12 -58 -12c-58 0 -98 25 -98 99v260z" />
    <glyph glyph-name="uni1E3B" unicode="&#x1e3b;" horiz-adv-x="246" 
d="M235 2c-11 -7 -38 -12 -58 -12c-58 0 -98 25 -98 99v577h-73v25l15 39h138l-10 -56v-570c0 -38 11 -49 43 -49c14 0 30 3 43 10v-63zM30 -144v62h224v-62h-224z" />
    <glyph glyph-name="uni1E37" unicode="&#x1e37;" horiz-adv-x="246" 
d="M235 2c-11 -7 -38 -12 -58 -12c-58 0 -98 25 -98 99v577h-73v25l15 39h138l-10 -56v-570c0 -38 11 -49 43 -49c14 0 30 3 43 10v-63zM84 -125c0 30 23 53 52 53c31 0 54 -23 54 -53c0 -28 -23 -51 -54 -51c-29 0 -52 23 -52 51z" />
    <glyph glyph-name="uni1E39" unicode="&#x1e39;" horiz-adv-x="246" 
d="M84 -125c0 30 23 53 52 53c31 0 54 -23 54 -53c0 -28 -23 -51 -54 -51c-29 0 -52 23 -52 51zM7 807v62h224v-62h-224zM235 2c-11 -7 -38 -12 -58 -12c-58 0 -98 25 -98 99v577h-73v25l15 39h138l-10 -56v-570c0 -38 11 -49 43 -49c14 0 30 3 43 10v-63z" />
    <glyph glyph-name="uni1E43" unicode="&#x1e43;" horiz-adv-x="851" 
d="M249 62v-62h-212v62l71 2v372h-76v25l15 39h131v-67c33 49 84 77 141 77c66 0 114 -33 137 -88c33 55 87 88 152 88c102 0 153 -71 153 -171v-275l71 -2v-62h-209v62l68 2v252c0 85 -30 125 -99 125c-47 0 -91 -29 -123 -76c1 -12 1 -34 1 -41v-260l73 -2v-62h-214v62
l71 2v252c0 85 -33 125 -99 125c-46 0 -91 -29 -123 -70v-307zM380 -125c0 30 23 53 52 53c31 0 54 -23 54 -53c0 -28 -23 -51 -54 -51c-29 0 -52 23 -52 51z" />
    <glyph glyph-name="uni006D0310" horiz-adv-x="851" 
d="M249 62v-62h-212v62l71 2v372h-76v25l15 39h131v-67c33 49 84 77 141 77c66 0 114 -33 137 -88c33 55 87 88 152 88c102 0 153 -71 153 -171v-275l71 -2v-62h-209v62l68 2v252c0 85 -30 125 -99 125c-47 0 -91 -29 -123 -76c1 -12 1 -34 1 -41v-260l73 -2v-62h-214v62
l71 2v252c0 85 -33 125 -99 125c-46 0 -91 -29 -123 -70v-307zM431 571c-81 0 -129 43 -135 108h63c10 -35 36 -51 72 -51s62 16 72 51h63c-8 -62 -59 -108 -135 -108zM379 723c0 30 23 53 52 53c31 0 54 -23 54 -53c0 -28 -23 -51 -54 -51c-29 0 -52 23 -52 51z" />
    <glyph glyph-name="uni1E41" unicode="&#x1e41;" horiz-adv-x="851" 
d="M249 62v-62h-212v62l71 2v372h-76v25l15 39h131v-67c33 49 84 77 141 77c66 0 114 -33 137 -88c33 55 87 88 152 88c102 0 153 -71 153 -171v-275l71 -2v-62h-209v62l68 2v252c0 85 -30 125 -99 125c-47 0 -91 -29 -123 -76c1 -12 1 -34 1 -41v-260l73 -2v-62h-214v62
l71 2v252c0 85 -33 125 -99 125c-46 0 -91 -29 -123 -70v-307zM384 622c0 30 23 53 52 53c31 0 54 -23 54 -53c0 -28 -23 -51 -54 -51c-29 0 -52 23 -52 51z" />
    <glyph glyph-name="uni1E3F" unicode="&#x1e3f;" horiz-adv-x="851" 
d="M249 62v-62h-212v62l71 2v372h-76v25l15 39h131v-67c33 49 84 77 141 77c66 0 114 -33 137 -88c33 55 87 88 152 88c102 0 153 -71 153 -171v-275l71 -2v-62h-209v62l68 2v252c0 85 -30 125 -99 125c-47 0 -91 -29 -123 -76c1 -12 1 -34 1 -41v-260l73 -2v-62h-214v62
l71 2v252c0 85 -33 125 -99 125c-46 0 -91 -29 -123 -70v-307zM481 730h74v-15l-79 -144h-62v15z" />
    <glyph glyph-name="ntilde" unicode="&#xf1;" horiz-adv-x="577" 
d="M259 62v-62h-222v62l71 2v372h-76v25l15 39h131v-67c34 48 91 77 154 77c103 0 156 -75 156 -173v-273l71 -2v-62h-220v62l79 2v252c0 84 -32 125 -103 125c-50 0 -101 -29 -137 -73v-304zM170 566v8c0 62 26 101 79 101c22 0 40 -9 59 -22c19 -14 28 -22 42 -22
c17 0 25 19 25 48h59v-8c0 -62 -26 -100 -80 -100c-21 0 -37 7 -57 21c-20 15 -28 22 -42 22c-17 0 -25 -19 -25 -48h-60z" />
    <glyph glyph-name="nacute" unicode="&#x144;" horiz-adv-x="577" 
d="M328 730h74v-15l-79 -144h-62v15zM259 62v-62h-222v62l71 2v372h-76v25l15 39h131v-67c34 48 91 77 154 77c103 0 156 -75 156 -173v-273l71 -2v-62h-220v62l79 2v252c0 84 -32 125 -103 125c-50 0 -101 -29 -137 -73v-304z" />
    <glyph glyph-name="napostrophe" unicode="&#x149;" horiz-adv-x="577" 
d="M122 730h64c4 -16 6 -31 6 -55c0 -47 -14 -94 -48 -145l-61 27c27 40 43 84 43 120c0 21 -2 36 -4 53zM259 62v-62h-222v62l71 2v372h-76v25l15 39h131v-67c34 48 91 77 154 77c103 0 156 -75 156 -173v-273l71 -2v-62h-220v62l79 2v252c0 84 -32 125 -103 125
c-50 0 -101 -29 -137 -73v-304z" />
    <glyph glyph-name="ncaron" unicode="&#x148;" horiz-adv-x="577" 
d="M331 571h-74l-98 144v15h65l70 -102l72 102h63v-15zM259 62v-62h-222v62l71 2v372h-76v25l15 39h131v-67c34 48 91 77 154 77c103 0 156 -75 156 -173v-273l71 -2v-62h-220v62l79 2v252c0 84 -32 125 -103 125c-50 0 -101 -29 -137 -73v-304z" />
    <glyph glyph-name="ncommaaccent" unicode="&#x146;" horiz-adv-x="577" 
d="M268 -52h64c4 -16 6 -31 6 -55c0 -47 -14 -94 -48 -145l-61 27c27 40 43 84 43 120c0 21 -2 36 -4 53zM259 62v-62h-222v62l71 2v372h-76v25l15 39h131v-67c34 48 91 77 154 77c103 0 156 -75 156 -173v-273l71 -2v-62h-220v62l79 2v252c0 84 -32 125 -103 125
c-50 0 -101 -29 -137 -73v-304z" />
    <glyph glyph-name="uni01F9" unicode="&#x1f9;" horiz-adv-x="577" 
d="M259 62v-62h-222v62l71 2v372h-76v25l15 39h131v-67c34 48 91 77 154 77c103 0 156 -75 156 -173v-273l71 -2v-62h-220v62l79 2v252c0 84 -32 125 -103 125c-50 0 -101 -29 -137 -73v-304zM187 730h74l67 -144v-15h-62l-79 144v15z" />
    <glyph glyph-name="uni1E49" unicode="&#x1e49;" horiz-adv-x="577" 
d="M259 62v-62h-222v62l71 2v372h-76v25l15 39h131v-67c34 48 91 77 154 77c103 0 156 -75 156 -173v-273l71 -2v-62h-220v62l79 2v252c0 84 -32 125 -103 125c-50 0 -101 -29 -137 -73v-304zM187 -144v62h224v-62h-224z" />
    <glyph glyph-name="uni1E45" unicode="&#x1e45;" horiz-adv-x="577" 
d="M259 62v-62h-222v62l71 2v372h-76v25l15 39h131v-67c34 48 91 77 154 77c103 0 156 -75 156 -173v-273l71 -2v-62h-220v62l79 2v252c0 84 -32 125 -103 125c-50 0 -101 -29 -137 -73v-304zM244 622c0 30 23 53 52 53c31 0 54 -23 54 -53c0 -28 -23 -51 -54 -51
c-29 0 -52 23 -52 51z" />
    <glyph glyph-name="uni1E47" unicode="&#x1e47;" horiz-adv-x="577" 
d="M239 -125c0 30 23 53 52 53c31 0 54 -23 54 -53c0 -28 -23 -51 -54 -51c-29 0 -52 23 -52 51zM259 62v-62h-222v62l71 2v372h-76v25l15 39h131v-67c34 48 91 77 154 77c103 0 156 -75 156 -173v-273l71 -2v-62h-220v62l79 2v252c0 84 -32 125 -103 125
c-50 0 -101 -29 -137 -73v-304z" />
    <glyph glyph-name="uni006E0304" horiz-adv-x="577" 
d="M259 62v-62h-222v62l71 2v372h-76v25l15 39h131v-67c34 48 91 77 154 77c103 0 156 -75 156 -173v-273l71 -2v-62h-220v62l79 2v252c0 84 -32 125 -103 125c-50 0 -101 -29 -137 -73v-304zM186 594v62h224v-62h-224z" />
    <glyph glyph-name="eng" unicode="&#x14b;" horiz-adv-x="552" 
d="M418 -25v341c0 84 -32 125 -103 125c-50 0 -101 -29 -137 -73v-304l81 -2v-62h-222v62l71 2v372h-76v25l15 39h131v-67c34 48 91 77 154 77c103 0 156 -75 156 -173v-374c0 -136 -65 -198 -182 -198c-18 0 -41 2 -55 7v66c14 -2 32 -4 47 -4c84 0 120 37 120 141z" />
    <glyph glyph-name="oacute" unicode="&#xf3;" horiz-adv-x="514" 
d="M297 730h74v-15l-79 -144h-62v15zM253 -10c-131 0 -209 84 -209 255c0 166 78 265 218 265c133 0 208 -90 208 -257c0 -165 -76 -263 -217 -263zM257 53c84 0 141 62 141 196s-52 196 -141 196c-88 0 -141 -66 -141 -196c0 -134 52 -196 141 -196z" />
    <glyph glyph-name="ograve" unicode="&#xf2;" horiz-adv-x="514" 
d="M253 -10c-131 0 -209 84 -209 255c0 166 78 265 218 265c133 0 208 -90 208 -257c0 -165 -76 -263 -217 -263zM257 53c84 0 141 62 141 196s-52 196 -141 196c-88 0 -141 -66 -141 -196c0 -134 52 -196 141 -196zM151 730h74l67 -144v-15h-62l-79 144v15z" />
    <glyph glyph-name="ocircumflex" unicode="&#xf4;" horiz-adv-x="514" 
d="M187 571h-65v15l98 144h74l98 -144v-15h-63l-72 102zM253 -10c-131 0 -209 84 -209 255c0 166 78 265 218 265c133 0 208 -90 208 -257c0 -165 -76 -263 -217 -263zM257 53c84 0 141 62 141 196s-52 196 -141 196c-88 0 -141 -66 -141 -196c0 -134 52 -196 141 -196z" />
    <glyph glyph-name="odieresis" unicode="&#xf6;" horiz-adv-x="514" 
d="M120 622c0 30 23 53 52 53c31 0 54 -23 54 -53c0 -28 -23 -51 -54 -51c-29 0 -52 23 -52 51zM289 622c0 30 23 53 52 53c31 0 54 -23 54 -53c0 -28 -23 -51 -54 -51c-29 0 -52 23 -52 51zM253 -10c-131 0 -209 84 -209 255c0 166 78 265 218 265c133 0 208 -90 208 -257
c0 -165 -76 -263 -217 -263zM257 53c84 0 141 62 141 196s-52 196 -141 196c-88 0 -141 -66 -141 -196c0 -134 52 -196 141 -196z" />
    <glyph glyph-name="otilde" unicode="&#xf5;" horiz-adv-x="514" 
d="M253 -10c-131 0 -209 84 -209 255c0 166 78 265 218 265c133 0 208 -90 208 -257c0 -165 -76 -263 -217 -263zM257 53c84 0 141 62 141 196s-52 196 -141 196c-88 0 -141 -66 -141 -196c0 -134 52 -196 141 -196zM128 566v8c0 62 26 101 79 101c22 0 40 -9 59 -22
c19 -14 28 -22 42 -22c17 0 25 19 25 48h59v-8c0 -62 -26 -100 -80 -100c-21 0 -37 7 -57 21c-20 15 -28 22 -42 22c-17 0 -25 -19 -25 -48h-60z" />
    <glyph glyph-name="obreve" unicode="&#x14f;" horiz-adv-x="514" 
d="M253 -10c-131 0 -209 84 -209 255c0 166 78 265 218 265c133 0 208 -90 208 -257c0 -165 -76 -263 -217 -263zM257 53c84 0 141 62 141 196s-52 196 -141 196c-88 0 -141 -66 -141 -196c0 -134 52 -196 141 -196zM257 571c-79 0 -126 50 -126 122h63c2 -43 28 -66 63 -66
s61 23 63 66h63c0 -72 -47 -122 -126 -122z" />
    <glyph glyph-name="ohungarumlaut" unicode="&#x151;" horiz-adv-x="514" 
d="M343 730h71v-15l-76 -144h-57v15zM212 730h71v-15l-56 -144h-58v15zM253 -10c-131 0 -209 84 -209 255c0 166 78 265 218 265c133 0 208 -90 208 -257c0 -165 -76 -263 -217 -263zM257 53c84 0 141 62 141 196s-52 196 -141 196c-88 0 -141 -66 -141 -196
c0 -134 52 -196 141 -196z" />
    <glyph glyph-name="omacron" unicode="&#x14d;" horiz-adv-x="514" 
d="M145 594v62h224v-62h-224zM253 -10c-131 0 -209 84 -209 255c0 166 78 265 218 265c133 0 208 -90 208 -257c0 -165 -76 -263 -217 -263zM257 53c84 0 141 62 141 196s-52 196 -141 196c-88 0 -141 -66 -141 -196c0 -134 52 -196 141 -196z" />
    <glyph glyph-name="oslash" unicode="&#xf8;" horiz-adv-x="516" 
d="M117 249c0 -55 8 -98 25 -130l188 307c-20 13 -44 19 -72 19c-88 0 -141 -66 -141 -196zM258 53c84 0 141 62 141 196c0 56 -10 99 -26 131l-189 -307c20 -14 45 -20 74 -20zM254 -10c-41 0 -76 8 -106 24l-36 -59h-65v9l54 88c-37 43 -56 107 -56 193
c0 166 78 265 218 265c40 0 75 -8 104 -24l37 59h65v-9l-55 -89c37 -43 57 -109 57 -194c0 -165 -76 -263 -217 -263z" />
    <glyph glyph-name="oslashacute" unicode="&#x1ff;" horiz-adv-x="516" 
d="M294 730h74v-15l-79 -144h-62v15zM117 249c0 -55 8 -98 25 -130l188 307c-20 13 -44 19 -72 19c-88 0 -141 -66 -141 -196zM258 53c84 0 141 62 141 196c0 56 -10 99 -26 131l-189 -307c20 -14 45 -20 74 -20zM254 -10c-41 0 -76 8 -106 24l-36 -59h-65v9l54 88
c-37 43 -56 107 -56 193c0 166 78 265 218 265c40 0 75 -8 104 -24l37 59h65v-9l-55 -89c37 -43 57 -109 57 -194c0 -165 -76 -263 -217 -263z" />
    <glyph glyph-name="uni01D2" unicode="&#x1d2;" horiz-adv-x="514" 
d="M253 -10c-131 0 -209 84 -209 255c0 166 78 265 218 265c133 0 208 -90 208 -257c0 -165 -76 -263 -217 -263zM257 53c84 0 141 62 141 196s-52 196 -141 196c-88 0 -141 -66 -141 -196c0 -134 52 -196 141 -196zM295 571h-74l-98 144v15h63l72 -102l74 102h61v-15z" />
    <glyph glyph-name="uni01EB" unicode="&#x1eb;" horiz-adv-x="513" 
d="M295 -240c-67 0 -116 36 -116 100c0 41 19 87 68 130c-127 2 -203 86 -203 254c0 167 78 266 218 266c132 0 208 -90 208 -255c0 -115 -34 -185 -120 -245c-76 -53 -109 -95 -109 -138c0 -38 26 -56 62 -56c23 0 41 6 58 14v-55c-13 -10 -40 -15 -66 -15zM116 249
c0 -134 52 -196 141 -196c84 0 141 62 141 196s-52 196 -141 196c-88 0 -141 -66 -141 -196z" />
    <glyph glyph-name="uni01ED" unicode="&#x1ed;" horiz-adv-x="513" 
d="M295 -240c-67 0 -116 36 -116 100c0 41 19 87 68 130c-127 2 -203 86 -203 254c0 167 78 266 218 266c132 0 208 -90 208 -255c0 -115 -34 -185 -120 -245c-76 -53 -109 -95 -109 -138c0 -38 26 -56 62 -56c23 0 41 6 58 14v-55c-13 -10 -40 -15 -66 -15zM116 249
c0 -134 52 -196 141 -196c84 0 141 62 141 196s-52 196 -141 196c-88 0 -141 -66 -141 -196zM144 594v62h224v-62h-224z" />
    <glyph glyph-name="uni022F" unicode="&#x22f;" horiz-adv-x="514" 
d="M204 622c0 30 23 53 52 53c31 0 54 -23 54 -53c0 -28 -23 -51 -54 -51c-29 0 -52 23 -52 51zM253 -10c-131 0 -209 84 -209 255c0 166 78 265 218 265c133 0 208 -90 208 -257c0 -165 -76 -263 -217 -263zM257 53c84 0 141 62 141 196s-52 196 -141 196
c-88 0 -141 -66 -141 -196c0 -134 52 -196 141 -196z" />
    <glyph glyph-name="ohorn" unicode="&#x1a1;" horiz-adv-x="533" 
d="M253 -10c-131 0 -209 84 -209 255c0 166 78 265 218 265c49 0 91 -13 123 -37c33 8 51 32 51 73c0 16 -3 37 -7 53h62c7 -17 10 -43 10 -61c0 -60 -25 -98 -72 -112c27 -43 41 -101 41 -173c0 -165 -76 -263 -217 -263zM257 53c84 0 141 62 141 196s-52 196 -141 196
c-88 0 -141 -66 -141 -196c0 -134 52 -196 141 -196z" />
    <glyph glyph-name="uni1ED3" unicode="&#x1ed3;" horiz-adv-x="514" 
d="M280 770h74l78 -110v-15h-58l-94 110v15zM191 571h-69v15l97 110h76l97 -110v-15h-67l-68 73zM253 -10c-131 0 -209 84 -209 255c0 166 78 265 218 265c133 0 208 -90 208 -257c0 -165 -76 -263 -217 -263zM257 53c84 0 141 62 141 196s-52 196 -141 196
c-88 0 -141 -66 -141 -196c0 -134 52 -196 141 -196z" />
    <glyph glyph-name="uni1ED1" unicode="&#x1ed1;" horiz-adv-x="514" 
d="M253 -10c-131 0 -209 84 -209 255c0 166 78 265 218 265c133 0 208 -90 208 -257c0 -165 -76 -263 -217 -263zM257 53c84 0 141 62 141 196s-52 196 -141 196c-88 0 -141 -66 -141 -196c0 -134 52 -196 141 -196zM438 770h74v-15l-94 -110h-58v15zM191 571h-69v15l97 110
h76l97 -110v-15h-67l-68 73z" />
    <glyph glyph-name="uni1ED7" unicode="&#x1ed7;" horiz-adv-x="514" 
d="M253 -10c-131 0 -209 84 -209 255c0 166 78 265 218 265c133 0 208 -90 208 -257c0 -165 -76 -263 -217 -263zM257 53c84 0 141 62 141 196s-52 196 -141 196c-88 0 -141 -66 -141 -196c0 -134 52 -196 141 -196zM252 737c-20 15 -28 22 -42 22c-17 0 -25 -19 -25 -48
h-60v8c0 62 26 101 79 101c22 0 40 -9 59 -22c19 -14 28 -22 42 -22c17 0 25 19 25 48h59v-8c0 -62 -26 -100 -80 -100c-21 0 -37 7 -57 21zM191 571h-69v15l97 110h76l97 -110v-15h-67l-68 73z" />
    <glyph glyph-name="uni1ED5" unicode="&#x1ed5;" horiz-adv-x="514" 
d="M253 -10c-131 0 -209 84 -209 255c0 166 78 265 218 265c133 0 208 -90 208 -257c0 -165 -76 -263 -217 -263zM257 53c84 0 141 62 141 196s-52 196 -141 196c-88 0 -141 -66 -141 -196c0 -134 52 -196 141 -196zM345 678c28 16 49 34 49 55c0 18 -12 30 -34 30
c-12 0 -25 -3 -37 -8v49c15 7 30 11 52 11c46 0 80 -31 80 -73c0 -40 -30 -77 -75 -102zM191 571h-69v15l97 110h76l97 -110v-15h-67l-68 73z" />
    <glyph glyph-name="uni1ED9" unicode="&#x1ed9;" horiz-adv-x="514" 
d="M187 571h-65v15l98 144h74l98 -144v-15h-63l-72 102zM253 -10c-131 0 -209 84 -209 255c0 166 78 265 218 265c133 0 208 -90 208 -257c0 -165 -76 -263 -217 -263zM257 53c84 0 141 62 141 196s-52 196 -141 196c-88 0 -141 -66 -141 -196c0 -134 52 -196 141 -196z
M204 -125c0 30 23 53 52 53c31 0 54 -23 54 -53c0 -28 -23 -51 -54 -51c-29 0 -52 23 -52 51z" />
    <glyph glyph-name="uni1ECF" unicode="&#x1ecf;" horiz-adv-x="514" 
d="M253 -10c-131 0 -209 84 -209 255c0 166 78 265 218 265c133 0 208 -90 208 -257c0 -165 -76 -263 -217 -263zM257 53c84 0 141 62 141 196s-52 196 -141 196c-88 0 -141 -66 -141 -196c0 -134 52 -196 141 -196zM205 595c34 20 63 43 63 72c0 23 -17 40 -44 40
c-14 0 -31 -4 -46 -9v52c18 8 37 13 64 13c53 0 93 -36 93 -86c0 -52 -37 -91 -93 -122z" />
    <glyph glyph-name="uni1ECD" unicode="&#x1ecd;" horiz-adv-x="514" 
d="M253 -10c-131 0 -209 84 -209 255c0 166 78 265 218 265c133 0 208 -90 208 -257c0 -165 -76 -263 -217 -263zM257 53c84 0 141 62 141 196s-52 196 -141 196c-88 0 -141 -66 -141 -196c0 -134 52 -196 141 -196zM205 -125c0 30 23 53 52 53c31 0 54 -23 54 -53
c0 -28 -23 -51 -54 -51c-29 0 -52 23 -52 51z" />
    <glyph glyph-name="uni1EDD" unicode="&#x1edd;" horiz-adv-x="533" 
d="M253 -10c-131 0 -209 84 -209 255c0 166 78 265 218 265c49 0 91 -13 123 -37c33 8 51 32 51 73c0 16 -3 37 -7 53h62c7 -17 10 -43 10 -61c0 -60 -25 -98 -72 -112c27 -43 41 -101 41 -173c0 -165 -76 -263 -217 -263zM257 53c84 0 141 62 141 196s-52 196 -141 196
c-88 0 -141 -66 -141 -196c0 -134 52 -196 141 -196zM151 730h74l67 -144v-15h-62l-79 144v15z" />
    <glyph glyph-name="uni1EDB" unicode="&#x1edb;" horiz-adv-x="533" 
d="M253 -10c-131 0 -209 84 -209 255c0 166 78 265 218 265c49 0 91 -13 123 -37c33 8 51 32 51 73c0 16 -3 37 -7 53h62c7 -17 10 -43 10 -61c0 -60 -25 -98 -72 -112c27 -43 41 -101 41 -173c0 -165 -76 -263 -217 -263zM257 53c84 0 141 62 141 196s-52 196 -141 196
c-88 0 -141 -66 -141 -196c0 -134 52 -196 141 -196zM297 730h74v-15l-79 -144h-62v15z" />
    <glyph glyph-name="uni1EE1" unicode="&#x1ee1;" horiz-adv-x="533" 
d="M253 -10c-131 0 -209 84 -209 255c0 166 78 265 218 265c49 0 91 -13 123 -37c33 8 51 32 51 73c0 16 -3 37 -7 53h62c7 -17 10 -43 10 -61c0 -60 -25 -98 -72 -112c27 -43 41 -101 41 -173c0 -165 -76 -263 -217 -263zM257 53c84 0 141 62 141 196s-52 196 -141 196
c-88 0 -141 -66 -141 -196c0 -134 52 -196 141 -196zM128 566v8c0 62 26 101 79 101c22 0 40 -9 59 -22c19 -14 28 -22 42 -22c17 0 25 19 25 48h59v-8c0 -62 -26 -100 -80 -100c-21 0 -37 7 -57 21c-20 15 -28 22 -42 22c-17 0 -25 -19 -25 -48h-60z" />
    <glyph glyph-name="uni1EDF" unicode="&#x1edf;" horiz-adv-x="533" 
d="M253 -10c-131 0 -209 84 -209 255c0 166 78 265 218 265c49 0 91 -13 123 -37c33 8 51 32 51 73c0 16 -3 37 -7 53h62c7 -17 10 -43 10 -61c0 -60 -25 -98 -72 -112c27 -43 41 -101 41 -173c0 -165 -76 -263 -217 -263zM257 53c84 0 141 62 141 196s-52 196 -141 196
c-88 0 -141 -66 -141 -196c0 -134 52 -196 141 -196zM205 595c34 20 63 43 63 72c0 23 -17 40 -44 40c-14 0 -31 -4 -46 -9v52c18 8 37 13 64 13c53 0 93 -36 93 -86c0 -52 -37 -91 -93 -122z" />
    <glyph glyph-name="uni1EE3" unicode="&#x1ee3;" horiz-adv-x="533" 
d="M253 -10c-131 0 -209 84 -209 255c0 166 78 265 218 265c49 0 91 -13 123 -37c33 8 51 32 51 73c0 16 -3 37 -7 53h62c7 -17 10 -43 10 -61c0 -60 -25 -98 -72 -112c27 -43 41 -101 41 -173c0 -165 -76 -263 -217 -263zM257 53c84 0 141 62 141 196s-52 196 -141 196
c-88 0 -141 -66 -141 -196c0 -134 52 -196 141 -196zM205 -125c0 30 23 53 52 53c31 0 54 -23 54 -53c0 -28 -23 -51 -54 -51c-29 0 -52 23 -52 51z" />
    <glyph glyph-name="uni007000AF" horiz-adv-x="552" 
d="M265 53c109 0 170 68 170 205c0 124 -50 183 -135 183c-48 0 -98 -30 -132 -72v-296c26 -14 61 -20 97 -20zM264 -168v-62h-237v62l71 2v602h-76v25l15 39h131v-65c31 45 86 75 147 75c119 0 193 -82 193 -245c0 -179 -90 -275 -235 -275c-38 0 -76 7 -105 19v-175z
M175 594v62h224v-62h-224z" />
    <glyph glyph-name="uni1E57" unicode="&#x1e57;" horiz-adv-x="552" 
d="M265 53c109 0 170 68 170 205c0 124 -50 183 -135 183c-48 0 -98 -30 -132 -72v-296c26 -14 61 -20 97 -20zM264 -168v-62h-237v62l71 2v602h-76v25l15 39h131v-65c31 45 86 75 147 75c119 0 193 -82 193 -245c0 -179 -90 -275 -235 -275c-38 0 -76 7 -105 19v-175z
M236 622c0 30 23 53 52 53c31 0 54 -23 54 -53c0 -28 -23 -51 -54 -51c-29 0 -52 23 -52 51z" />
    <glyph glyph-name="racute" unicode="&#x155;" horiz-adv-x="360" 
d="M240 730h74v-15l-79 -144h-62v15zM37 0v62l71 2v372h-76v25l15 39h128v-74c21 54 59 82 119 82c17 0 31 -3 45 -8v-69h-22c-63 0 -104 -21 -139 -71v-296l91 -2v-62h-232z" />
    <glyph glyph-name="rcaron" unicode="&#x159;" horiz-adv-x="360" 
d="M242 571h-74l-98 144v15h65l70 -102l72 102h63v-15zM37 0v62l71 2v372h-76v25l15 39h128v-74c21 54 59 82 119 82c17 0 31 -3 45 -8v-69h-22c-63 0 -104 -21 -139 -71v-296l91 -2v-62h-232z" />
    <glyph glyph-name="rcommaaccent" unicode="&#x157;" horiz-adv-x="360" 
d="M111 -52h64c4 -16 6 -31 6 -55c0 -47 -14 -94 -48 -145l-61 27c27 40 43 84 43 120c0 21 -2 36 -4 53zM37 0v62l71 2v372h-76v25l15 39h128v-74c21 54 59 82 119 82c17 0 31 -3 45 -8v-69h-22c-63 0 -104 -21 -139 -71v-296l91 -2v-62h-232z" />
    <glyph glyph-name="uni1E5F" unicode="&#x1e5f;" horiz-adv-x="360" 
d="M37 0v62l71 2v372h-76v25l15 39h128v-74c21 54 59 82 119 82c17 0 31 -3 45 -8v-69h-22c-63 0 -104 -21 -139 -71v-296l91 -2v-62h-232zM39 -144v62h224v-62h-224z" />
    <glyph glyph-name="uni1E5B" unicode="&#x1e5b;" horiz-adv-x="360" 
d="M37 0v62l71 2v372h-76v25l15 39h128v-74c21 54 59 82 119 82c17 0 31 -3 45 -8v-69h-22c-63 0 -104 -21 -139 -71v-296l91 -2v-62h-232zM93 -125c0 30 23 53 52 53c31 0 54 -23 54 -53c0 -28 -23 -51 -54 -51c-29 0 -52 23 -52 51z" />
    <glyph glyph-name="uni1E5D" unicode="&#x1e5d;" horiz-adv-x="360" 
d="M93 -125c0 30 23 53 52 53c31 0 54 -23 54 -53c0 -28 -23 -51 -54 -51c-29 0 -52 23 -52 51zM37 0v62l71 2v372h-76v25l15 39h128v-74c21 54 59 82 119 82c17 0 31 -3 45 -8v-69h-22c-63 0 -104 -21 -139 -71v-296l91 -2v-62h-232zM91 594v62h224v-62h-224z" />
    <glyph glyph-name="uni00720325" horiz-adv-x="360" 
d="M37 0v62l71 2v372h-76v25l15 39h128v-74c21 54 59 82 119 82c17 0 31 -3 45 -8v-69h-22c-63 0 -104 -21 -139 -71v-296l91 -2v-62h-232zM63 -137c0 47 38 85 85 85s85 -38 85 -85s-38 -84 -85 -84s-85 37 -85 84zM107 -137c0 -23 18 -41 41 -41s41 18 41 41
s-18 41 -41 41s-41 -18 -41 -41z" />
    <glyph glyph-name="uni007203250304" horiz-adv-x="360" 
d="M37 0v62l71 2v372h-76v25l15 39h128v-74c21 54 59 82 119 82c17 0 31 -3 45 -8v-69h-22c-63 0 -104 -21 -139 -71v-296l91 -2v-62h-232zM91 594v62h224v-62h-224zM64 -137c0 47 38 85 85 85s85 -38 85 -85s-38 -84 -85 -84s-85 37 -85 84zM108 -137c0 -23 18 -41 41 -41
s41 18 41 41s-18 41 -41 41s-41 -18 -41 -41z" />
    <glyph glyph-name="uni1E59" unicode="&#x1e59;" horiz-adv-x="360" 
d="M37 0v62l71 2v372h-76v25l15 39h128v-74c21 54 59 82 119 82c17 0 31 -3 45 -8v-69h-22c-63 0 -104 -21 -139 -71v-296l91 -2v-62h-232zM154 622c0 30 23 53 52 53c31 0 54 -23 54 -53c0 -28 -23 -51 -54 -51c-29 0 -52 23 -52 51z" />
    <glyph glyph-name="uni00720300" horiz-adv-x="360" 
d="M37 0v62l71 2v372h-76v25l15 39h128v-74c21 54 59 82 119 82c17 0 31 -3 45 -8v-69h-22c-63 0 -104 -21 -139 -71v-296l91 -2v-62h-232zM93 730h74l67 -144v-15h-62l-79 144v15z" />
    <glyph glyph-name="sacute" unicode="&#x15b;" horiz-adv-x="442" 
d="M256 730h74v-15l-79 -144h-62v15zM200 -10c-58 0 -125 10 -153 26v138h63l1 -91c28 -7 57 -9 88 -9c87 0 128 32 128 83c0 59 -59 74 -121 96c-89 31 -155 60 -155 143c0 73 52 134 189 134c54 0 113 -10 143 -24v-134h-62l-1 87c-24 5 -52 8 -83 8
c-86 0 -116 -34 -116 -70c0 -47 57 -62 113 -81c90 -31 164 -58 164 -154c0 -90 -70 -152 -198 -152z" />
    <glyph glyph-name="scedilla" unicode="&#x15f;" horiz-adv-x="442" 
d="M215 -53c71 0 110 -37 110 -87c0 -58 -42 -100 -114 -100c-32 0 -61 5 -82 14v55c23 -10 47 -15 74 -15c38 0 63 15 63 44c0 28 -24 44 -61 44c-11 0 -26 -2 -38 -4l-17 35l19 58c-49 3 -99 12 -122 25v138h63l1 -91c28 -7 57 -9 88 -9c87 0 128 32 128 83
c0 59 -59 74 -121 96c-89 31 -155 60 -155 143c0 73 52 134 189 134c54 0 113 -10 143 -24v-134h-62l-1 87c-24 5 -52 8 -83 8c-86 0 -116 -34 -116 -70c0 -47 57 -62 113 -81c90 -31 164 -58 164 -154c0 -84 -60 -142 -170 -151l-14 -44h1z" />
    <glyph glyph-name="scaron" unicode="&#x161;" horiz-adv-x="442" 
d="M262 571h-74l-98 144v15h65l70 -102l72 102h63v-15zM200 -10c-58 0 -125 10 -153 26v138h63l1 -91c28 -7 57 -9 88 -9c87 0 128 32 128 83c0 59 -59 74 -121 96c-89 31 -155 60 -155 143c0 73 52 134 189 134c54 0 113 -10 143 -24v-134h-62l-1 87c-24 5 -52 8 -83 8
c-86 0 -116 -34 -116 -70c0 -47 57 -62 113 -81c90 -31 164 -58 164 -154c0 -90 -70 -152 -198 -152z" />
    <glyph glyph-name="scircumflex" unicode="&#x15d;" horiz-adv-x="442" 
d="M152 571h-65v15l98 144h74l98 -144v-15h-63l-72 102zM200 -10c-58 0 -125 10 -153 26v138h63l1 -91c28 -7 57 -9 88 -9c87 0 128 32 128 83c0 59 -59 74 -121 96c-89 31 -155 60 -155 143c0 73 52 134 189 134c54 0 113 -10 143 -24v-134h-62l-1 87c-24 5 -52 8 -83 8
c-86 0 -116 -34 -116 -70c0 -47 57 -62 113 -81c90 -31 164 -58 164 -154c0 -90 -70 -152 -198 -152z" />
    <glyph glyph-name="uni00730331" horiz-adv-x="442" 
d="M200 -10c-58 0 -125 10 -153 26v138h63l1 -91c28 -7 57 -9 88 -9c87 0 128 32 128 83c0 59 -59 74 -121 96c-89 31 -155 60 -155 143c0 73 52 134 189 134c54 0 113 -10 143 -24v-134h-62l-1 87c-24 5 -52 8 -83 8c-86 0 -116 -34 -116 -70c0 -47 57 -62 113 -81
c90 -31 164 -58 164 -154c0 -90 -70 -152 -198 -152zM108 -144v62h224v-62h-224z" />
    <glyph glyph-name="uni00730300" horiz-adv-x="442" 
d="M200 -10c-58 0 -125 10 -153 26v138h63l1 -91c28 -7 57 -9 88 -9c87 0 128 32 128 83c0 59 -59 74 -121 96c-89 31 -155 60 -155 143c0 73 52 134 189 134c54 0 113 -10 143 -24v-134h-62l-1 87c-24 5 -52 8 -83 8c-86 0 -116 -34 -116 -70c0 -47 57 -62 113 -81
c90 -31 164 -58 164 -154c0 -90 -70 -152 -198 -152zM112 730h74l67 -144v-15h-62l-79 144v15z" />
    <glyph glyph-name="uni1E61" unicode="&#x1e61;" horiz-adv-x="442" 
d="M200 -10c-58 0 -125 10 -153 26v138h63l1 -91c28 -7 57 -9 88 -9c87 0 128 32 128 83c0 59 -59 74 -121 96c-89 31 -155 60 -155 143c0 73 52 134 189 134c54 0 113 -10 143 -24v-134h-62l-1 87c-24 5 -52 8 -83 8c-86 0 -116 -34 -116 -70c0 -47 57 -62 113 -81
c90 -31 164 -58 164 -154c0 -90 -70 -152 -198 -152zM169 622c0 30 23 53 52 53c31 0 54 -23 54 -53c0 -28 -23 -51 -54 -51c-29 0 -52 23 -52 51z" />
    <glyph glyph-name="uni00730306" horiz-adv-x="442" 
d="M200 -10c-58 0 -125 10 -153 26v138h63l1 -91c28 -7 57 -9 88 -9c87 0 128 32 128 83c0 59 -59 74 -121 96c-89 31 -155 60 -155 143c0 73 52 134 189 134c54 0 113 -10 143 -24v-134h-62l-1 87c-24 5 -52 8 -83 8c-86 0 -116 -34 -116 -70c0 -47 57 -62 113 -81
c90 -31 164 -58 164 -154c0 -90 -70 -152 -198 -152zM216 571c-79 0 -126 50 -126 122h63c2 -43 28 -66 63 -66s61 23 63 66h63c0 -72 -47 -122 -126 -122z" />
    <glyph glyph-name="uni1E63" unicode="&#x1e63;" horiz-adv-x="442" 
d="M200 -10c-58 0 -125 10 -153 26v138h63l1 -91c28 -7 57 -9 88 -9c87 0 128 32 128 83c0 59 -59 74 -121 96c-89 31 -155 60 -155 143c0 73 52 134 189 134c54 0 113 -10 143 -24v-134h-62l-1 87c-24 5 -52 8 -83 8c-86 0 -116 -34 -116 -70c0 -47 57 -62 113 -81
c90 -31 164 -58 164 -154c0 -90 -70 -152 -198 -152zM166 -125c0 30 23 53 52 53c31 0 54 -23 54 -53c0 -28 -23 -51 -54 -51c-29 0 -52 23 -52 51z" />
    <glyph glyph-name="scommaaccent" unicode="&#x219;" horiz-adv-x="442" 
d="M189 -52h64c4 -16 6 -31 6 -55c0 -47 -14 -94 -48 -145l-61 27c27 40 43 84 43 120c0 21 -2 36 -4 53zM200 -10c-58 0 -125 10 -153 26v138h63l1 -91c28 -7 57 -9 88 -9c87 0 128 32 128 83c0 59 -59 74 -121 96c-89 31 -155 60 -155 143c0 73 52 134 189 134
c54 0 113 -10 143 -24v-134h-62l-1 87c-24 5 -52 8 -83 8c-86 0 -116 -34 -116 -70c0 -47 57 -62 113 -81c90 -31 164 -58 164 -154c0 -90 -70 -152 -198 -152z" />
    <glyph glyph-name="germandbls" unicode="&#xdf;" horiz-adv-x="610" 
d="M408 -10c-50 0 -100 10 -128 26v138h63l1 -91c20 -6 42 -9 68 -9c66 0 99 26 99 75c0 50 -49 75 -99 100c-61 31 -126 69 -126 146c0 73 51 123 166 132c2 16 3 26 3 42c0 72 -46 128 -134 128c-86 0 -143 -65 -143 -167v-446l62 -2v-62h-203v62l71 2v372h-76v25l15 39
h61v11c0 132 86 229 215 229c130 0 197 -87 197 -185c0 -37 -4 -80 -13 -111c-114 0 -148 -32 -148 -70c0 -42 42 -63 91 -88c59 -30 132 -66 132 -155c0 -82 -59 -141 -174 -141z" />
    <glyph glyph-name="tbar" unicode="&#x167;" horiz-adv-x="362" 
d="M21 266v60h76v110h-76v25l15 39h64l17 133h70l-16 -133h173l-17 -64h-160v-110h149v-60h-149v-114c0 -63 20 -92 83 -92c37 0 71 11 98 27v-70c-24 -17 -69 -26 -107 -26c-97 0 -144 47 -144 137v138h-76z" />
    <glyph glyph-name="tcaron" unicode="&#x165;" horiz-adv-x="358" 
d="M264 790h71v-15l-34 -154h-53v15zM344 17c-24 -17 -69 -26 -107 -26c-97 0 -144 47 -144 137v308h-76v25l15 39h64l17 133h70l-16 -133h173l-17 -64h-160v-284c0 -63 20 -92 83 -92c37 0 71 11 98 27v-70z" />
    <glyph glyph-name="uni021B" unicode="&#x21b;" horiz-adv-x="358" 
d="M177 -52h64c4 -16 6 -31 6 -55c0 -47 -14 -94 -48 -145l-61 27c27 40 43 84 43 120c0 21 -2 36 -4 53zM344 17c-24 -17 -69 -26 -107 -26c-97 0 -144 47 -144 137v308h-76v25l15 39h64l17 133h70l-16 -133h173l-17 -64h-160v-284c0 -63 20 -92 83 -92c37 0 71 11 98 27
v-70z" />
    <glyph glyph-name="tcommaaccent" unicode="&#x163;" horiz-adv-x="358" 
d="M177 -52h64c4 -16 6 -31 6 -55c0 -47 -14 -94 -48 -145l-61 27c27 40 43 84 43 120c0 21 -2 36 -4 53zM344 17c-24 -17 -69 -26 -107 -26c-97 0 -144 47 -144 137v308h-76v25l15 39h64l17 133h70l-16 -133h173l-17 -64h-160v-284c0 -63 20 -92 83 -92c37 0 71 11 98 27
v-70z" />
    <glyph glyph-name="uni1E6F" unicode="&#x1e6f;" horiz-adv-x="358" 
d="M344 17c-24 -17 -69 -26 -107 -26c-97 0 -144 47 -144 137v308h-76v25l15 39h64l17 133h70l-16 -133h173l-17 -64h-160v-284c0 -63 20 -92 83 -92c37 0 71 11 98 27v-70zM100 -144v62h224v-62h-224z" />
    <glyph glyph-name="uni1E6D" unicode="&#x1e6d;" horiz-adv-x="358" 
d="M344 17c-24 -17 -69 -26 -107 -26c-97 0 -144 47 -144 137v308h-76v25l15 39h64l17 133h70l-16 -133h173l-17 -64h-160v-284c0 -63 20 -92 83 -92c37 0 71 11 98 27v-70zM147 -125c0 30 23 53 52 53c31 0 54 -23 54 -53c0 -28 -23 -51 -54 -51c-29 0 -52 23 -52 51z" />
    <glyph glyph-name="uni1E97" unicode="&#x1e97;" horiz-adv-x="358" 
d="M344 17c-24 -17 -69 -26 -107 -26c-97 0 -144 47 -144 137v308h-76v25l15 39h64l17 133h70l-16 -133h173l-17 -64h-160v-284c0 -63 20 -92 83 -92c37 0 71 11 98 27v-70zM40 738c0 30 23 53 52 53c31 0 54 -23 54 -53c0 -28 -23 -51 -54 -51c-29 0 -52 23 -52 51z
M209 738c0 30 23 53 52 53c31 0 54 -23 54 -53c0 -28 -23 -51 -54 -51c-29 0 -52 23 -52 51z" />
    <glyph glyph-name="uni1E6B" unicode="&#x1e6b;" horiz-adv-x="358" 
d="M344 17c-24 -17 -69 -26 -107 -26c-97 0 -144 47 -144 137v308h-76v25l15 39h64l17 133h70l-16 -133h173l-17 -64h-160v-284c0 -63 20 -92 83 -92c37 0 71 11 98 27v-70zM98 738c0 30 23 53 52 53c31 0 54 -23 54 -53c0 -28 -23 -51 -54 -51c-29 0 -52 23 -52 51z" />
    <glyph glyph-name="uacute" unicode="&#xfa;" horiz-adv-x="553" 
d="M469 -10c-44 0 -73 22 -81 63c-26 -38 -76 -63 -138 -63c-98 0 -160 57 -160 162v284h-66v25l15 39h131l-10 -58v-275c0 -78 36 -108 107 -108c47 0 94 21 119 57v320h-78v25l15 39h143l-10 -56v-342c0 -34 12 -47 36 -47c14 0 28 4 39 12v-63c-16 -10 -37 -14 -62 -14z
M297 730h74v-15l-79 -144h-62v15z" />
    <glyph glyph-name="ugrave" unicode="&#xf9;" horiz-adv-x="553" 
d="M469 -10c-44 0 -73 22 -81 63c-26 -38 -76 -63 -138 -63c-98 0 -160 57 -160 162v284h-66v25l15 39h131l-10 -58v-275c0 -78 36 -108 107 -108c47 0 94 21 119 57v320h-78v25l15 39h143l-10 -56v-342c0 -34 12 -47 36 -47c14 0 28 4 39 12v-63c-16 -10 -37 -14 -62 -14z
M150 730h74l67 -144v-15h-62l-79 144v15z" />
    <glyph glyph-name="ucircumflex" unicode="&#xfb;" horiz-adv-x="553" 
d="M469 -10c-44 0 -73 22 -81 63c-26 -38 -76 -63 -138 -63c-98 0 -160 57 -160 162v284h-66v25l15 39h131l-10 -58v-275c0 -78 36 -108 107 -108c47 0 94 21 119 57v320h-78v25l15 39h143l-10 -56v-342c0 -34 12 -47 36 -47c14 0 28 4 39 12v-63c-16 -10 -37 -14 -62 -14z
M195 571h-65v15l98 144h74l98 -144v-15h-63l-72 102z" />
    <glyph glyph-name="udieresis" unicode="&#xfc;" horiz-adv-x="553" 
d="M469 -10c-44 0 -73 22 -81 63c-26 -38 -76 -63 -138 -63c-98 0 -160 57 -160 162v284h-66v25l15 39h131l-10 -58v-275c0 -78 36 -108 107 -108c47 0 94 21 119 57v320h-78v25l15 39h143l-10 -56v-342c0 -34 12 -47 36 -47c14 0 28 4 39 12v-63c-16 -10 -37 -14 -62 -14z
M123 622c0 30 23 53 52 53c31 0 54 -23 54 -53c0 -28 -23 -51 -54 -51c-29 0 -52 23 -52 51zM292 622c0 30 23 53 52 53c31 0 54 -23 54 -53c0 -28 -23 -51 -54 -51c-29 0 -52 23 -52 51z" />
    <glyph glyph-name="ubreve" unicode="&#x16d;" horiz-adv-x="553" 
d="M469 -10c-44 0 -73 22 -81 63c-26 -38 -76 -63 -138 -63c-98 0 -160 57 -160 162v284h-66v25l15 39h131l-10 -58v-275c0 -78 36 -108 107 -108c47 0 94 21 119 57v320h-78v25l15 39h143l-10 -56v-342c0 -34 12 -47 36 -47c14 0 28 4 39 12v-63c-16 -10 -37 -14 -62 -14z
M262 571c-79 0 -126 50 -126 122h63c2 -43 28 -66 63 -66s61 23 63 66h63c0 -72 -47 -122 -126 -122z" />
    <glyph glyph-name="uhungarumlaut" unicode="&#x171;" horiz-adv-x="553" 
d="M469 -10c-44 0 -73 22 -81 63c-26 -38 -76 -63 -138 -63c-98 0 -160 57 -160 162v284h-66v25l15 39h131l-10 -58v-275c0 -78 36 -108 107 -108c47 0 94 21 119 57v320h-78v25l15 39h143l-10 -56v-342c0 -34 12 -47 36 -47c14 0 28 4 39 12v-63c-16 -10 -37 -14 -62 -14z
M349 730h71v-15l-76 -144h-57v15zM218 730h71v-15l-56 -144h-58v15z" />
    <glyph glyph-name="umacron" unicode="&#x16b;" horiz-adv-x="553" 
d="M469 -10c-44 0 -73 22 -81 63c-26 -38 -76 -63 -138 -63c-98 0 -160 57 -160 162v284h-66v25l15 39h131l-10 -58v-275c0 -78 36 -108 107 -108c47 0 94 21 119 57v320h-78v25l15 39h143l-10 -56v-342c0 -34 12 -47 36 -47c14 0 28 4 39 12v-63c-16 -10 -37 -14 -62 -14z
M155 594v62h224v-62h-224z" />
    <glyph glyph-name="uogonek" unicode="&#x173;" horiz-adv-x="553" 
d="M451 -240c-73 0 -115 41 -115 105c0 46 22 92 87 136c-18 10 -30 27 -35 52c-26 -38 -76 -63 -138 -63c-98 0 -160 57 -160 162v284h-66v25l15 39h131l-10 -58v-275c0 -78 36 -108 107 -108c47 0 94 21 119 57v320h-78v25l15 39h143l-10 -56v-342c0 -34 12 -47 36 -47
c14 0 28 4 39 12v-61l-19 -8c-82 -35 -114 -82 -114 -126c0 -38 26 -56 60 -56c20 0 36 3 60 14v-55c-11 -8 -40 -15 -67 -15z" />
    <glyph glyph-name="uring" unicode="&#x16f;" horiz-adv-x="553" 
d="M469 -10c-44 0 -73 22 -81 63c-26 -38 -76 -63 -138 -63c-98 0 -160 57 -160 162v284h-66v25l15 39h131l-10 -58v-275c0 -78 36 -108 107 -108c47 0 94 21 119 57v320h-78v25l15 39h143l-10 -56v-342c0 -34 12 -47 36 -47c14 0 28 4 39 12v-63c-16 -10 -37 -14 -62 -14z
M181 655c0 47 38 85 85 85s85 -38 85 -85s-38 -84 -85 -84s-85 37 -85 84zM225 655c0 -23 15 -43 41 -43s41 20 41 43s-15 43 -41 43s-41 -20 -41 -43z" />
    <glyph glyph-name="utilde" unicode="&#x169;" horiz-adv-x="553" 
d="M469 -10c-44 0 -73 22 -81 63c-26 -38 -76 -63 -138 -63c-98 0 -160 57 -160 162v284h-66v25l15 39h131l-10 -58v-275c0 -78 36 -108 107 -108c47 0 94 21 119 57v320h-78v25l15 39h143l-10 -56v-342c0 -34 12 -47 36 -47c14 0 28 4 39 12v-63c-16 -10 -37 -14 -62 -14z
M138 566v8c0 62 26 101 79 101c22 0 40 -9 59 -22c19 -14 28 -22 42 -22c17 0 25 19 25 48h59v-8c0 -62 -26 -100 -80 -100c-21 0 -37 7 -57 21c-20 15 -28 22 -42 22c-17 0 -25 -19 -25 -48h-60z" />
    <glyph glyph-name="uhorn" unicode="&#x1b0;" horiz-adv-x="560" 
d="M250 -10c-98 0 -160 57 -160 162v284h-66v25l15 39h131l-10 -58v-275c0 -78 36 -108 107 -108c47 0 94 21 119 57v320h-78v25l15 39h91c49 0 75 25 75 75c0 16 -3 37 -7 53h62c7 -17 10 -43 10 -61c0 -69 -36 -112 -98 -122v-343c0 -34 12 -47 36 -47c14 0 28 4 39 12
v-63c-16 -10 -37 -14 -62 -14c-44 0 -73 22 -81 63c-26 -38 -76 -63 -138 -63z" />
    <glyph glyph-name="uni1EE7" unicode="&#x1ee7;" horiz-adv-x="553" 
d="M469 -10c-44 0 -73 22 -81 63c-26 -38 -76 -63 -138 -63c-98 0 -160 57 -160 162v284h-66v25l15 39h131l-10 -58v-275c0 -78 36 -108 107 -108c47 0 94 21 119 57v320h-78v25l15 39h143l-10 -56v-342c0 -34 12 -47 36 -47c14 0 28 4 39 12v-63c-16 -10 -37 -14 -62 -14z
M218 595c34 20 63 43 63 72c0 23 -17 40 -44 40c-14 0 -31 -4 -46 -9v52c18 8 37 13 64 13c53 0 93 -36 93 -86c0 -52 -37 -91 -93 -122z" />
    <glyph glyph-name="uni1EE5" unicode="&#x1ee5;" horiz-adv-x="553" 
d="M469 -10c-44 0 -73 22 -81 63c-26 -38 -76 -63 -138 -63c-98 0 -160 57 -160 162v284h-66v25l15 39h131l-10 -58v-275c0 -78 36 -108 107 -108c47 0 94 21 119 57v320h-78v25l15 39h143l-10 -56v-342c0 -34 12 -47 36 -47c14 0 28 4 39 12v-63c-16 -10 -37 -14 -62 -14z
M219 -125c0 30 23 53 52 53c31 0 54 -23 54 -53c0 -28 -23 -51 -54 -51c-29 0 -52 23 -52 51z" />
    <glyph glyph-name="uni1EEB" unicode="&#x1eeb;" horiz-adv-x="560" 
d="M469 -10c-44 0 -73 22 -81 63c-26 -38 -76 -63 -138 -63c-98 0 -160 57 -160 162v284h-66v25l15 39h131l-10 -58v-275c0 -78 36 -108 107 -108c47 0 94 21 119 57v320h-78v25l15 39h98c44 2 68 27 68 75c0 16 -3 37 -7 53h62c7 -17 10 -43 10 -61
c0 -69 -37 -112 -98 -122v-343c0 -34 12 -47 36 -47c14 0 28 4 39 12v-63c-16 -10 -37 -14 -62 -14zM155 730h74l67 -144v-15h-62l-79 144v15z" />
    <glyph glyph-name="uni1EE9" unicode="&#x1ee9;" horiz-adv-x="560" 
d="M469 -10c-44 0 -73 22 -81 63c-26 -38 -76 -63 -138 -63c-98 0 -160 57 -160 162v284h-66v25l15 39h131l-10 -58v-275c0 -78 36 -108 107 -108c47 0 94 21 119 57v320h-78v25l15 39h91c49 0 75 25 75 75c0 16 -3 37 -7 53h62c7 -17 10 -43 10 -61
c0 -69 -37 -112 -98 -122v-343c0 -34 12 -47 36 -47c14 0 28 4 39 12v-63c-16 -10 -37 -14 -62 -14zM302 730h74v-15l-79 -144h-62v15z" />
    <glyph glyph-name="uni1EEF" unicode="&#x1eef;" horiz-adv-x="560" 
d="M469 -10c-44 0 -73 22 -81 63c-26 -38 -76 -63 -138 -63c-98 0 -160 57 -160 162v284h-66v25l15 39h131l-10 -58v-275c0 -78 36 -108 107 -108c47 0 94 21 119 57v320h-78v25l15 39h91c49 0 75 25 75 75c0 16 -3 37 -7 53h62c7 -17 10 -43 10 -61
c0 -69 -37 -112 -98 -122v-343c0 -34 12 -47 36 -47c14 0 28 4 39 12v-63c-16 -10 -37 -14 -62 -14zM138 566v8c0 62 26 101 79 101c22 0 40 -9 59 -22c19 -14 28 -22 42 -22c17 0 25 19 25 48h59v-8c0 -62 -26 -100 -80 -100c-21 0 -37 7 -57 21c-20 15 -28 22 -42 22
c-17 0 -25 -19 -25 -48h-60z" />
    <glyph glyph-name="uni1EED" unicode="&#x1eed;" horiz-adv-x="560" 
d="M469 -10c-44 0 -73 22 -81 63c-26 -38 -76 -63 -138 -63c-98 0 -160 57 -160 162v284h-66v25l15 39h131l-10 -58v-275c0 -78 36 -108 107 -108c47 0 94 21 119 57v320h-78v25l15 39h91c49 0 75 25 75 75c0 16 -3 37 -7 53h62c7 -17 10 -43 10 -61
c0 -69 -37 -112 -98 -122v-343c0 -34 12 -47 36 -47c14 0 28 4 39 12v-63c-16 -10 -37 -14 -62 -14zM218 595c34 20 63 43 63 72c0 23 -17 40 -44 40c-14 0 -31 -4 -46 -9v52c18 8 37 13 64 13c53 0 93 -36 93 -86c0 -52 -37 -91 -93 -122z" />
    <glyph glyph-name="uni1EF1" unicode="&#x1ef1;" horiz-adv-x="560" 
d="M469 -10c-44 0 -73 22 -81 63c-26 -38 -76 -63 -138 -63c-98 0 -160 57 -160 162v284h-66v25l15 39h131l-10 -58v-275c0 -78 36 -108 107 -108c47 0 94 21 119 57v320h-78v25l15 39h98c44 2 68 27 68 75c0 16 -3 37 -7 53h62c7 -17 10 -43 10 -61
c0 -69 -37 -112 -98 -122v-343c0 -34 12 -47 36 -47c14 0 28 4 39 12v-63c-16 -10 -37 -14 -62 -14zM219 -125c0 30 23 53 52 53c31 0 54 -23 54 -53c0 -28 -23 -51 -54 -51c-29 0 -52 23 -52 51z" />
    <glyph glyph-name="uni01D4" unicode="&#x1d4;" horiz-adv-x="553" 
d="M469 -10c-44 0 -73 22 -81 63c-26 -38 -76 -63 -138 -63c-98 0 -160 57 -160 162v284h-66v25l15 39h131l-10 -58v-275c0 -78 36 -108 107 -108c47 0 94 21 119 57v320h-78v25l15 39h143l-10 -56v-342c0 -34 12 -47 36 -47c14 0 28 4 39 12v-63c-16 -10 -37 -14 -62 -14z
M304 571h-74l-98 144v15h65l70 -102l72 102h63v-15z" />
    <glyph glyph-name="uni01D6" unicode="&#x1d6;" horiz-adv-x="553" 
d="M469 -10c-44 0 -73 22 -81 63c-26 -38 -76 -63 -138 -63c-98 0 -160 57 -160 162v284h-66v25l15 39h131l-10 -58v-275c0 -78 36 -108 107 -108c47 0 94 21 119 57v320h-78v25l15 39h143l-10 -56v-342c0 -34 12 -47 36 -47c14 0 28 4 39 12v-63c-16 -10 -37 -14 -62 -14z
M146 724v63h234v-63h-234zM126 622c0 30 23 53 52 53c31 0 54 -23 54 -53c0 -28 -23 -51 -54 -51c-29 0 -52 23 -52 51zM295 622c0 30 23 53 52 53c31 0 54 -23 54 -53c0 -28 -23 -51 -54 -51c-29 0 -52 23 -52 51z" />
    <glyph glyph-name="uni01D8" unicode="&#x1d8;" horiz-adv-x="553" 
d="M469 -10c-44 0 -73 22 -81 63c-26 -38 -76 -63 -138 -63c-98 0 -160 57 -160 162v284h-66v25l15 39h131l-10 -58v-275c0 -78 36 -108 107 -108c47 0 94 21 119 57v320h-78v25l15 39h143l-10 -56v-342c0 -34 12 -47 36 -47c14 0 28 4 39 12v-63c-16 -10 -37 -14 -62 -14z
M322 857h79v-15l-106 -124h-64v15zM295 622c0 30 23 53 52 53c31 0 54 -23 54 -53c0 -28 -23 -51 -54 -51c-29 0 -52 23 -52 51zM126 622c0 30 23 53 52 53c31 0 54 -23 54 -53c0 -28 -23 -51 -54 -51c-29 0 -52 23 -52 51z" />
    <glyph glyph-name="uni01DA" unicode="&#x1da;" horiz-adv-x="553" 
d="M469 -10c-44 0 -73 22 -81 63c-26 -38 -76 -63 -138 -63c-98 0 -160 57 -160 162v284h-66v25l15 39h131l-10 -58v-275c0 -78 36 -108 107 -108c47 0 94 21 119 57v320h-78v25l15 39h143l-10 -56v-342c0 -34 12 -47 36 -47c14 0 28 4 39 12v-63c-16 -10 -37 -14 -62 -14z
M299 718h-74l-98 124v15h66l69 -83l71 83h64v-15zM126 622c0 30 23 53 52 53c31 0 54 -23 54 -53c0 -28 -23 -51 -54 -51c-29 0 -52 23 -52 51zM295 622c0 30 23 53 52 53c31 0 54 -23 54 -53c0 -28 -23 -51 -54 -51c-29 0 -52 23 -52 51z" />
    <glyph glyph-name="uni01DC" unicode="&#x1dc;" horiz-adv-x="553" 
d="M469 -10c-44 0 -73 22 -81 63c-26 -38 -76 -63 -138 -63c-98 0 -160 57 -160 162v284h-66v25l15 39h131l-10 -58v-275c0 -78 36 -108 107 -108c47 0 94 21 119 57v320h-78v25l15 39h143l-10 -56v-342c0 -34 12 -47 36 -47c14 0 28 4 39 12v-63c-16 -10 -37 -14 -62 -14z
M125 857h77l91 -124v-15h-64l-104 124v15zM126 622c0 30 23 53 52 53c31 0 54 -23 54 -53c0 -28 -23 -51 -54 -51c-29 0 -52 23 -52 51zM295 622c0 30 23 53 52 53c31 0 54 -23 54 -53c0 -28 -23 -51 -54 -51c-29 0 -52 23 -52 51z" />
    <glyph glyph-name="uni00760304" horiz-adv-x="540" 
d="M316 0h-91l-153 436h-56v64h190v-64h-59l125 -365l122 365h-55v64h184v-64h-55zM159 594v62h224v-62h-224z" />
    <glyph glyph-name="uni1E7F" unicode="&#x1e7f;" horiz-adv-x="540" 
d="M316 0h-91l-153 436h-56v64h190v-64h-59l125 -365l122 365h-55v64h184v-64h-55zM218 -125c0 30 23 53 52 53c31 0 54 -23 54 -53c0 -28 -23 -51 -54 -51c-29 0 -52 23 -52 51z" />
    <glyph glyph-name="uni1E7D" unicode="&#x1e7d;" horiz-adv-x="540" 
d="M316 0h-91l-153 436h-56v64h190v-64h-59l125 -365l122 365h-55v64h184v-64h-55zM141 566v8c0 62 26 101 79 101c22 0 40 -9 59 -22c19 -14 28 -22 42 -22c17 0 25 19 25 48h59v-8c0 -62 -26 -100 -80 -100c-21 0 -37 7 -57 21c-20 15 -28 22 -42 22
c-17 0 -25 -19 -25 -48h-60z" />
    <glyph glyph-name="wacute" unicode="&#x1e83;" horiz-adv-x="747" 
d="M415 730h74v-15l-79 -144h-62v15zM472 0l-98 333l-99 -333h-84l-114 436h-58v64h194v-64h-64l88 -343l95 320h85l95 -324l89 347h-65v64h192v-64h-58l-114 -436h-84z" />
    <glyph glyph-name="wcircumflex" unicode="&#x175;" horiz-adv-x="747" 
d="M303 571h-65v15l98 144h74l98 -144v-15h-63l-72 102zM472 0l-98 333l-99 -333h-84l-114 436h-58v64h194v-64h-64l88 -343l95 320h85l95 -324l89 347h-65v64h192v-64h-58l-114 -436h-84z" />
    <glyph glyph-name="wdieresis" unicode="&#x1e85;" horiz-adv-x="747" 
d="M236 622c0 30 23 53 52 53c31 0 54 -23 54 -53c0 -28 -23 -51 -54 -51c-29 0 -52 23 -52 51zM405 622c0 30 23 53 52 53c31 0 54 -23 54 -53c0 -28 -23 -51 -54 -51c-29 0 -52 23 -52 51zM472 0l-98 333l-99 -333h-84l-114 436h-58v64h194v-64h-64l88 -343l95 320h85
l95 -324l89 347h-65v64h192v-64h-58l-114 -436h-84z" />
    <glyph glyph-name="wgrave" unicode="&#x1e81;" horiz-adv-x="747" 
d="M472 0l-98 333l-99 -333h-84l-114 436h-58v64h194v-64h-64l88 -343l95 320h85l95 -324l89 347h-65v64h192v-64h-58l-114 -436h-84zM261 730h74l67 -144v-15h-62l-79 144v15z" />
    <glyph glyph-name="uni1E87" unicode="&#x1e87;" horiz-adv-x="747" 
d="M472 0l-98 333l-99 -333h-84l-114 436h-58v64h194v-64h-64l88 -343l95 320h85l95 -324l89 347h-65v64h192v-64h-58l-114 -436h-84zM322 622c0 30 23 53 52 53c31 0 54 -23 54 -53c0 -28 -23 -51 -54 -51c-29 0 -52 23 -52 51z" />
    <glyph glyph-name="uni1E89" unicode="&#x1e89;" horiz-adv-x="747" 
d="M472 0l-98 333l-99 -333h-84l-114 436h-58v64h194v-64h-64l88 -343l95 320h85l95 -324l89 347h-65v64h192v-64h-58l-114 -436h-84zM320 -125c0 30 23 53 52 53c31 0 54 -23 54 -53c0 -28 -23 -51 -54 -51c-29 0 -52 23 -52 51z" />
    <glyph glyph-name="uni00780304" horiz-adv-x="527" 
d="M211 0h-198v62l58 1l147 200l-124 173h-61v64h198v-64h-54l89 -124l90 124h-55v64h192v-64h-58l-128 -172l148 -200l58 -2v-62h-202v62l60 2l-111 152l-110 -152l61 -2v-62zM153 594v62h224v-62h-224z" />
    <glyph glyph-name="uni1E8B" unicode="&#x1e8b;" horiz-adv-x="527" 
d="M211 0h-198v62l58 1l147 200l-124 173h-61v64h198v-64h-54l89 -124l90 124h-55v64h192v-64h-58l-128 -172l148 -200l58 -2v-62h-202v62l60 2l-111 152l-110 -152l61 -2v-62zM212 622c0 30 23 53 52 53c31 0 54 -23 54 -53c0 -28 -23 -51 -54 -51c-29 0 -52 23 -52 51z
" />
    <glyph glyph-name="ydieresis" unicode="&#xff;" horiz-adv-x="539" 
d="M78 -241c-19 0 -43 3 -56 8v67c15 -4 29 -6 50 -6c77 0 124 23 162 136l12 36h-23l-152 436h-55v64h190v-64h-60l125 -364l123 364h-55v64h184v-64h-55l-176 -508c-43 -123 -111 -169 -214 -169zM131 622c0 30 23 53 52 53c31 0 54 -23 54 -53c0 -28 -23 -51 -54 -51
c-29 0 -52 23 -52 51zM300 622c0 30 23 53 52 53c31 0 54 -23 54 -53c0 -28 -23 -51 -54 -51c-29 0 -52 23 -52 51z" />
    <glyph glyph-name="ycircumflex" unicode="&#x177;" horiz-adv-x="539" 
d="M78 -241c-19 0 -43 3 -56 8v67c15 -4 29 -6 50 -6c77 0 124 23 162 136l12 36h-23l-152 436h-55v64h190v-64h-60l125 -364l123 364h-55v64h184v-64h-55l-176 -508c-43 -123 -111 -169 -214 -169zM200 571h-65v15l98 144h74l98 -144v-15h-63l-72 102z" />
    <glyph glyph-name="ymacron" unicode="&#x233;" horiz-adv-x="539" 
d="M78 -241c-19 0 -43 3 -56 8v67c15 -4 29 -6 50 -6c77 0 124 23 162 136l12 36h-23l-152 436h-55v64h190v-64h-60l125 -364l123 364h-55v64h184v-64h-55l-176 -508c-43 -123 -111 -169 -214 -169zM155 594v62h224v-62h-224z" />
    <glyph glyph-name="ygrave" unicode="&#x1ef3;" horiz-adv-x="539" 
d="M78 -241c-19 0 -43 3 -56 8v67c15 -4 29 -6 50 -6c77 0 124 23 162 136l12 36h-23l-152 436h-55v64h190v-64h-60l125 -364l123 364h-55v64h184v-64h-55l-176 -508c-43 -123 -111 -169 -214 -169zM155 730h74l67 -144v-15h-62l-79 144v15z" />
    <glyph glyph-name="yacute" unicode="&#xfd;" horiz-adv-x="539" 
d="M78 -241c-19 0 -43 3 -56 8v67c15 -4 29 -6 50 -6c77 0 124 23 162 136l12 36h-23l-152 436h-55v64h190v-64h-60l125 -364l123 364h-55v64h184v-64h-55l-176 -508c-43 -123 -111 -169 -214 -169zM309 730h74v-15l-79 -144h-62v15z" />
    <glyph glyph-name="uni1E8F" unicode="&#x1e8f;" horiz-adv-x="539" 
d="M78 -241c-19 0 -43 3 -56 8v67c15 -4 29 -6 50 -6c77 0 124 23 162 136l12 36h-23l-152 436h-55v64h190v-64h-60l125 -364l123 364h-55v64h184v-64h-55l-176 -508c-43 -123 -111 -169 -214 -169zM217 622c0 30 23 53 52 53c31 0 54 -23 54 -53c0 -28 -23 -51 -54 -51
c-29 0 -52 23 -52 51z" />
    <glyph glyph-name="uni1EF9" unicode="&#x1ef9;" horiz-adv-x="539" 
d="M78 -241c-19 0 -43 3 -56 8v67c15 -4 29 -6 50 -6c77 0 124 23 162 136l12 36h-23l-152 436h-55v64h190v-64h-60l125 -364l123 364h-55v64h184v-64h-55l-176 -508c-43 -123 -111 -169 -214 -169zM141 566v8c0 62 26 101 79 101c22 0 40 -9 59 -22c19 -14 28 -22 42 -22
c17 0 25 19 25 48h59v-8c0 -62 -26 -100 -80 -100c-21 0 -37 7 -57 21c-20 15 -28 22 -42 22c-17 0 -25 -19 -25 -48h-60z" />
    <glyph glyph-name="uni1EF7" unicode="&#x1ef7;" horiz-adv-x="539" 
d="M78 -241c-19 0 -43 3 -56 8v67c15 -4 29 -6 50 -6c77 0 124 23 162 136l12 36h-23l-152 436h-55v64h190v-64h-60l125 -364l123 364h-55v64h184v-64h-55l-176 -508c-43 -123 -111 -169 -214 -169zM218 595c34 20 63 43 63 72c0 23 -17 40 -44 40c-14 0 -31 -4 -46 -9v52
c18 8 37 13 64 13c53 0 93 -36 93 -86c0 -52 -37 -91 -93 -122z" />
    <glyph glyph-name="uni1EF5" unicode="&#x1ef5;" horiz-adv-x="539" 
d="M78 -241c-19 0 -43 3 -56 8v67c15 -4 29 -6 50 -6c77 0 124 23 162 136l12 36h-23l-152 436h-55v64h190v-64h-60l125 -364l123 364h-55v64h184v-64h-55l-176 -508c-43 -123 -111 -169 -214 -169zM351 -125c0 30 23 53 52 53c31 0 54 -23 54 -53c0 -28 -23 -51 -54 -51
c-29 0 -52 23 -52 51z" />
    <glyph glyph-name="zacute" unicode="&#x17a;" horiz-adv-x="464" 
d="M274 730h74v-15l-79 -144h-62v15zM419 0h-383v62l292 374h-209l-2 -84h-63v148h365v-60l-294 -376h229l2 84h63v-148z" />
    <glyph glyph-name="zcaron" unicode="&#x17e;" horiz-adv-x="464" 
d="M274 571h-74l-98 144v15h65l70 -102l72 102h63v-15zM419 0h-383v62l292 374h-209l-2 -84h-63v148h365v-60l-294 -376h229l2 84h63v-148z" />
    <glyph glyph-name="zdotaccent" unicode="&#x17c;" horiz-adv-x="464" 
d="M419 0h-383v62l292 374h-209l-2 -84h-63v148h365v-60l-294 -376h229l2 84h63v-148zM186 622c0 30 23 53 52 53c31 0 54 -23 54 -53c0 -28 -23 -51 -54 -51c-29 0 -52 23 -52 51z" />
    <glyph glyph-name="uni1E95" unicode="&#x1e95;" horiz-adv-x="464" 
d="M419 0h-383v62l292 374h-209l-2 -84h-63v148h365v-60l-294 -376h229l2 84h63v-148zM120 -144v62h224v-62h-224z" />
    <glyph glyph-name="uni1E93" unicode="&#x1e93;" horiz-adv-x="464" 
d="M419 0h-383v62l292 374h-209l-2 -84h-63v148h365v-60l-294 -376h229l2 84h63v-148zM170 -125c0 30 23 53 52 53c31 0 54 -23 54 -53c0 -28 -23 -51 -54 -51c-29 0 -52 23 -52 51z" />
    <glyph glyph-name="uni007A0324" horiz-adv-x="464" 
d="M419 0h-383v62l292 374h-209l-2 -84h-63v148h365v-60l-294 -376h229l2 84h63v-148zM86 -125c0 30 23 53 52 53c31 0 54 -23 54 -53c0 -28 -23 -51 -54 -51c-29 0 -52 23 -52 51zM255 -125c0 30 23 53 52 53c31 0 54 -23 54 -53c0 -28 -23 -51 -54 -51
c-29 0 -52 23 -52 51z" />
    <glyph glyph-name="thorn" unicode="&#xfe;" horiz-adv-x="531" 
d="M243 -168v-62h-237v62l71 2v832h-75v25l15 39h140l-10 -56v-239c31 45 86 75 147 75c119 0 193 -82 193 -245c0 -179 -90 -275 -235 -275c-38 0 -76 7 -105 19v-175zM244 53c109 0 170 68 170 205c0 124 -50 183 -135 183c-48 0 -98 -30 -132 -72v-296
c26 -14 61 -20 97 -20z" />
    <glyph glyph-name="eth" unicode="&#xf0;" horiz-adv-x="524" 
d="M251 -10c-117 0 -208 77 -208 239c0 154 76 251 213 251c43 0 85 -10 113 -31c-18 52 -46 97 -84 136l-109 -73l-35 51l96 64c-32 24 -70 44 -112 60l28 57c56 -20 105 -46 145 -77l127 84l35 -50l-114 -76c85 -86 124 -199 124 -331c0 -207 -77 -304 -219 -304zM260 54
c89 0 135 73 135 237c0 34 -3 67 -9 98c-34 16 -73 23 -111 23c-110 0 -159 -67 -159 -178c0 -118 55 -180 144 -180z" />
    <glyph glyph-name="uni01C6" unicode="&#x1c6;" horiz-adv-x="1010" 
d="M463 -10c-41 0 -68 19 -78 54c-29 -34 -80 -54 -135 -54c-121 0 -206 80 -206 253c0 167 77 267 227 267c42 0 83 -11 109 -29v185h-86v25l15 39h151l-10 -56v-573c0 -31 11 -46 36 -46c14 0 30 5 39 12v-63c-17 -10 -36 -14 -62 -14zM965 0h-383v62l292 374h-209l-2 -84
h-63v148h365v-60l-294 -376h229l2 84h63v-148zM264 57c45 0 92 16 116 44v318c-27 16 -62 23 -103 23c-105 0 -160 -67 -160 -193c0 -137 56 -192 147 -192zM820 571h-74l-98 144v15h65l70 -102l72 102h63v-15z" />
    <glyph glyph-name="uni01C9" unicode="&#x1c9;" horiz-adv-x="492" 
d="M235 2c-11 -7 -38 -12 -58 -12c-58 0 -98 25 -98 99v577h-73v25l15 39h138l-10 -56v-570c0 -38 11 -49 43 -49c14 0 30 3 43 10v-63zM326 622c0 30 23 53 52 53c31 0 54 -23 54 -53c0 -28 -23 -51 -54 -51c-29 0 -52 23 -52 51zM232 -235c-18 0 -41 2 -55 7v66
c14 -2 32 -4 47 -4c84 0 120 37 120 141v461h-76v25l15 39h141l-10 -56v-481c0 -136 -65 -198 -182 -198z" />
    <glyph glyph-name="uni01CC" unicode="&#x1cc;" horiz-adv-x="823" 
d="M259 62v-62h-222v62l71 2v372h-76v25l15 39h131v-67c34 48 91 77 154 77c103 0 156 -75 156 -173v-273l71 -2v-62h-220v62l79 2v252c0 84 -32 125 -103 125c-50 0 -101 -29 -137 -73v-304zM657 622c0 30 23 53 52 53c31 0 54 -23 54 -53c0 -28 -23 -51 -54 -51
c-29 0 -52 23 -52 51zM563 -235c-18 0 -41 2 -55 7v66c14 -2 32 -4 47 -4c84 0 120 37 120 141v461h-76v25l15 39h141l-10 -56v-481c0 -136 -65 -198 -182 -198z" />
    <glyph glyph-name="uni01F3" unicode="&#x1f3;" horiz-adv-x="1010" 
d="M463 -10c-41 0 -68 19 -78 54c-29 -34 -80 -54 -135 -54c-121 0 -206 80 -206 253c0 167 77 267 227 267c42 0 83 -11 109 -29v185h-86v25l15 39h151l-10 -56v-573c0 -31 11 -46 36 -46c14 0 30 5 39 12v-63c-17 -10 -36 -14 -62 -14zM965 0h-383v62l292 374h-209l-2 -84
h-63v148h365v-60l-294 -376h229l2 84h63v-148zM264 57c45 0 92 16 116 44v318c-27 16 -62 23 -103 23c-105 0 -160 -67 -160 -193c0 -137 56 -192 147 -192z" />
    <glyph glyph-name="uni021D" unicode="&#x21d;" horiz-adv-x="467" 
d="M97 436l-2 -84h-63v148h389v-60l-136 -272c89 -25 141 -89 141 -190c0 -124 -93 -215 -241 -215c-77 0 -132 13 -163 30v72c42 -21 86 -34 162 -34c104 0 170 55 170 149c0 85 -60 134 -157 134h-89v66h83c8 0 16 0 24 -1l129 257h-247z" />
    <glyph glyph-name="uni01EF" unicode="&#x1ef;" horiz-adv-x="467" 
d="M259 571h-74l-98 144v15h65l70 -102l72 102h63v-15zM97 436l-2 -84h-63v148h389v-60l-136 -272c89 -25 141 -89 141 -190c0 -124 -93 -215 -241 -215c-77 0 -132 13 -163 30v72c42 -21 86 -34 162 -34c104 0 170 55 170 149c0 85 -60 134 -157 134h-89v66h83
c8 0 16 0 24 -1l129 257h-247z" />
    <glyph glyph-name="uni0138" unicode="&#x138;" horiz-adv-x="527" 
d="M257 62v-62h-217v62l66 2v372h-76v25l15 39h131v-210h84l111 146h-71v64h214v-64h-62l-137 -180l140 -192l59 -2v-62h-97l-162 225h-79v-161z" />
    <glyph glyph-name="uni01DD" unicode="&#x1dd;" horiz-adv-x="469" 
d="M193 510c142 0 233 -71 233 -247c0 -158 -70 -273 -205 -273c-111 0 -177 72 -177 197c0 24 4 54 10 80h299c-3 129 -62 175 -165 175c-49 0 -102 -13 -134 -33v69c26 17 85 32 139 32zM225 53c74 0 115 59 125 153h-234c-1 -7 -1 -15 -1 -23c0 -85 40 -130 110 -130z
" />
    <glyph glyph-name="schwa" unicode="&#x259;" horiz-adv-x="469" 
d="M193 510c142 0 233 -71 233 -247c0 -158 -70 -273 -205 -273c-111 0 -177 72 -177 197c0 24 4 54 10 80h299c-3 129 -62 175 -165 175c-49 0 -102 -13 -134 -33v69c26 17 85 32 139 32zM225 53c74 0 115 59 125 153h-234c-1 -7 -1 -15 -1 -23c0 -85 40 -130 110 -130z
" />
    <glyph glyph-name="i.TRK" horiz-adv-x="278" 
d="M90 622c0 30 23 53 52 53c31 0 54 -23 54 -53c0 -28 -23 -51 -54 -51c-29 0 -52 23 -52 51zM259 0h-222v62l71 2v372h-76v25l15 39h141l-10 -56v-380l81 -2v-62z" />
    <glyph glyph-name="ae" unicode="&#xe6;" horiz-adv-x="742" 
d="M688 22c-26 -17 -85 -32 -139 -32c-85 0 -150 26 -187 84c-28 -49 -88 -84 -161 -84c-92 0 -160 57 -160 148c0 100 65 156 211 156h73v35c0 86 -41 115 -114 115c-22 0 -52 -3 -78 -9l-2 -83h-62v130c41 18 100 28 148 28c78 0 130 -29 155 -82c34 51 84 82 149 82
c111 0 177 -72 177 -197c0 -24 -4 -54 -10 -80h-294c3 -129 57 -175 160 -175c49 0 102 13 134 33v-69zM213 55c56 0 103 28 125 71c-10 30 -15 65 -15 107h-62c-109 0 -148 -35 -148 -92c0 -55 38 -86 100 -86zM517 447c-74 0 -111 -59 -121 -153h230c1 7 1 15 1 23
c0 85 -40 130 -110 130z" />
    <glyph glyph-name="aeacute" unicode="&#x1fd;" horiz-adv-x="742" 
d="M688 22c-26 -17 -85 -32 -139 -32c-85 0 -150 26 -187 84c-28 -49 -88 -84 -161 -84c-92 0 -160 57 -160 148c0 100 65 156 211 156h73v35c0 86 -41 115 -114 115c-22 0 -52 -3 -78 -9l-2 -83h-62v130c41 18 100 28 148 28c78 0 130 -29 155 -82c34 51 84 82 149 82
c111 0 177 -72 177 -197c0 -24 -4 -54 -10 -80h-294c3 -129 57 -175 160 -175c49 0 102 13 134 33v-69zM213 55c56 0 103 28 125 71c-10 30 -15 65 -15 107h-62c-109 0 -148 -35 -148 -92c0 -55 38 -86 100 -86zM517 447c-74 0 -111 -59 -121 -153h230c1 7 1 15 1 23
c0 85 -40 130 -110 130zM411 730h74v-15l-79 -144h-62v15z" />
    <glyph glyph-name="aemacron" unicode="&#x1e3;" horiz-adv-x="742" 
d="M688 22c-26 -17 -85 -32 -139 -32c-85 0 -150 26 -187 84c-28 -49 -88 -84 -161 -84c-92 0 -160 57 -160 148c0 100 65 156 211 156h73v35c0 86 -41 115 -114 115c-22 0 -52 -3 -78 -9l-2 -83h-62v130c41 18 100 28 148 28c78 0 130 -29 155 -82c34 51 84 82 149 82
c111 0 177 -72 177 -197c0 -24 -4 -54 -10 -80h-294c3 -129 57 -175 160 -175c49 0 102 13 134 33v-69zM213 55c56 0 103 28 125 71c-10 30 -15 65 -15 107h-62c-109 0 -148 -35 -148 -92c0 -55 38 -86 100 -86zM517 447c-74 0 -111 -59 -121 -153h230c1 7 1 15 1 23
c0 85 -40 130 -110 130zM263 594v62h224v-62h-224z" />
    <glyph glyph-name="oe" unicode="&#x153;" horiz-adv-x="820" 
d="M623 -10c-94 0 -166 31 -203 104c-31 -67 -87 -104 -170 -104c-131 0 -206 84 -206 255c0 166 75 265 215 265c83 0 138 -37 166 -106c33 66 90 106 170 106c111 0 181 -72 181 -197c0 -24 -4 -54 -10 -80h-307c3 -129 66 -175 169 -175c49 0 106 13 138 33v-69
c-26 -17 -89 -32 -143 -32zM116 249c0 -134 49 -196 138 -196c84 0 130 62 130 196s-41 196 -130 196c-88 0 -138 -66 -138 -196zM591 447c-74 0 -118 -59 -129 -153h242c1 7 1 15 1 23c0 85 -44 130 -114 130z" />
    <glyph glyph-name="ij" unicode="&#x133;" horiz-adv-x="524" 
d="M90 622c0 30 23 53 52 53c31 0 54 -23 54 -53c0 -28 -23 -51 -54 -51c-29 0 -52 23 -52 51zM259 0h-222v62l71 2v372h-76v25l15 39h141l-10 -56v-380l81 -2v-62zM358 622c0 30 23 53 52 53c31 0 54 -23 54 -53c0 -28 -23 -51 -54 -51c-29 0 -52 23 -52 51zM264 -235
c-18 0 -41 2 -55 7v66c14 -2 32 -4 47 -4c84 0 120 37 120 141v461h-76v25l15 39h141l-10 -56v-481c0 -136 -65 -198 -182 -198z" />
    <glyph glyph-name="iacute_jacute" horiz-adv-x="524" 
d="M179 730h74v-15l-79 -144h-62v15zM259 0h-222v62l71 2v372h-76v25l15 39h141l-10 -56v-380l81 -2v-62zM447 730h74v-15l-79 -144h-62v15zM264 -235c-18 0 -41 2 -55 7v66c14 -2 32 -4 47 -4c84 0 120 37 120 141v461h-76v25l15 39h141l-10 -56v-481
c0 -136 -65 -198 -182 -198z" />
    <glyph glyph-name="comma" unicode="," horiz-adv-x="197" 
d="M59 85h68c9 -24 13 -47 13 -73c0 -46 -17 -97 -65 -147l-54 36c36 38 51 77 51 116c0 22 -4 45 -13 68z" />
    <glyph glyph-name="period" unicode="." horiz-adv-x="219" 
d="M52 46c0 31 25 57 57 57s58 -26 58 -57s-26 -56 -58 -56s-57 25 -57 56z" />
    <glyph glyph-name="ellipsis" unicode="&#x2026;" horiz-adv-x="609" 
d="M52 46c0 31 25 57 57 57s58 -26 58 -57s-26 -56 -58 -56s-57 25 -57 56zM247 46c0 31 25 57 57 57s58 -26 58 -57s-26 -56 -58 -56s-57 25 -57 56zM442 46c0 31 25 57 57 57s58 -26 58 -57s-26 -56 -58 -56s-57 25 -57 56z" />
    <glyph glyph-name="colon" unicode=":" horiz-adv-x="243" 
d="M64 46c0 31 25 57 57 57s58 -26 58 -57s-26 -56 -58 -56s-57 25 -57 56zM64 448c0 31 25 57 57 57s58 -26 58 -57s-26 -56 -58 -56s-57 25 -57 56z" />
    <glyph glyph-name="semicolon" unicode=";" horiz-adv-x="245" 
d="M83 85h68c9 -24 13 -47 13 -73c0 -46 -17 -97 -65 -147l-54 36c36 38 51 77 51 116c0 22 -4 45 -13 68zM69 448c0 31 25 57 57 57s58 -26 58 -57s-26 -56 -58 -56s-57 25 -57 56z" />
    <glyph glyph-name="question" unicode="?" horiz-adv-x="428" 
d="M216 184h-58l-4 175c134 36 170 84 170 148c0 53 -43 96 -140 96c-57 0 -110 -13 -156 -39v67c42 27 104 39 160 39c148 0 210 -75 210 -158c0 -88 -61 -155 -179 -193zM130 46c0 31 25 57 57 57s58 -26 58 -57s-26 -56 -58 -56s-57 25 -57 56z" />
    <glyph glyph-name="questiondown" unicode="&#xbf;" horiz-adv-x="422" 
d="M209 246h58l4 -175c-134 -36 -170 -84 -170 -148c0 -53 43 -96 140 -96c57 0 110 13 156 39v-67c-42 -27 -104 -39 -160 -39c-148 0 -210 75 -210 158c0 88 61 155 179 193zM295 384c0 -31 -25 -57 -57 -57s-58 26 -58 57s26 56 58 56s57 -25 57 -56z" />
    <glyph glyph-name="questiondown.cap" horiz-adv-x="429" 
d="M212 476h58l4 -175c-134 -36 -170 -84 -170 -148c0 -53 43 -96 140 -96c57 0 110 13 156 39v-67c-42 -27 -104 -39 -160 -39c-148 0 -210 75 -210 158c0 88 61 155 179 193zM298 614c0 -31 -25 -57 -57 -57s-58 26 -58 57s26 56 58 56s57 -25 57 -56z" />
    <glyph glyph-name="question.smcp" horiz-adv-x="424" 
d="M158 168l-4 119c113 23 160 63 160 113c0 42 -36 75 -117 75c-47 0 -113 -13 -159 -36v64c40 24 110 37 159 37c129 0 190 -61 190 -135c0 -68 -54 -126 -171 -158l-2 -79h-56zM129 46c0 31 25 57 57 57s58 -26 58 -57s-26 -56 -58 -56s-57 25 -57 56z" />
    <glyph glyph-name="questiondown.smcp" horiz-adv-x="425" 
d="M267 362l4 -119c-113 -23 -160 -63 -160 -113c0 -42 36 -75 117 -75c47 0 113 13 159 36v-64c-40 -24 -110 -37 -159 -37c-129 0 -190 61 -190 135c0 68 54 126 171 158l2 79h56zM296 484c0 -31 -25 -57 -57 -57s-58 26 -58 57s26 56 58 56s57 -25 57 -56z" />
    <glyph glyph-name="exclam" unicode="!" horiz-adv-x="220" 
d="M53 46c0 31 25 57 57 57s58 -26 58 -57s-26 -56 -58 -56s-57 25 -57 56zM70 645v15h80v-15l-11 -461h-58z" />
    </font>
</defs>
</svg>
